<?xml version="1.0" encoding="UTF-8"?>
<svg id="Layer_1" data-name="Layer 1" xmlns="http://www.w3.org/2000/svg" viewBox="0 0 828.5 353">
  <defs>
    <style>
      .cls-1 {
        fill: #050505;
      }

      .cls-2 {
        fill: #121212;
      }

      .cls-3 {
        fill: #202020;
      }

      .cls-4 {
        fill: #0b0b0b;
      }

      .cls-5 {
        fill: #080808;
      }

      .cls-6 {
        fill: #151515;
      }

      .cls-7 {
        fill: #181818;
      }

      .cls-8 {
        fill: #0a0a0a;
      }
    </style>
  </defs>
  <path class="cls-2" d="M827.45,98.89c-10.28,10.63-20.64,21.18-30.75,31.98-1.43,1.53-1.62,4.23-2.36,6.4-4.91,14.51-14.5,24.95-28.17,31.53-8.03,3.86-15.02,2.9-20.17-2.67,15.28,.92,25.57-6.84,34.41-17.26,3.76-4.43,7.11-9.31,8.44-14.92,1.59-6.7,5.64-11.25,10.26-15.89,7.63-7.67,14.7-15.89,22.22-23.66,1.6-1.65,2.59-4.99,6.11-3.81v8.3Z"/>
  <path class="cls-8" d="M2.55,108.58c5.33-5.13,8.29-12.28,14.31-16.81,1.88-1.41,3.46-4.64,6.2-2.99,3.17,1.9,1.29,4.93,.21,7.38-4.57,10.29-8.45,20.79-10.43,31.91-.4,2.25-.94,4.61-.63,6.8,.33,2.39,1.03,4.59-1.62,5.94-2.88,1.46-4.01-1.11-5.59-2.62-.75-.72-.93-2.18-2.45-1.95v-27.67Z"/>
  <path class="cls-1" d="M159.49,68.6c.65,2.76,1.3,5.51,1.95,8.27l.87,1.29c.93,3.38-.41,7.22,2.1,10.27-.18,.13-.53,.31-.5,.39,.11,.38,.31,.74,.48,1.1-.28,4.94-.21,9.86,1.09,14.69,.07,.85,.13,1.7,.2,2.55,.91,1.71-2.77,6.27,3.06,4.94-.18,.09-.53,.22-.52,.26,.07,.34,.22,.67,.34,1-5.25-.98-2.61,3.17-2.58,4.65,.43,21.21,.05,42.36-3.14,63.38-4.87,32.11-13.2,63.03-31.36,90.52-10.53,15.94-23.63,27.75-44.46,26.5-1.34-.64-2.71-.9-4.16-.41-10.07-.21-15.14-7.86-20.24-14.57-8.14-10.68-11.11-23.64-13.06-36.65-8.45-56.25-.63-110.47,20.84-162.92,4.08-9.98,25.49-23.68,36.3-23.13,4.4,.22,6.4,2.35,4.34,6.86-.51,.61-1.01,1.23-1.52,1.84,1.12,.64,2.03,.49,2.68-.7,3.94-3.47,7.6-7.33,11.86-10.35,14.05-9.97,25.1-7.49,34.5,7.36,.31,.95,.63,1.89,.94,2.84Zm-75.37,203.17c-.42,1.38,.51,1.85,1.52,2.26l.04,.15c6.5,4.67,11.31,4.38,17.66-1.58,9.09-8.53,14.9-19.31,19.74-30.57,20.62-47.98,25.67-98.58,24.62-150.12-.11-5.21-1.14-10.52-4.05-15.15,.04-.9-.24-1.52-1.28-1.49l.09,.11c-2.15-5.01-6.35-5.54-10.9-4.68-7.09,1.35-12.53,5.54-17.34,10.68-6.98,7.46-12,16.24-16.9,25.11-17.06,30.92-23.04,64.77-25.55,99.35-1.41,19.53-.73,39.11,6.93,57.69,1.12,3.28,1.63,6.96,5.53,8.41l-.12-.17Z"/>
  <path class="cls-5" d="M335.51,180.47c6.14-32.94,19.05-62.68,41.6-87.85,1.22-1.36,2.63-2.58,4.03-3.76,10.49-8.86,18.2-7.52,25.23,4.34,.58,.98,1.2,1.94,1.8,2.91-.34,3.27,4.38,7.23-1.33,9.77-1.25-.51-2.5-1.01-3.75-1.52-3.01-3.74-6.34-2.78-9.73-.65-6.15,3.86-11,9.09-15.34,14.81-13.48,17.79-21.6,37.87-25.29,59.8-.22,1.29-.03,2.65-.03,4.53,4.03-1.24,5.63-4.34,7.36-7.1,10.22-16.42,20.34-32.9,30.5-49.36,.85-1.37,1.69-2.76,2.68-4.02,3.06-3.89,5.62-9.6,11.89-6.91,6.19,2.65,7.27,8.88,6.43,14.72-1.02,7.03-3.3,13.87-4.88,20.83-1.8,7.95-4.31,15.82-3.55,24.4,3.36-.38,4.83-2.65,6.15-4.57,10.82-15.66,21.84-30.94,25.94-50.42,6.99-33.18,20.13-64.52,31.27-96.44,1.29-3.69,2.52-7.4,3.59-11.16,.41-1.44,1.43-3.5-.45-4.38-3.3-1.54-4.47-3.65-1.69-6.21,2.88-2.64,6.49-2.42,9.31,.29,4.25,4.08,5.57,9.4,5.41,15.17-.29,10.94-3.29,21.36-6.17,31.79-8.02,29.04-18.31,57.43-24.86,86.88-2.4,10.79-4.5,21.65-4.86,32.74-.06,1.78-.6,4.13,1.25,5.08,2.41,1.24,3.8-1.21,4.93-2.65,11.24-14.36,21.6-29.31,27.28-46.85,7.49-23.12,20.13-43.32,34.42-62.66,1.8-2.44,4.27-3.57,6.31-1.07,3.58,4.39,11.29,6.92,7.39,15.16-.97,2.06,1.24,3.8,2.72,4.21,4.13,1.12,1.62-3.87,4.04-4.8,2.3,.88,4.27,3.38,3.58,5.1-2.17,5.38,1.29,9.01,3.09,13.14,4.05,9.27,4.05,18.76,1.54,28.29-4.96,18.83-14.91,34.63-29.92,47.03-10.54,8.71-16.72,8.72-27.38,.41-3.22-2.51-3.87-1.01-5.43,1.57-4.76,7.9-9.8,15.67-17.67,20.96-6.1,4.1-10.11,3.77-16.47-1.51,15.35-.67,21.03-12.72,28.64-22.75,3.77-4.97,6.01-9.31,1.76-14.93-4.12,6.35-8.13,12.74-12.38,18.96-1.68,2.45-3.74,4.69-5.88,6.77-10.71,10.4-18.35,9.29-25.51-3.63-.39-.71-.31-1.88-1.64-1.12l.22,.24c.65-5.65-2.59-10.87-1.31-17.41-3.61,1.98-4.04,5.17-5.56,7.45-4.47,6.69-8.47,13.74-14.44,19.27-9.23,8.54-17.71,5.95-20.74-6.2-1.76-7.04-1.61-14.13-.62-21.25,.44-3.14,.97-6.27,1.47-9.54-3.51-.18-3.42,2.55-4.25,4.1-7.06,13.15-13.35,26.75-22.08,38.94-7.52,10.5-9.2,10.98-21.17,7.36,.45-3.79-2.15-3.88-4.78-3.94,.79-4.48-2.79-8.01-2.67-12.34Zm192.8-88.35l.19,.2c-.79-2.01-3.93-5.33-5.12-5.37-2.36-.07-2.92,2.04-3.86,3.47-10.23,15.45-17.95,32.06-22.65,50.02-1.57,6.02-2.93,12.14-2.09,18.39,.76,5.61,3.96,7.07,8.74,4.18,1.74-1.05,3.34-2.48,4.66-4.03,8.56-10.01,15.98-20.79,21.09-33,3.79-9.06,5.76-18.41,3.53-28.25-.86-3.79-1.27-4.32-4.5-5.61Z"/>
  <path class="cls-4" d="M75.13,342.41c18.05-14.6,38.07-22.94,57.64-31.97,97.74-45.06,198.92-80.12,304.1-103.27,94.6-20.82,190.21-27.04,286.72-18.41,16.52,1.48,33.02,3.38,49.32,6.6,11.92,2.36,21.27,9.52,30.61,16.64,1.23,.94,2.92,2.17,2.34,3.92-.67,2.02-2.83,2.27-4.67,2.07-9.85-1.09-19.72-2.03-29.51-3.48-72.95-10.85-146.13-16.6-219.93-10.96-70.6,5.4-139.56,19.48-207.74,37.94-87.58,23.71-172.26,55.13-253.42,95.82-3.7,1.85-7.52,3.47-11.34,5.06-.78,.32-1.8,.05-4.11,.05Z"/>
  <path class="cls-1" d="M256.56,215.93c6.79,4.47,14.18,3.43,21.24,1.5,20.3-5.57,37.18-16.5,49.91-33.48,1.81-2.42,3.09-5.9,7.23-3.5-.39,5.92-3.04,10.99-6.14,15.85-8.68,13.63-20.03,24.51-34.25,32.2-13.57,7.34-27.72,10.87-42.9,5.05-17.26-11.68-24.58-29.08-26.11-48.79-3.17-40.7,12.68-75.68,35.12-108.15,11.33-16.39,24.85-30.9,42.03-41.5,6.69-4.13,13.8-7.31,21.58-8.92,3.63-.75,6.86-.11,9.94,1.67,10.7,6.17,15.81,26.39,9.4,37.03-1.37,2.27-2.97,4.18-5.94,3.96-3.25-.24-4.8-2.57-5.77-5.25-1.47-4.07-.22-8.22-.04-12.33,.1-2.22,1.4-5.03-.77-6.48-2.44-1.62-4.79,.64-6.88,1.82-8.94,5.08-16.19,12.22-22.75,19.97-26.97,31.86-46.55,67.42-52.95,109.19-1.78,11.61-1.99,23.4,2.48,34.76,1.11,2.82,2.6,4.73,5.53,5.44l.04-.04Z"/>
  <path class="cls-5" d="M651.58,147.11c-2.25-2.7-.76-6.14-1.81-10.08-4.5,4.79-8.17,9.45-12.97,12.93-10.25,7.41-20.2,3.33-22.07-9.25-1.43-9.64,1.25-18.77,4.08-27.79,4.08-12.97,9.78-25.3,15.13-37.76,1.74-4.05,4.62-7.66,3.34-12.95-.84-3.5,2.58-4.22,5.73-3.4,7.3,1.9,11.72,8.58,10.66,16.36-.92,6.73-3.91,12.72-6.88,18.72-6.22,12.57-13.75,24.55-17.52,38.21-.98,3.57-3.83,8.66-.51,10.67,2.94,1.78,5.94-3.26,8.36-5.79,12.93-13.54,24.24-28.35,33.8-44.46,7.79-13.13,16.63-25.45,27.58-36.15,2.3-2.25,4.76-4.36,7.32-6.31,12.24-9.29,19.22-7.68,26.19,5.93,.18,3.34,3.39,7.23,.77,9.77-2.65,2.56-.93,4.86-1.5,7.18-1.32-.17-2.51,.12-3.49,1.06-3.52-.18-6.69-2.22-10.41-1.93,1.54-1.21,3.28-1.82,4.65-2.9,1.45-1.14,5.65,.09,4.04-3.68-1.1-2.59-3.62-2.94-6.49-1.77-4.79,1.95-8.95,4.8-12.62,8.29-19.15,18.22-31.91,40.27-38.84,65.73-.37,1.34-1.74,3.01,.63,4.27,3.78-2.28,6.36-5.79,8.96-9.24,12.21-16.17,24.28-32.44,36.58-48.55,3.32-4.35,6.76-9.08,13.5-7.68,6.32,5.31,6,11.97,3.65,18.9-3.68,10.88-7.62,21.67-11.2,32.58-.86,2.61-3.04,6.45-.34,8.04,2.43,1.43,4.42-2.48,6.2-4.38,10.27-10.96,18.47-23.47,26.77-35.91,1.88-2.82,3.69-8.23,7.67-6.15,4.69,2.45,.38,6.69-1.16,9.46-8.36,15.15-18.21,29.32-30.09,41.94-4.74,5.04-10.28,10.64-17.89,7.3-7.64-3.35-6.84-11.33-6.73-18.16,.13-7.55,2.49-14.84,4.28-22.82-3.48,.68-3.91,3.21-5.02,4.86-9.01,13.33-16.94,27.42-27.99,39.29-7.81,8.39-13.55,8.43-21.48,.39,.53-2.51-2-3.16-2.92-4.78Z"/>
  <path class="cls-7" d="M83.74,352.66c10.9-9.6,22.16-15.56,33.62-21.18,91.82-45,188.34-76.5,287.71-99.71,42.67-9.97,85.76-17.57,129.38-21.85,51.3-5.03,102.66-5.39,154.05-1.25,35.86,2.89,71.44,8.03,107.07,12.9,4.86,.66,9.83,2.33,14.8-.57,2.93-1.71,4.27,1.53,4.68,3.32,.67,2.96-2.09,3.04-4.14,3.03-10.65-.05-21.08-2.15-31.56-3.67-57.81-8.4-115.79-13.99-174.31-12.74-72.95,1.57-144.44,13.16-215.16,30.52-100.96,24.79-198.34,59.35-291.39,105.88-4.15,2.08-8.17,4.85-14.76,5.31Z"/>
  <path class="cls-8" d="M602.5,77.11c-19,22.28-34.41,46.31-41.58,74.87-1.02,4.08-1.28,8.18-.87,12.34,.17,1.74-.23,3.44-1.8,4.16-1.78,.82-3.02-.73-4.08-1.89-4.6-5.04-6.11-11.21-6.29-17.82-.53-19.54,5.96-37.57,12.14-55.65,2.75-8.05,5.91-15.95,8.68-23.99,1.28-3.73,3.75-7.33,1.19-11.69-.97-1.65,.49-3.54,2.17-4.6,1.76-1.11,3.01,.24,4.32,1.11,5.7,3.74,8.25,8.96,7.92,15.81-.25,5.23-1.91,10.18-2.88,15.32,3.27,.2,4.03-2.39,5.4-4.08,6.67-8.26,13.74-16.13,21.68-23.2,3.99-3.55,8.17-6.43,13.49-2.53,5.44,3.99,6.43,9.4,3.91,15.32-2.07,4.85-4.75,9.44-7.12,14.17-.82,1.64-2.26,3.44-2.09,5.02,.82,7.51-3.08,7.11-7.77,4.71-2.27-1.16-3.43-1.29-5.06,.87-14.99,19.82-27.15,41.09-33.46,65.32-1.03,3.96-1.8,8.1-1.02,12.32,.34,1.86,.21,3.84-1.75,4.8-1.45,.71-2.57-.42-3.66-1.3-1.77-1.43-1.56-2.46-.26-4.45,2.1-3.21,.05-7.2,.82-10.82,5.88-27.58,18.87-51.55,37.09-72.83,3.09-3.61,.2-7.49,.87-11.3Z"/>
  <path class="cls-5" d="M781.51,89.22c2.14,5.57,4.28,11.15,6.67,17.36,8.39-6.63,15.84-13.69,23.06-21.02,1.61-1.63,3.29-3.22,5.06-4.66,.88-.72,2.05-1.03,3.17-.21,1.38,1,1.47,2.39,.71,3.64-1.3,2.16-2.7,4.31-4.33,6.22-4.05,4.72-8.17,9.39-12.43,13.92-8.6,9.13-17.3,17.59-21.77,30.32-4.34,12.36-14.64,21.13-27.63,25.35-5.65,1.84-12.82,4.06-16.17-2.4-3.13-6.05,2.42-10.64,7.01-14.22,8.91-6.95,17.93-13.75,24.83-22.88,8.93-11.81,9.57-18.86-1.12-28.89-22.37-20.98-1.87-50.6,18.92-56.76,6.05-1.79,9.41,2.17,11.86,7.05,2.33,4.65,2.46,8.9-2.5,12.01-5.45,3.42-11.23,6.4-16.37,10.24-9.03,6.75-9.57,12.42-2.91,22.03,0,2.72,1.82,3.01,3.92,2.9Z"/>
  <path class="cls-7" d="M168.54,113.37c-.12-.33-.27-.66-.34-1-.01-.05,.34-.17,.52-.26-.03-1.4-.54-2.96,1.24-3.77,.49,.03,.98,.05,1.47,.08,.87,.04,1.74,.08,2.61,.11,1.62,.88,1.54,2.39,1.45,3.91-1.98,3.49-.65,7.18-.48,10.74,2.05,44.11-2.23,87.34-18.71,128.69-7.19,18.04-16.23,35.15-31.79,47.7-11.88,9.57-30.25,11.03-42.14,3.7-2.46-1.52-2.54-2.22,.44-2.64,1.3,.35,2.61,.7,3.91,1.05,14.71,3.15,27.29-.71,37.94-11.31,7.77-7.73,13.86-16.68,18.81-26.35,24.06-47.04,28.86-97.53,26.33-149.28-.02-.47-.81-.9-1.24-1.35Z"/>
  <path class="cls-6" d="M256.51,215.97c-3.41-5.62-4.13-11.88-4.37-18.26-.79-21.19,4.72-41.08,12.88-60.31,11.8-27.81,27.27-53.27,48.92-74.66,3.91-3.86,8.1-7.35,12.92-10.56,2.08,5.23,.01,8.01-3.46,11.37-35.67,34.53-58.62,75.88-66.01,125.31-.99,6.61-.99,13.39,.32,19.98,.54,2.72,.26,4.87-1.17,7.07,0,.02-.04,.06-.04,.06Z"/>
  <path class="cls-7" d="M485.88,11.69c6.21,5.49,7,12.64,5.96,20.41-2.81,20.86-10.07,40.56-16.02,60.58-5.83,19.6-11.95,39.12-16,59.19-.91,4.49-3.94,7.42-6.78,10.71,.81-13.54,3.85-26.54,7.52-39.38,7.75-27.18,15.9-54.24,23.54-81.45,2.72-9.7,4.96-19.66,1.79-30.06Z"/>
  <path class="cls-8" d="M26.74,117.07c1.05-14.18,9.63-23.88,19.61-32.73,1.1-.98,2.52-1.38,3.81-.52,1.29,.86,1.36,2.35,.96,3.73-.51,1.75-1.18,3.46-1.8,5.18-4.63,12.84-11.33,25.16-9.83,39.55,.17,1.66-1.06,3.01-2.67,3.68-1.89,.78-3.04-.53-4.12-1.71-4.45-4.85-6.13-10.67-5.95-17.18Z"/>
  <path class="cls-6" d="M257.13,240c5.46,.36,10.96,1.31,16.37,.98,16.57-1.01,30.09-9.08,42.38-19.54,9.39-8,16.44-17.86,22.29-28.63,2.63,.06,5.23,.15,4.78,3.94-12.13,25.11-31.56,41.57-58.66,48.3-9.46,2.35-19.08,1.82-27.17-5.05Z"/>
  <path class="cls-4" d="M199.02,98.87c2.32-10.35,4.26-20.77,4.75-31.4,.15-3.21-.21-6.45-.08-9.66,.12-3.07-4.1-7.28,.9-8.97,4.4-1.49,6.66,3.13,8.84,6.1,4.3,5.87,5.46,12.69,4.21,19.75-1.68,9.52-6.51,17.67-12.06,25.39-1.14,1.58-2.46,3.58-5.08,2.37-.02-1.39,.09-2.83-1.48-3.58Z"/>
  <path class="cls-8" d="M175.49,112.42c.09-1.52,.17-3.03-1.45-3.91,1.42-9.3,3.05-18.57,4.18-27.91,.65-5.41,1.42-11.02-.9-16.29-.9-2.04-.56-3.6,.92-4.94,2.13-1.93,3.86-.32,5.43,.97,6.99,5.73,9.43,13.39,8.85,22.1-.76,11.29-6.77,20.28-13.34,28.94-.87,1.15-2.17,1.7-3.68,1.04Z"/>
  <path class="cls-8" d="M678.34,15.95c.11,2.11-.8,4.85-3.81,6.46-10.98,5.84-22,11.64-32.99,17.46-1.48,.79-3,1.51-4.37-.05-1.53-1.72-1.01-3.6,.38-4.96,10.04-9.84,19.96-19.81,30.8-28.79,1.49-1.24,3.1-1.91,5.03-.62,3.36,2.26,4.79,5.47,4.97,10.5Z"/>
  <path class="cls-2" d="M497.26,181.12c25.28-2.18,35.02-22.2,46.26-40.61,3.17,8.49-.41,15.01-5.12,21.36-5.1,6.88-10.64,13.32-17.74,18.18-7.43,5.09-15.15,8-23.4,1.07Z"/>
  <path class="cls-6" d="M681.31,13.51c9,8.84,8.47,15.08,.04,19.68-9.7,5.29-19.49,10.4-29.29,15.48-1.85,.96-4.22,3.16-5.83-.08-1.44-2.91,.5-4.66,2.99-5.95,8.58-4.44,17.02-9.17,25.73-13.33,6.19-2.96,9.84-6.74,6.35-15.8Z"/>
  <path class="cls-6" d="M636.97,128.83c3.32-9.87,8.56-18.72,13.07-27.93,4.49-9.19,10.19-18.14,7.35-29.82,7.01,4.6,6.62,10.98,4.96,16.86-4.51,15.96-13.25,29.52-25.39,40.88Z"/>
  <path class="cls-7" d="M45.92,145.5c-2.37,.06-3.38-1.31-4.47-2.45-1.31-1.36-.74-2.23,.77-3.12,1.16-.69,1.9-1.88,1.75-3.49-1.41-14.61,5.44-27.17,10.18-40.23,.77-2.13,2.21-4.58,5.06-3.13,2.87,1.45,1.45,4.03,.59,6.08-4.56,10.81-8.79,21.73-10.77,33.36-.5,2.93-.64,5.92-.85,8.89-.14,1.95-.6,3.59-2.25,4.1Z"/>
  <path class="cls-2" d="M351.05,202.59c10.37,2.84,14.8-4.01,19.05-10.77,4.87-7.75,9.41-15.71,14.42-24.14,2.2,5.73,2.11,10.51-1.2,15.61-4.52,6.94-8.24,14.41-13.83,20.61-5.6,6.21-11.57,6.09-18.44-1.31Z"/>
  <path class="cls-2" d="M781.51,89.22c-2.1,.1-3.92-.18-3.92-2.9-1.68-10.02,3.82-15.97,11.7-20.55,3.37-1.96,6.81-3.82,10.16-5.82,4.64-2.77,8.1-6.1,4.22-12.57,7.31,3.74,8.89,10.75,3.76,15-3.49,2.9-7.65,5.04-11.65,7.28-7.78,4.36-13.87,9.87-14.27,19.57Z"/>
  <path class="cls-2" d="M665.1,162.37c9.92,1.22,14.8-5.01,19.55-11.12,5.42-6.97,10.48-14.23,15.89-21.64,2.56,6.36,.75,11.18-2.96,15.94-4.79,6.14-9.06,12.71-14.87,17.98-5.85,5.3-10.27,5.11-17.61-1.16Z"/>
  <path class="cls-2" d="M221.62,64.22c6.11,5.59,6.27,12.8,5.29,19.94-1.35,9.81-6.63,17.98-12.37,25.79-1.01,1.37-2.42,3.25-4.53,1.86-2.07-1.36-1.86-3.52-.99-5.55,.35-.83,1.01-1.52,1.53-2.28,8.23-11.92,15.04-24.23,11.08-39.76Z"/>
  <path class="cls-2" d="M739.69,139.13c9.71-12.17,18.1-23.99,25.08-36.76,1.2-2.2,2.41-5.14,5.61-3.34,2.78,1.57,1.09,4.06,.15,6.1-6.26,13.67-14.97,25.33-27.76,33.61-.48,.31-1.25,.18-3.08,.39Z"/>
  <path class="cls-2" d="M431.44,173.78c-1.91,10.64-8.76,17.68-17.64,22.72-4.24,2.41-8.78,1.44-12.22-3.33,12.84-.54,18.16-10.09,23.77-18.79,2.58-4,3.99-3.71,6.3-.37,0,0-.22-.23-.22-.23Z"/>
  <path class="cls-7" d="M346.73,41.25c10.23,8.82,10.93,19.94,6.93,31.66-2.25,6.61-6.72,6.94-11.6,1.64,9.61-5.71,12.04-22.6,4.81-33.46l-.14,.15Z"/>
  <path class="cls-3" d="M22.32,114.68c2.88,7.24,2.51,13.14,.69,19.3-1.12,3.79-2.37,7.88-.97,12.08,.71,2.11-.8,3.51-2.39,4.47-1.81,1.09-2.94-.46-4.12-1.49-1.75-1.52-1.91-2.83,.27-4.29,1.84-1.23,.79-3.14,.84-4.91,.27-8.43,2.15-16.57,5.68-25.16Z"/>
  <path class="cls-3" d="M393.09,113.25c-9.23,14.74-18.45,29.48-27.68,44.22-.54-.35-1.09-.7-1.63-1.05,7.08-16.12,15.11-31.63,29.31-43.17Z"/>
  <path class="cls-7" d="M199.02,98.87c1.57,.75,1.47,2.19,1.48,3.58-3.53,5.58-6.96,11.22-10.65,16.69-1.16,1.73-2.68,4.61-5.33,2.56-2.31-1.79-1.76-4.45-.02-6.76,3.59-4.79,7.08-9.72,9.15-15.34,1.62-4.37,3.72,.26,5.36-.74Z"/>
  <path class="cls-6" d="M651.58,147.11c.92,1.63,3.45,2.27,2.92,4.78-3.8,3.3-7.04,7.26-11.63,9.62-5.52,2.83-10.41,2.43-15.61-3.17,8.73,.81,14.24-3.27,19.25-8.35,1.42-1.44,2.58-3.34,5.08-2.88Z"/>
  <path class="cls-7" d="M410.71,159.18c.94-11.92,8.21-21.84,4.22-33.4,9.57,5.41,8.02,19.44-4.22,33.4Z"/>
  <path class="cls-2" d="M729.72,116.59c2.51-9.01,8.93-17,7.03-27.12-.12-.66-.55-1.37,.21-1.53,.81-.17,2.08-.14,2.53,.36,1.75,1.92,2.37,4.35,2.56,6.95,.6,8.22-5.61,19.06-12.34,21.34Z"/>
  <path class="cls-3" d="M162.3,78.16l-.87-1.29q3.01-1.36,2.59-6.79c6.53,10.07,10.56,20.66,6.13,33.01-.48-.03-.95-.06-1.43-.09-.42-3.99-.75-8-1.28-11.98-.27-2.02-1.32-2.76-3.08-1.1-.17-.36-.37-.72-.48-1.1-.02-.08,.33-.26,.5-.39,.92,.82,2.2,1.49,2.48-.2,.62-3.7-.48-7.27-1.99-10.59-.57-1.26-1.88-.56-2.59,.52Z"/>
  <path class="cls-7" d="M733.27,146.69c-.02,4.79,1.79,8.8-3.62,10.72-4.98,1.76-9.24,2.03-13.3-3.35,6.71,.23,11.52-2.93,16.92-7.37Z"/>
  <path class="cls-3" d="M736.09,58.7c6.02,3.09,5.98,9.15,6.95,14.59,.34,1.9-1.13,3.7-3.03,4.13-2.69,.61-3.96-1.79-5.52-3.41,6.31-4.5,2.32-10.08,1.6-15.31Z"/>
  <path class="cls-7" d="M412.26,98.61c3.68,1.8,4.39,5.59,5.86,8.84,1.15,2.54,2.25,5.39-.48,7.5-3.09,2.39-4.84-.93-7.03-2.19,3.77-3.77,4.71-7.84,1.15-12.25-.89-1.1-.42-1.46,.5-1.89Z"/>
  <path class="cls-3" d="M406.84,105.88c-1.69,2.33,2.66,3.3,1.27,5.56-4.44,1.92-8.82-1.37-13.71,.49,1.11-5.44,7.78-3.09,8.69-7.58,1.25,.51,2.5,1.01,3.75,1.52Z"/>
  <path class="cls-7" d="M346.87,41.09c-.04-.33-.08-.66-.13-.98,.06,.15,.19,.3,.18,.44,0,.22-.1,.44-.18,.68-.02,.02,.12-.14,.12-.14Z"/>
  <path class="cls-7" d="M142.12,76.72c.2,1.66,.34,3.25-1.89,3.74-11.32,2.49-17.95,10.92-23.85,19.73-13.03,19.46-22.54,40.43-27.37,63.57-5.81,27.84-10.61,55.64-6.88,84.22,.96,7.33,2.33,14.54,4.79,21.51,.68,1.93,1.99,3.86-1.23,4.69,0,0-.04-.15-.04-.15-.1-1.03-.19-2.06-1.52-2.26,0,0,.12,.17,.12,.17-.28-3.82-2.13-7.08-3.71-10.44-5.17-21.75-5.85-43.71-2.95-65.81,4.39-33.52,11.66-66.13,30.37-95.09,4.38-6.78,9.01-13.32,15.18-18.67,5.59-4.84,11.82-7.48,19.32-6.55,0,0-.09-.11-.09-.11-.08,.48-.17,.97-.25,1.45Z"/>
  <path class="cls-3" d="M711.21,79.43c-8.28,11.09-16.57,22.18-24.85,33.28-.5-.37-1.01-.74-1.51-1.11,6.82-12.22,14.79-23.6,24.84-33.47,.51,.44,1.01,.87,1.52,1.31Z"/>
  <path class="cls-2" d="M528.31,92.12c1.86,3.85,1.24,7-1.22,10.76-9.74,14.88-16.96,30.98-21.07,48.36-.84,3.53-2.35,6.3-6.53,7.68-.28-4.55,.62-8.51,1.61-12.43,4.62-18.19,12.17-35.12,22.57-50.73,1.03-1.55,1.34-4.98,4.82-3.45,0,0-.19-.2-.19-.2Z"/>
</svg>