<?xml version="1.0" encoding="UTF-8"?>
<svg id="Layer_1" data-name="Layer 1" xmlns="http://www.w3.org/2000/svg" viewBox="0 0 612 139.83">
  <defs>
    <style>
      .cls-1 {
        stroke-width: 0px;
      }
    </style>
  </defs>
  <path class="cls-1" d="M611.51,124.1c-.09.6-.17,1.2-.28,1.79-1.3,7.23-6.64,12.48-13.89,13.6-3.51.54-6.96.26-10.23-1.19-5.47-2.42-8.58-6.71-9.73-12.51-.08-.4-.16-.81-.24-1.21,0,0-.05-.01-.18-.04-.05.32-.11.64-.17.95-.97,5.43-3.72,9.64-8.65,12.27-2.53,1.35-5.27,1.93-8.14,1.96-3.65.04-7.05-.81-10.09-2.87-3.79-2.56-6-6.17-6.95-10.6-.06-.29-.1-.58-.16-.87-.05-.26-.1-.53-.15-.83h-17.04c-.1.53-.19,1.06-.3,1.58-1.1,5.21-3.88,9.2-8.65,11.69-2.97,1.54-6.16,2.05-9.48,1.86-3.23-.19-6.21-1.13-8.87-2.99-2.71-1.89-4.68-4.39-5.83-7.48-1.92-5.15-1.86-10.29.45-15.29,2.31-4.99,6.32-7.96,11.67-9.06,3.35-.69,6.7-.54,9.93.62,5.92,2.12,9.41,6.38,10.76,12.47.12.55.2,1.11.3,1.7h17.03c.1-.55.2-1.1.31-1.64,1.4-7.07,6.6-12.12,13.69-13.29.46-.08.92-.13,1.5-.21-8.97-1.27-14.02-6.39-15.62-15.12-.05.14-.12.28-.15.43-.35,2.3-1.03,4.49-2.22,6.49-2.65,4.48-6.61,7.07-11.7,7.93-3.48.59-6.91.3-10.17-1.08-5.23-2.21-8.37-6.21-9.73-11.67-.08-.33-.14-.67-.2-1.01-.06-.33-.12-.67-.19-1.06h-16.84c-.05-1.62-.03-3.18-.01-4.84,5.61-.06,11.18-.01,16.78-.04,1.39-8.75,6.36-13.91,15.3-15.28-.24-.07-.35-.13-.48-.14-7.48-.88-13.17-6.23-14.51-13.64-.07-.41-.14-.82-.23-1.33-2.8-.06-5.61.01-8.42,0-2.79-.01-5.58,0-8.41,0v-4.82h16.77c.06-.32.11-.58.15-.83.7-4.41,2.63-8.13,6.17-10.92,2.66-2.09,5.71-3.18,9.06-3.47,3.03-.27,5.98.07,8.79,1.25,5.29,2.22,8.47,6.24,9.79,11.78.16.68.26,1.38.41,2.2.28-.34.26-.66.3-.94.24-1.56.64-3.07,1.3-4.5,2.5-5.5,6.79-8.66,12.72-9.63,3.54-.57,7-.22,10.3,1.23,4.98,2.19,8.04,6.03,9.39,11.26.21.8.33,1.62.62,2.46.04-.16.11-.31.13-.48.35-2.43,1.08-4.73,2.37-6.82,2.66-4.31,6.55-6.79,11.5-7.63,3.17-.54,6.32-.34,9.35.76,5.68,2.05,9.14,6.11,10.59,11.94.17.68.21,1.4.32,2.1.03.16.09.32.13.48v4.12c-.1.62-.18,1.25-.29,1.87-1.27,7.04-6.55,12.26-13.62,13.45-.44.08-.89.14-1.33.22.74.23,1.48.34,2.2.5,8.42,1.85,12.43,8.72,12.91,14.58.02.19.09.38.13.57v3.97c-.1.65-.16,1.3-.3,1.94-1.49,6.93-5.58,11.43-12.5,13.23-.87.23-1.78.34-2.69.5.98.18,1.96.31,2.9.55,8.46,2.1,12.08,9.11,12.46,14.54,0,.14.08.27.12.4v4.12ZM561.47,104.5c.25.05.47.09.68.12.17.03.34.04.51.07,3.62.55,6.79,2,9.41,4.59,2.64,2.61,4.12,5.79,4.74,9.42.05.31.06.64.29.92.15-.43.22-.85.29-1.27,1.15-6.74,5.98-11.86,12.63-13.38.84-.19,1.7-.32,2.69-.5-.6-.08-1.07-.14-1.52-.22-4.26-.72-7.79-2.68-10.47-6.1-1.93-2.47-3-5.3-3.46-8.39-.02-.15-.09-.29-.14-.43-1.6,8.81-6.69,13.92-15.64,15.16ZM561.63,69.26c8.94,1.34,13.95,6.45,15.44,15.17,1.48-8.72,6.48-13.84,15.38-15.17-8.88-1.34-13.87-6.48-15.39-15.18-1.52,8.7-6.51,13.83-15.44,15.18ZM557.8,69.2c-.47-.08-.94-.14-1.41-.23-5.58-1.07-9.66-4.1-12.13-9.24-.75-1.56-1.21-3.2-1.47-4.91-.04-.24,0-.52-.32-.73-.05.23-.09.39-.11.55-.41,2.62-1.25,5.09-2.75,7.3-2.84,4.19-6.84,6.47-11.81,7.17-.18.03-.43-.07-.57.23.29.03.53.05.77.09.24.03.48.08.72.12,3.39.62,6.37,2.05,8.83,4.5,2.77,2.75,4.26,6.11,4.82,9.93.02.17.08.33.13.49,1.53-8.72,6.5-13.87,15.29-15.27Z"/>
  <path class="cls-1" d="M56.82,0c.29.04.57.11.86.12,4.37.16,8.69.66,12.96,1.64,6.25,1.44,12.09,3.82,17.31,7.6,6.91,5,11.62,11.63,14.46,19.63,1.4,3.94,2.28,8,2.67,12.16.19,2.07.27,4.15.4,6.23.02.29,0,.58,0,.95-6.35-.06-12.63-.13-18.95-.19-.05-1.07-.08-2.05-.14-3.02-.3-4.64-1.28-9.11-3.4-13.29-3.29-6.48-8.52-10.69-15.35-12.98-3.15-1.06-6.41-1.6-9.72-1.82-2.72-.18-5.44-.14-8.15.17-7.39.84-14,3.46-19.43,8.67-3.72,3.56-6.3,7.85-8.05,12.67-1.32,3.66-2.12,7.44-2.39,11.32-.15,2.08-.23,4.16-.23,6.24-.02,9.16-.02,18.33,0,27.49,0,4.47.43,8.9,1.57,13.24,1.26,4.82,3.28,9.27,6.43,13.17,4.17,5.15,9.57,8.39,15.92,10.11,4.81,1.3,9.71,1.56,14.66,1.28,3.66-.21,7.25-.8,10.73-2,4.4-1.52,8.21-3.91,11.2-7.53,2.49-3.03,4.06-6.51,5.05-10.27.88-3.36,1.21-6.79,1.29-10.25,0-.26.02-.53.04-.86,6.32-.07,12.59-.13,18.94-.2,0,.54.01,1.02,0,1.5-.13,5.11-.74,10.16-2.16,15.08-1.71,5.96-4.44,11.39-8.52,16.11-4.61,5.33-10.32,9.05-16.87,11.54-4.05,1.54-8.23,2.53-12.52,3.12-4.33.6-8.69.82-13.05.68-7.35-.23-14.53-1.41-21.38-4.18-12.83-5.17-21.52-14.36-26.35-27.26-1.65-4.4-2.67-8.95-3.28-13.61-.5-3.85-.68-7.71-.68-11.58,0-7.57,0-15.14,0-22.71,0-3.26.02-6.52.28-9.77.7-8.62,2.75-16.86,7-24.45C13.69,14.5,22.23,7.51,33.27,3.54c4.19-1.51,8.51-2.49,12.93-2.96,1.95-.21,3.91-.31,5.86-.47.21-.02.43-.07.64-.11,1.37,0,2.75,0,4.12,0Z"/>
  <path class="cls-1" d="M362.53,38.09V9.64c.63-.17,17.25-.18,18.02-.03v28.39h37.56c.05-1.57.02-3.15.02-4.73,0-1.57,0-3.14,0-4.7v-14.26c0-1.56,0-3.13,0-4.67.61-.16,17.17-.19,18.02-.04v28.42c.85.08,1.65.03,2.45.04.81,0,1.62,0,2.43,0h14.56c.8,0,1.61,0,2.45,0v15.29c-.78.06-1.58.02-2.38.03-.81,0-1.62,0-2.43,0h-14.56c-.8,0-1.61,0-2.46,0v66.8c.22.01.46.04.69.04,5.05.02,10.1.05,15.15.07,1.79,0,3.58.03,5.37.05.19,0,.38.03.62.05v15.25h-39.79s-.03-.03-.05-.05c-.02-.02-.03-.04-.04-.06-.01-.02-.01-.05-.02-.07,0-.02,0-.05-.01-.07,0-.02,0-.05,0-.07,0-.02,0-.05,0-.07,0-.05,0-.1,0-.15,0-.05,0-.1,0-.15,0-27,0-54.01,0-81.01,0-.05,0-.1,0-.15,0-.02,0-.05,0-.07,0-.02,0-.05,0-.07,0-.02-.01-.05-.02-.07,0-.02-.01-.05-.04-.13h-37.37c-.15.51-.22,65.35-.06,66.8,7.2.03,14.42.06,21.68.09v15.31h-39.78V53.4h-15.85v-15.31h15.85Z"/>
  <path class="cls-1" d="M232.4,120.38v15.26h-17.58V1.69h17.94v51.83c.28.02.47.02.66.05.44.06.71-.12.93-.52,1.41-2.45,2.99-4.78,4.84-6.91,4.22-4.87,9.48-8.02,15.74-9.42,8.99-2.01,17.82-1.53,26.37,2.1,7.84,3.33,14.03,8.7,18.83,15.69,3.98,5.79,6.56,12.18,8.05,19.02.94,4.3,1.38,8.66,1.4,13.05.03,8.93-1.56,17.54-5.36,25.67-3.26,6.98-7.82,12.94-13.96,17.64-5.53,4.24-11.75,6.92-18.64,8-3.8.59-7.61.61-11.43.22-3.38-.34-6.67-1.05-9.84-2.31-5.15-2.05-9.31-5.38-12.61-9.79-1.18-1.59-2.24-3.27-3.29-4.96-.32-.5-.63-.75-1.22-.67-.24.03-.48,0-.85,0ZM291.39,86.86c-.03-3.72-.33-7.52-1.13-11.27-.93-4.4-2.44-8.57-4.9-12.36-3.19-4.92-7.49-8.43-13.11-10.25-4.35-1.41-8.8-1.63-13.29-.95-6.48.97-11.99,3.84-16.53,8.55-3.84,3.98-6.38,8.71-7.93,13.99-1.74,5.96-2.12,12.03-1.37,18.18.56,4.54,1.79,8.87,3.88,12.95,2.83,5.52,6.84,9.96,12.32,12.96,5.85,3.21,12.12,4.2,18.7,3.26,6.04-.86,11.08-3.6,15.08-8.22,2.78-3.22,4.66-6.93,5.97-10.96,1.67-5.13,2.26-10.41,2.3-15.89Z"/>
  <path class="cls-1" d="M185.04,38.1h17.96v97.55h-17.59v-16.2h-2.62c-.08.13-.19.29-.28.46-4.36,8.63-11.33,13.96-20.67,16.25-5,1.22-10.07,1.51-15.18,1.05-5.21-.47-10.16-1.88-14.74-4.44-7.52-4.19-12.59-10.46-15.53-18.5-1.3-3.56-2.09-7.25-2.37-11.02-.15-2.03-.25-4.06-.25-6.09-.02-19.33-.01-38.67-.01-58v-.93c.56-.18,16.53-.25,18-.09.02.17.05.36.06.55.01.22,0,.44,0,.66,0,19.26,0,38.52,0,57.78,0,3.3.43,6.55,1.46,9.69,2.21,6.76,6.75,11.17,13.52,13.31,2.82.89,5.73,1.28,8.68,1.35,3.8.1,7.54-.26,11.17-1.42,7.53-2.42,12.65-7.43,15.62-14.69,1.25-3.06,1.98-6.25,2.38-9.52.3-2.46.38-4.93.38-7.41,0-16.42,0-32.84,0-49.25v-1.08Z"/>
  <path class="cls-1" d="M317.84,38.11h17.95v97.52h-17.95V38.11Z"/>
  <path class="cls-1" d="M316.91,1.68h19.71c.16.5.23,18.64.07,19.84h-19.77V1.68Z"/>
</svg>