<?xml version="1.0" encoding="UTF-8"?>
<svg id="Layer_1" data-name="Layer 1" xmlns="http://www.w3.org/2000/svg" viewBox="0 0 1273 353">
  <defs>
    <style>
      .cls-1 {
        fill: #030303;
      }
    </style>
  </defs>
  <g id="HPS">
    <path class="cls-1" d="M3.14,175.63c0-48.31,.15-96.61-.14-144.92-.05-8.1,9.17-14.65,15.59-12.01,1.65,.68,3.09,1.57,4.32,2.81,15.45,15.5,32.94,12.44,47.81,.09,8.95-7.43,18.59-13.31,29.96-16.06,18.19-4.41,33.44,1.67,46.97,13.47,3.74,3.27,7.14,6.93,11.58,9.33,12.16,6.56,23.48,3.71,34.29-3.3,6.3-4.08,11.53-9.62,18.22-13.23,17.44-9.42,34.92-10.55,52.55-.68,4.77,2.67,8.97,6.17,12.83,10,15.73,15.59,32.7,13.3,48.38,.44,8.99-7.37,18.49-13.55,29.96-16.01,17.45-3.75,32.7,.93,45.94,12.65,2.08,1.84,4.06,3.8,6.15,5.62,10.32,8.96,21.74,10.52,34.13,4.86,4.11-1.88,8.02-4.15,11.38-7.23,3.46-3.18,7.46-4.24,11.84-2.53,4.27,1.67,6.29,5.31,6.93,9.64,.37,2.5,.3,5.07,.3,7.61,.01,94.76-.01,189.52,.06,284.27,0,5.93-2.09,10.38-6.73,14.02-16.67,13.06-34.87,18.17-55.47,10.91-8.47-2.99-15.25-8.55-21.63-14.73-9.5-9.19-20.51-12.09-33.12-7.39-5.12,1.91-9.76,4.74-13.93,8.29-8.74,7.44-18.38,13.23-29.67,15.85-18.71,4.34-34.33-1.82-48.03-14.33-1.79-1.64-3.48-3.42-5.38-4.92-10.13-8.02-21.12-9.21-32.82-3.82-4.54,2.09-8.67,4.82-12.47,8.1-9.27,8.01-19.8,13.6-31.96,15.72-17.1,2.97-31.3-3.17-43.86-14.25-2.6-2.29-5.01-4.86-7.8-6.88-10.42-7.55-21.36-7.58-32.68-2.03-5.58,2.74-10.06,6.92-14.94,10.62-10.97,8.31-23.18,13.53-37.17,13.17-14.92-.38-27.09-7.07-37.37-17.5-3.05-3.1-4.09-7-4.09-11.42,.08-48.07,.05-96.15,.05-144.22h.01ZM451.45,48.23c-1.33-.34-2.16,.44-3.09,.8-13.03,4.99-26.11,5.45-39.23,.36-8.04-3.12-14.58-8.38-20.66-14.33-7.27-7.11-15.82-10.82-26.1-9.31-8.12,1.19-15.05,5.14-21.26,10.32-4.64,3.87-9.5,7.39-14.86,10.16-13.86,7.16-28.19,9.36-43.15,3.69-8.94-3.39-16.14-9.29-23-15.79-7.19-6.82-15.8-10.01-25.76-8.29-7.82,1.35-14.57,5.11-20.54,10.23-2.99,2.57-6.03,5.06-9.39,7.12-16.48,10.09-33.63,13.91-52.04,5.33-7.56-3.53-13.68-8.93-19.78-14.5-10.28-9.39-21.98-11.05-34.68-5.25-5.31,2.42-9.76,6.08-14.32,9.66-17.28,13.58-36.11,19.37-57.51,10.44-2.13-.89-2.27-.05-2.26,1.7,.05,6.6,.73,13.3-.16,19.78-1.21,8.8,3.35,12.95,10.36,15.94,.96,.41,1.91,.84,2.9,1.14,13.04,4.01,23.78-1,33.66-8.83,4.18-3.31,8.3-6.66,12.95-9.27,11.61-6.52,23.89-10.06,37.26-7.5,12.11,2.32,21.85,8.98,30.55,17.46,10.95,10.67,24.01,12.35,37.57,5.39,6.27-3.22,11.06-8.34,16.8-12.21,16.05-10.81,33.11-15,51.89-7.77,8.74,3.37,15.41,9.6,22.25,15.67,8.53,7.58,18.32,10.58,29.55,7.08,6.03-1.88,11.46-4.93,16.22-9.08,3.33-2.9,6.82-5.56,10.56-7.88,13-8.05,26.9-11.51,42.1-7.93,9.98,2.35,18.24,7.71,25.52,14.73,4.44,4.29,9.16,8.17,15.15,10.12,11.87,3.86,21.96-.45,31.54-6.99,.89-.61,.94-1.49,.94-2.43,0-9.93,0-19.86,0-29.77Zm-.03,72.04h.01c0-4.17-.11-8.34,.04-12.51,.1-2.52-.24-3.17-2.94-2.07-13.69,5.59-27.44,5.7-41.13-.14-7.7-3.29-13.8-8.77-19.8-14.41-4.91-4.62-10.58-7.82-17.42-8.61-10.89-1.25-19.88,3.18-28.08,9.64-4.55,3.58-9.06,7.2-14.15,9.99-19.86,10.87-39.24,10.78-57.99-2.65-3.87-2.77-7.15-6.24-10.74-9.32-7.32-6.28-15.68-9.29-25.36-7.41-7.42,1.44-13.9,4.92-19.61,9.81-4.76,4.08-9.76,7.79-15.37,10.63-16.75,8.48-33.53,9.66-50.36,.19-6.01-3.38-10.97-8.06-16.02-12.67-9.05-8.26-19.54-10.67-31.18-6.57-6.15,2.16-11.41,5.88-16.48,10.03-17.49,14.34-36.7,20.69-58.84,11.46-1.62-.67-2.22-.57-2.2,1.4,.08,8.69,.03,17.37,.07,26.06,0,1.01-.03,2.02,.91,2.84,5.24,4.57,11.04,7.99,18.13,8.56,10.84,.87,19.84-3.55,27.88-10.23,4.56-3.78,9.24-7.34,14.49-10.08,14.73-7.65,29.81-10.32,45.65-3.35,7.85,3.46,14.45,8.57,20.61,14.46,10.94,10.48,23.81,12.11,37.29,5.16,4.46-2.3,8.29-5.4,12.18-8.52,14.13-11.33,29.79-17.6,48.28-13.93,11.83,2.34,20.93,9.27,29.53,17.24,11.82,10.94,24.24,12.23,38.54,4.65,5.91-3.13,10.47-7.98,15.92-11.67,16.93-11.44,34.84-15.03,54.16-6.65,7.21,3.13,13.08,8.23,18.67,13.65,4.13,4.01,8.88,7.1,14.5,8.5,11.12,2.78,20.68-1.1,29.65-7.29,1.19-.82,1.17-1.85,1.17-3.01,0-4.4,0-8.8,0-13.21Zm.01,40.34c-1.54,.57-2.81,1.03-4.08,1.5-12.13,4.47-24.3,4.94-36.61,.61-8.97-3.16-16.05-8.97-22.79-15.41-10.67-10.19-23.93-11.79-37.03-5.06-6.78,3.48-12.04,8.96-18.37,13-14.91,9.52-30.69,13.84-48.1,7.88-9.04-3.1-16.47-8.7-23.27-15.3-6.95-6.74-15.12-10.69-25.04-9.51-8.39,.99-15.63,4.78-21.99,10.23-4.86,4.16-9.98,7.89-15.71,10.76-17.21,8.62-34.27,9.41-51.22-.81-5.5-3.32-10.07-7.71-14.81-11.95-9-8.06-19.27-10.53-30.87-6.51-6.1,2.11-11.3,5.64-16.26,9.72-17.67,14.56-36.99,21.18-59.42,11.76-2.05-.86-2.07,.18-2.06,1.67,.03,6.02,.06,12.04-.01,18.06-.02,1.41,.38,2.4,1.45,3.29,3.85,3.22,8.01,5.97,12.9,7.21,12.36,3.15,22.72-1.43,32.11-8.91,4.44-3.54,8.82-7.11,13.81-9.86,13.02-7.16,26.69-10.51,41.33-6.09,10.15,3.07,18.54,9.11,26.14,16.5,9.23,8.98,20.1,11.84,32.5,7.3,6.28-2.3,11.53-6.15,16.69-10.34,16.39-13.33,34.5-19.4,55.49-12.21,9.36,3.21,16.48,9.64,23.57,16.14,3.71,3.4,7.92,6.07,12.8,7.38,12.64,3.38,23.15-1.43,32.72-9.06,3.89-3.11,7.75-6.22,12.01-8.81,11.91-7.23,24.68-10.23,38.53-7.76,11.35,2.02,20.52,8,28.7,15.83,14.12,13.51,29.12,14.51,45.05,3.15,1.07-.76,1.9-1.46,1.88-3.01-.09-7.03-.04-14.07-.04-21.4Zm0,133.98h.02c0-2.55-.15-5.11,.04-7.64,.22-2.83-.44-3.23-3.18-2.18-11.81,4.54-23.88,5.07-36.04,1.47-9.66-2.86-17.69-8.4-24.73-15.48-6.88-6.91-14.92-10.97-24.93-9.42-7.38,1.14-13.72,4.7-19.4,9.43-3.65,3.04-7.25,6.16-11.37,8.53-16.21,9.31-33.1,12.81-51.1,5.49-8.95-3.64-16.11-9.82-23.14-16.28-7.62-6.99-16.55-9.26-26.67-6.12-5.74,1.78-10.78,4.72-15.3,8.6-4.05,3.47-8.29,6.68-12.96,9.28-12.81,7.14-26.34,10.75-40.94,7.33-11.8-2.76-21.45-9.39-30.04-17.81-9.98-9.78-21.98-11.36-34.38-4.85-3.49,1.83-6.72,4.03-9.75,6.59-18.3,15.4-38.43,22.27-61.92,13.02-1.87-.74-1.85,.22-1.84,1.56,.04,5.44,.08,10.88,.01,16.32-.02,1.58,.68,2.6,1.8,3.53,4.53,3.74,9.49,6.67,15.38,7.55,11.67,1.74,21.28-2.95,29.91-10.11,5.56-4.61,11.37-8.74,17.93-11.75,12.42-5.7,25.21-7.62,38.39-3.07,9.57,3.31,17.42,9.32,24.71,16.28,9.7,9.27,21.06,11.56,33.59,6.4,5.26-2.17,9.88-5.39,14.29-9.06,16.4-13.68,34.6-20.19,55.92-13.13,9.03,2.99,16,9.04,22.9,15.28,12.57,11.35,25.06,12.51,39.72,4.19,6.19-3.51,11.05-8.73,17.04-12.5,15.01-9.44,30.83-12.74,47.96-6.91,9.09,3.09,16.18,9.17,23.09,15.58,11.41,10.57,23.88,11.82,37.67,4.81,5.47-2.78,8.69-6.07,7.33-12.5-.16-.78-.02-1.62-.02-2.43Zm0-60.18h.03c0-2.78-.09-5.56,.03-8.34,.09-2.18-.4-2.48-2.53-1.65-10,3.92-20.3,5.09-30.96,3.1-12.31-2.29-22.26-8.62-30.96-17.31-6.54-6.52-14.29-10.45-23.7-9.16-7.71,1.06-14.44,4.74-20.36,9.78-4.41,3.76-8.9,7.41-14.08,10.07-18.48,9.49-36.98,11.01-55.5,.06-5.83-3.44-10.68-8.06-15.67-12.55-6.2-5.59-13.46-8.58-21.95-7.31-7.51,1.13-14.04,4.56-19.76,9.45-3.97,3.39-8.08,6.56-12.61,9.15-13.41,7.65-27.57,11.43-42.92,7.42-11.11-2.9-20.3-9.2-28.46-17.19-8.54-8.36-18.49-11.51-30.12-7.14-5.57,2.1-10.39,5.36-15,9.14-18,14.79-37.76,21.67-60.75,12.66-1.79-.7-2.4-.37-2.36,1.64,.1,5.32,.03,10.65,.04,15.98,0,1.02-.05,2,.91,2.83,5.45,4.71,11.45,8.15,18.84,8.62,8.73,.56,16.31-2.59,23.35-7.33,4.8-3.23,8.84-7.44,13.82-10.45,13.19-7.97,27.13-12.51,42.62-8.57,11.03,2.8,20.01,9.17,28.14,17.02,11.12,10.73,24.23,12.16,37.91,5.01,6.56-3.43,11.48-8.94,17.63-12.86,14.15-9.04,29.15-13.2,45.85-8.5,10.36,2.92,18.32,9.49,26.12,16.51,12.43,11.18,25.32,12.18,39.72,3.7,6.13-3.61,11.06-8.73,17.01-12.56,20.09-12.94,43.16-12.75,61.31,.89,3.78,2.84,7.16,6.21,10.75,9.31,9.68,8.34,20.5,10.02,32.32,5.4,10.53-4.11,11.3-5.32,11.3-16.5v-.35Z"/>
    <g>
      <path class="cls-1" d="M1186.53,276.14c-22.54-.16-43.51-3.62-61.92-16.4-13.02-9.03-21.69-21.06-24.38-36.96-1.69-9.99,1.47-13.72,11.5-13.62,5.42,.05,10.84,.09,16.25,.33,6.74,.29,8.93,2.32,9.99,8.84,1.85,11.4,9.2,18.34,19.35,22.16,18.12,6.83,36.69,6.56,54.93,.68,9.39-3.03,15.92-9.64,18.08-19.94,1.54-7.35-.69-12.91-6.43-17.46-9.28-7.36-20.36-10.46-31.47-13.51-17.96-4.93-36.2-8.93-53.36-16.45-8.21-3.6-15.71-8.22-22.2-14.53-15.94-15.5-13.64-43.43-1.03-58.57,10.8-12.98,25.11-19.53,41.24-22.84,23.55-4.83,46.91-4.25,69.7,3.7,17.33,6.05,31.21,16.24,37.2,34.7,1.36,4.2,1.9,8.49,1.95,12.88,.07,6.05-2.48,9.27-8.5,9.53-6.98,.31-13.99,.31-20.97-.07-4.62-.25-8.62-2.19-8.9-7.72-.57-11.2-7.55-17.47-17.08-20.91-17.55-6.32-35.24-5.91-52.63,1.04-3.39,1.36-6.43,3.48-9.03,6.15-8.05,8.25-7.12,18.63,2.43,24.94,11.6,7.66,25.1,10.15,38.22,13.58,17.19,4.49,34.42,8.89,50.09,17.61,18.68,10.4,31.12,24.77,29.24,47.75-1.93,23.53-14.68,38.83-36.27,47.4-15.03,5.96-30.78,7.39-46.02,7.69Z"/>
      <path class="cls-1" d="M725.9,175.71c0,28.15,.01,56.3,0,84.45,0,11.18-1.95,13.13-13.04,13.13-5.42,0-10.84,.07-16.26-.02-6.32-.11-9.17-2.97-9.19-9.34-.05-22.73-.14-45.46,.05-68.19,.03-3.89-.9-4.99-4.88-4.96-26.57,.19-53.15,.19-79.73,.03-3.69-.02-4.67,.97-4.64,4.62,.18,21.85,.09,43.71,.13,65.56,.01,9.88-2.39,12.28-12.45,12.29-5.59,0-11.19,.11-16.78-.02-6.6-.16-9.5-3.15-9.5-9.76-.02-58.75-.02-117.49,0-176.24,0-6.13,2.72-9.19,8.72-9.37,6.99-.21,13.99-.19,20.97,.05,6.33,.22,8.97,3.19,8.98,9.69,.04,22.55,.13,45.11-.09,67.66-.04,4.01,1.07,4.85,4.89,4.82,26.57-.17,53.15-.17,79.73-.01,3.62,.02,4.68-.86,4.65-4.58-.18-22.38-.09-44.76-.07-67.14,0-8.21,2.3-10.5,10.62-10.55,5.94-.03,11.89-.04,17.83,.08,7.38,.14,10.05,2.85,10.05,10.2,.02,29.2,0,58.4,.01,87.59Z"/>
      <path class="cls-1" d="M845.06,174.95c0-28.84,0-57.68,0-86.51,0-7.67,2.67-10.59,10.23-10.59,28.14,.02,56.28-.14,84.41,.39,16.19,.3,31.37,4.9,44.24,15.16,17.78,14.18,22.99,33.11,19.16,54.79-3.91,22.11-17.54,35.77-38.7,42.27-9.93,3.05-20.16,4.09-30.5,4.11-15.38,.04-30.76,.12-46.14-.06-3.25-.04-4.07,.8-4.04,4.04,.16,21.15,.09,42.29,.09,63.44,0,8.6-2.62,11.24-11.26,11.29-5.59,.03-11.19,.04-16.78,0-7.84-.06-10.74-2.96-10.74-10.77-.01-29.19,0-58.37,0-87.56h.03Zm69.27-66.21c-10.43,0-18.64,.13-26.85-.07-2.91-.07-4,.59-3.97,3.68,.14,15.89,.14,31.79,.02,47.68-.02,2.94,.81,3.89,3.82,3.87,15.37-.13,30.74,.14,46.11-.1,8.58-.14,17.29-.93,24.14-6.95,8.79-7.74,10.63-17.94,7.77-28.66-2.96-11.1-11.47-16.64-22.41-18.57-10.22-1.81-20.57-.48-28.63-.87Z"/>
    </g>
  </g>
</svg>