<?xml version="1.0" encoding="UTF-8"?>
<svg id="Layer_1" data-name="Layer 1" xmlns="http://www.w3.org/2000/svg" viewBox="0 0 840.49 242.49">
  <defs>
    <style>
      .cls-1 {
        fill: #030303;
      }
    </style>
  </defs>
  <path class="cls-1" d="M41.84,120.72c0-29.05,.09-58.1-.09-87.15-.03-4.87,5.52-8.81,9.37-7.22,.99,.41,1.86,.95,2.6,1.69,9.29,9.32,19.81,7.48,28.75,.06,5.38-4.47,11.18-8,18.02-9.66,10.94-2.65,20.11,1,28.25,8.1,2.25,1.96,4.29,4.17,6.96,5.61,7.32,3.94,14.12,2.23,20.62-1.98,3.79-2.45,6.93-5.78,10.96-7.96,10.49-5.66,21-6.34,31.61-.41,2.87,1.61,5.39,3.71,7.72,6.01,9.46,9.37,19.67,8,29.1,.26,5.4-4.43,11.12-8.15,18.02-9.63,10.5-2.25,19.67,.56,27.63,7.61,1.25,1.11,2.44,2.28,3.7,3.38,6.21,5.39,13.08,6.33,20.52,2.92,2.47-1.13,4.82-2.5,6.84-4.35,2.08-1.91,4.49-2.55,7.12-1.52,2.57,1,3.78,3.19,4.17,5.8,.22,1.5,.18,3.05,.18,4.58,0,56.99,0,113.97,.04,170.96,0,3.57-1.26,6.24-4.05,8.43-10.03,7.85-20.97,10.93-33.36,6.56-5.1-1.8-9.17-5.14-13.01-8.86-5.71-5.53-12.34-7.27-19.92-4.44-3.08,1.15-5.87,2.85-8.38,4.99-5.26,4.47-11.05,7.96-17.84,9.53-11.25,2.61-20.65-1.09-28.89-8.62-1.08-.99-2.09-2.05-3.23-2.96-6.09-4.82-12.7-5.54-19.74-2.3-2.73,1.26-5.21,2.9-7.5,4.87-5.58,4.82-11.91,8.18-19.22,9.45-10.28,1.79-18.82-1.91-26.38-8.57-1.57-1.38-3.01-2.92-4.69-4.14-6.26-4.54-12.84-4.56-19.66-1.22-3.36,1.65-6.05,4.16-8.98,6.38-6.6,5-13.94,8.14-22.36,7.92-8.97-.23-16.29-4.25-22.47-10.52-1.84-1.86-2.46-4.21-2.46-6.87,.05-28.91,.03-57.82,.03-86.73h0ZM311.45,44.11c-.8-.2-1.3,.27-1.86,.48-7.84,3-15.7,3.28-23.6,.22-4.83-1.88-8.77-5.04-12.43-8.62-4.37-4.27-9.52-6.51-15.7-5.6-4.88,.72-9.05,3.09-12.78,6.21-2.79,2.33-5.71,4.44-8.94,6.11-8.34,4.31-16.95,5.63-25.95,2.22-5.38-2.04-9.71-5.58-13.83-9.49-4.32-4.1-9.5-6.02-15.49-4.98-4.7,.81-8.76,3.07-12.36,6.15-1.8,1.54-3.63,3.04-5.65,4.28-9.91,6.07-20.22,8.37-31.3,3.2-4.55-2.12-8.23-5.37-11.89-8.72-6.18-5.65-13.22-6.65-20.86-3.16-3.19,1.46-5.87,3.66-8.61,5.81-10.39,8.17-21.72,11.65-34.58,6.28-1.28-.53-1.37-.03-1.36,1.02,.03,3.97,.44,8-.1,11.9-.73,5.29,2.02,7.79,6.23,9.59,.57,.25,1.15,.5,1.74,.69,7.84,2.41,14.3-.6,20.24-5.31,2.51-1.99,4.99-4,7.79-5.58,6.98-3.92,14.37-6.05,22.41-4.51,7.28,1.4,13.14,5.4,18.37,10.5,6.59,6.42,14.44,7.42,22.59,3.24,3.77-1.94,6.65-5.02,10.11-7.34,9.65-6.5,19.91-9.02,31.21-4.67,5.26,2.02,9.27,5.77,13.38,9.43,5.13,4.56,11.02,6.36,17.77,4.26,3.62-1.13,6.89-2.96,9.76-5.46,2-1.74,4.1-3.35,6.35-4.74,7.82-4.84,16.18-6.92,25.32-4.77,6,1.41,10.97,4.63,15.35,8.86,2.67,2.58,5.51,4.91,9.11,6.09,7.14,2.32,13.21-.27,18.97-4.2,.54-.37,.57-.9,.57-1.46,0-5.97,0-11.94,0-17.9Zm-.02,43.32h0c0-2.51-.07-5.02,.03-7.52,.06-1.51-.15-1.91-1.77-1.24-8.23,3.36-16.5,3.43-24.73-.08-4.63-1.98-8.3-5.27-11.91-8.67-2.95-2.78-6.36-4.7-10.48-5.18-6.55-.75-11.95,1.92-16.89,5.8-2.74,2.15-5.45,4.33-8.51,6.01-11.95,6.54-23.6,6.48-34.88-1.59-2.33-1.67-4.3-3.75-6.46-5.61-4.4-3.78-9.43-5.58-15.25-4.46-4.46,.87-8.36,2.96-11.79,5.9-2.86,2.45-5.87,4.69-9.24,6.39-10.08,5.1-20.17,5.81-30.29,.12-3.62-2.03-6.6-4.85-9.63-7.62-5.44-4.97-11.75-6.41-18.75-3.95-3.7,1.3-6.86,3.54-9.91,6.03-10.52,8.62-22.07,12.44-35.39,6.89-.97-.41-1.34-.34-1.33,.84,.05,5.22,.02,10.45,.04,15.67,0,.61-.02,1.21,.55,1.71,3.15,2.75,6.64,4.81,10.9,5.15,6.52,.52,11.93-2.14,16.77-6.15,2.74-2.28,5.55-4.42,8.72-6.06,8.86-4.6,17.93-6.21,27.45-2.02,4.72,2.08,8.69,5.15,12.39,8.7,6.58,6.3,14.32,7.28,22.43,3.1,2.68-1.38,4.99-3.25,7.33-5.12,8.5-6.81,17.92-10.58,29.03-8.38,7.12,1.41,12.59,5.58,17.76,10.37,7.11,6.58,14.58,7.35,23.18,2.79,3.55-1.88,6.29-4.8,9.57-7.02,10.18-6.88,20.95-9.04,32.57-4,4.34,1.88,7.86,4.95,11.23,8.21,2.49,2.41,5.34,4.27,8.72,5.11,6.69,1.67,12.43-.66,17.83-4.38,.72-.49,.71-1.11,.7-1.81,0-2.65,0-5.29,0-7.94Zm0,24.26c-.92,.34-1.69,.62-2.46,.9-7.3,2.69-14.61,2.97-22.02,.36-5.4-1.9-9.65-5.39-13.71-9.27-6.42-6.13-14.39-7.09-22.27-3.04-4.08,2.09-7.24,5.39-11.05,7.82-8.97,5.73-18.46,8.32-28.93,4.74-5.44-1.86-9.91-5.23-14-9.2-4.18-4.05-9.09-6.43-15.06-5.72-5.05,.6-9.4,2.88-13.22,6.15-2.92,2.5-6,4.74-9.45,6.47-10.35,5.19-20.61,5.66-30.8-.49-3.31-2-6.06-4.64-8.91-7.19-5.41-4.85-11.59-6.33-18.57-3.92-3.67,1.27-6.8,3.39-9.78,5.85-10.62,8.75-22.24,12.74-35.73,7.07-1.24-.52-1.24,.11-1.24,1.01,.02,3.62,.04,7.24,0,10.86-.01,.85,.23,1.44,.87,1.98,2.32,1.94,4.82,3.59,7.76,4.34,7.43,1.9,13.66-.86,19.31-5.36,2.67-2.13,5.3-4.28,8.3-5.93,7.83-4.3,16.05-6.32,24.85-3.66,6.11,1.85,11.15,5.48,15.72,9.92,5.55,5.4,12.09,7.12,19.55,4.39,3.78-1.38,6.93-3.7,10.03-6.22,9.86-8.01,20.75-11.67,33.37-7.34,5.63,1.93,9.91,5.8,14.18,9.71,2.23,2.04,4.76,3.65,7.7,4.44,7.6,2.03,13.92-.86,19.68-5.45,2.34-1.87,4.66-3.74,7.22-5.3,7.16-4.35,14.84-6.15,23.17-4.67,6.83,1.22,12.34,4.81,17.26,9.52,8.49,8.12,17.51,8.73,27.09,1.89,.64-.46,1.14-.88,1.13-1.81-.05-4.23-.02-8.46-.02-12.87Zm0,80.57h.01c0-1.53-.09-3.07,.02-4.59,.13-1.7-.27-1.94-1.91-1.31-7.1,2.73-14.36,3.05-21.68,.88-5.81-1.72-10.64-5.05-14.87-9.31-4.14-4.16-8.97-6.6-14.99-5.67-4.44,.69-8.25,2.83-11.66,5.67-2.19,1.83-4.36,3.7-6.84,5.13-9.75,5.6-19.91,7.7-30.73,3.3-5.38-2.19-9.69-5.91-13.92-9.79-4.58-4.21-9.96-5.57-16.04-3.68-3.45,1.07-6.48,2.84-9.2,5.17-2.44,2.09-4.99,4.01-7.79,5.58-7.7,4.3-15.84,6.46-24.62,4.41-7.1-1.66-12.9-5.65-18.07-10.71-6-5.88-13.22-6.83-20.67-2.92-2.1,1.1-4.04,2.43-5.87,3.96-11,9.26-23.11,13.4-37.24,7.83-1.12-.44-1.12,.13-1.11,.94,.02,3.27,.05,6.54,0,9.81-.01,.95,.41,1.57,1.08,2.12,2.72,2.25,5.7,4.01,9.25,4.54,7.02,1.05,12.8-1.78,17.99-6.08,3.34-2.77,6.84-5.25,10.79-7.07,7.47-3.43,15.16-4.58,23.08-1.85,5.76,1.99,10.48,5.6,14.86,9.79,5.84,5.58,12.66,6.95,20.2,3.85,3.16-1.3,5.94-3.24,8.59-5.45,9.87-8.23,20.81-12.14,33.63-7.9,5.43,1.8,9.62,5.44,13.77,9.19,7.56,6.83,15.07,7.52,23.89,2.52,3.72-2.11,6.65-5.25,10.25-7.52,9.02-5.68,18.54-7.66,28.85-4.15,5.47,1.86,9.73,5.52,13.89,9.37,6.86,6.36,14.36,7.11,22.66,2.89,3.29-1.67,5.23-3.65,4.41-7.52-.1-.47-.01-.97-.01-1.46Zm0-36.19h.02c0-1.67-.05-3.34,.02-5.01,.05-1.31-.24-1.49-1.52-.99-6.01,2.35-12.21,3.06-18.62,1.86-7.4-1.38-13.39-5.19-18.62-10.41-3.93-3.92-8.59-6.29-14.26-5.51-4.64,.64-8.68,2.85-12.25,5.88-2.65,2.26-5.35,4.46-8.47,6.06-11.11,5.71-22.24,6.62-33.38,.04-3.51-2.07-6.43-4.84-9.43-7.55-3.73-3.36-8.09-5.16-13.2-4.4-4.52,.68-8.44,2.74-11.89,5.69-2.39,2.04-4.86,3.95-7.59,5.5-8.06,4.6-16.58,6.88-25.81,4.46-6.68-1.75-12.21-5.53-17.11-10.34-5.14-5.03-11.12-6.92-18.11-4.29-3.35,1.26-6.25,3.22-9.02,5.5-10.83,8.89-22.71,13.03-36.54,7.61-1.08-.42-1.44-.22-1.42,.99,.06,3.2,.02,6.41,.02,9.61,0,.61-.03,1.21,.55,1.7,3.28,2.83,6.89,4.9,11.33,5.19,5.25,.34,9.81-1.55,14.04-4.41,2.88-1.94,5.32-4.48,8.31-6.29,7.94-4.79,16.31-7.52,25.63-5.16,6.63,1.69,12.03,5.52,16.92,10.23,6.69,6.45,14.57,7.31,22.8,3.01,3.95-2.06,6.91-5.38,10.6-7.74,8.51-5.43,17.53-7.94,27.57-5.11,6.23,1.76,11.02,5.71,15.71,9.93,7.47,6.73,15.23,7.32,23.89,2.22,3.68-2.17,6.65-5.25,10.23-7.55,12.08-7.78,25.95-7.67,36.87,.54,2.27,1.71,4.31,3.74,6.47,5.6,5.82,5.02,12.33,6.02,19.44,3.25,6.33-2.47,6.8-3.2,6.8-9.92v-.21Z"/>
  <g>
    <path class="cls-1" d="M753.52,181.16c-13.55-.09-26.16-2.18-37.24-9.86-7.83-5.43-13.05-12.67-14.66-22.22-1.02-6.01,.88-8.25,6.91-8.19,3.26,.03,6.52,.05,9.77,.2,4.05,.18,5.37,1.4,6.01,5.31,1.11,6.86,5.53,11.03,11.64,13.33,10.9,4.11,22.07,3.95,33.04,.41,5.65-1.82,9.58-5.8,10.88-11.99,.93-4.42-.41-7.77-3.86-10.5-5.58-4.43-12.25-6.29-18.93-8.13-10.8-2.96-21.77-5.37-32.09-9.89-4.94-2.16-9.45-4.94-13.35-8.74-9.59-9.32-8.2-26.12-.62-35.22,6.5-7.81,15.1-11.75,24.8-13.74,14.16-2.91,28.21-2.56,41.92,2.23,10.42,3.64,18.77,9.77,22.37,20.87,.82,2.53,1.15,5.1,1.17,7.74,.04,3.64-1.49,5.57-5.11,5.73-4.2,.18-8.42,.19-12.61-.04-2.78-.15-5.18-1.32-5.35-4.64-.34-6.74-4.54-10.51-10.27-12.57-10.55-3.8-21.2-3.56-31.65,.63-2.04,.82-3.86,2.09-5.43,3.7-4.84,4.96-4.28,11.2,1.46,15,6.98,4.6,15.1,6.11,22.98,8.17,10.34,2.7,20.7,5.34,30.13,10.59,11.23,6.25,18.72,14.9,17.59,28.72-1.16,14.15-8.83,23.35-21.81,28.5-9.04,3.59-18.51,4.44-27.67,4.63Z"/>
    <path class="cls-1" d="M476.5,120.77c0,16.93,0,33.86,0,50.79,0,6.72-1.18,7.9-7.84,7.9-3.26,0-6.52,.04-9.78-.01-3.8-.06-5.52-1.79-5.53-5.62-.03-13.67-.08-27.34,.03-41.01,.02-2.34-.54-3-2.93-2.98-15.98,.12-31.96,.12-47.95,.02-2.22-.01-2.81,.58-2.79,2.78,.11,13.14,.06,26.29,.08,39.43,0,5.94-1.43,7.39-7.49,7.39-3.36,0-6.73,.06-10.09-.01-3.97-.09-5.71-1.89-5.71-5.87-.01-35.33-.01-70.66,0-105.99,0-3.69,1.64-5.53,5.24-5.63,4.2-.12,8.41-.12,12.61,.03,3.81,.13,5.4,1.92,5.4,5.83,.02,13.56,.08,27.13-.06,40.69-.02,2.41,.64,2.92,2.94,2.9,15.98-.1,31.96-.1,47.95,0,2.18,.01,2.81-.52,2.8-2.76-.11-13.46-.05-26.92-.04-40.38,0-4.94,1.38-6.32,6.39-6.34,3.57-.02,7.15-.02,10.72,.05,4.44,.08,6.04,1.71,6.05,6.13,.01,17.56,0,35.12,0,52.68Z"/>
    <path class="cls-1" d="M548.16,120.31c0-17.34,0-34.69,0-52.03,0-4.61,1.61-6.37,6.15-6.37,16.92,.01,33.85-.08,50.76,.23,9.74,.18,18.86,2.95,26.61,9.12,10.69,8.53,13.83,19.91,11.52,32.95-2.35,13.29-10.55,21.51-23.27,25.42-5.97,1.83-12.12,2.46-18.34,2.47-9.25,.02-18.5,.07-27.75-.04-1.95-.02-2.45,.48-2.43,2.43,.1,12.72,.05,25.44,.05,38.15,0,5.17-1.57,6.76-6.77,6.79-3.36,.02-6.73,.02-10.09,0-4.72-.04-6.46-1.78-6.46-6.47,0-17.55,0-35.11,0-52.66h.02Zm41.66-39.82c-6.27,0-11.21,.08-16.15-.04-1.75-.04-2.41,.35-2.39,2.22,.08,9.56,.08,19.12,.01,28.67-.01,1.77,.49,2.34,2.3,2.32,9.24-.08,18.49,.09,27.73-.06,5.16-.08,10.4-.56,14.52-4.18,5.28-4.65,6.39-10.79,4.67-17.24-1.78-6.68-6.9-10.01-13.48-11.17-6.15-1.09-12.37-.29-17.22-.52Z"/>
  </g>
</svg>