<?xml version="1.0" encoding="UTF-8"?>
<svg id="Layer_1" data-name="Layer 1" xmlns="http://www.w3.org/2000/svg" viewBox="0 0 1054 353">
  <path id="Melao" d="M-.27,174.02v-6c1-7.9,3.1-15.3,6.1-22.3,5.7-13.1,13.5-24.8,22.2-36.2,9.7-12.9,19.8-24.6,30.3-35.3,24.4-24.8,51.7-44.6,82-59.4C159.03,5.72,178.43,.12,199.23,.82c24.8,.9,39.9,18.3,39.7,42.8-.1,11.3-1.8,22.4-5.1,33.3-.3,.9,0,1.1,.8,.6,11.8-6.9,23.6-11.7,35.5-14.3,6.6-1.5,13.8-2.4,20.4-.7,17.2,4.3,21.9,21.8,17.4,37.5-4.5,16-12.2,30.4-20.8,45.1-12.4,21.2-26.1,42.9-41.2,65-.5,.7-.3,1,.5,.8,.4-.1,.7-.3,1-.5,27.4-24.7,51.2-44.7,71.4-60.2,9.7-7.4,19.4-13.5,29.2-18.4,4.5-2.2,8.9-3.9,13.3-5,11-2.7,23.7-.9,28.5,10.3,6.2,14.3-6.9,33-14.9,44.2-10.9,15.4-23,31.8-36.1,49.2-5,6.7-15.4,21-31.2,43.2-6,8.4-11.1,16.4-16,25.3-3.1,5.6-6.7,12.3-6.6,18.5,0,1.1,.9,2,2.1,2h0c4-.1,7.8-1,11.5-2.6,20.1-9.3,38.5-21.8,55.1-37.6,.4-.4,.7-.9,.9-1.4,5.3-15.3,13.3-27.3,23.6-39.9,20.5-24.9,45.4-43.4,74.8-55.7,10.7-4.5,21.3-6.5,31.7-6.1,12,.5,22,9.1,26.6,19.8,4.1,9.6-4.9,23.5-11.2,30-16.8,17.2-36.8,31.1-60,41.7-6.7,3.1-14,6.3-21.3,7.5-4.5,.8-8.8-1.1-11.5-4.8-2.7-3.7-6.4-4.4-9.3-.4-.7,.9-1.3,1.8-2,2.6-5.2,6.6-8.9,13.8-11.1,21.6-1.1,4-.5,10.2,3.9,12,1.2,.5,3.2,.6,6.1,.5,14.7-.9,28.8-3.8,42.3-8.8,15.7-5.8,30.8-13.1,45.5-21.8,12.9-7.6,25.6-15.4,38.2-23.4,13-8.2,20.3-18.2,28.9-31.8,22.3-35.7,51.1-67.8,86.2-96.5,31.1-25.3,64.7-45.3,100.7-59.8,4.2-1.7,8.7-2.8,13.5-3.4,8.3-1,14.8,7,18.3,13.5,2.8,5.2,1,10.7-1.9,15.6-3,5-6.2,9.6-9.6,13.8-27,33.4-57.7,62.2-92.7,89.5-28.6,22.2-57.3,41.4-86.8,61.4-13.2,9-26.5,27.1-20.5,43.9,1.4,4,5.2,5.1,9.1,4.2,8.9-2,17.2-5.1,24.8-9.1,28.4-15,58.8-34,91.4-56.8,9.8-6.9,18.4-15.2,27.6-22.4,5.7-4.4,12.6-9.2,20.9-14.4,19.4-12.3,39.1-22.2,61.2-24.2,7.3-.7,12.7,2.6,16,10,.3,.7,1.2,1,1.9,.7,.1,0,.2-.1,.2-.1,3.7-2.7,6.8-4.7,11.1-1.3,2.3,1.8,4.6,3.4,7,4.8,5.5,3.2,6.8,8.8,3.1,14.3-2.1,3.1-5.8,6.6-8.5,10-9.5,11.5-19.2,23-29,34.4-6,7-12,14.6-17.9,22.8-4,5.5-7.1,11.5-9.4,17.9-.6,1.7-.1,2.2,1.6,1.5,1.3-.5,3.2-1.3,4.6-2,20.9-11.4,40.6-23.5,59.3-36.4,4.5-3.1,7.8-9.4,11.6-13.9,22.6-27,50.3-46.8,83.2-59.3,3.6-1.4,7-.7,10.2,2,1.3,1.1,3.2,1.6,4.8,.9,2-.9,4-1.8,6.1-2.2,11.4-2.4,20.6,5.7,21.6,16.9,.4,4.6,.2,8.9-.7,12.9-4.2,18.2-13,35.1-23.4,51-.2,.3-.1,.6,.2,.8,.1,.1,.2,.1,.4,.1,5.8-.6,11.4-2.2,16.9-4.8,20.6-9.7,40.7-21.6,60.2-35.8,8.1-5.9,16.1-12,24-18.3,.8-.6,1.7-1,2.7-1,.3,0,.6,.1,.8,.2,2,1.5,2.4,3.7,3.3,5.9,.6,1.5,.4,3-.6,4.4-2.4,3.6-5.2,6.8-8.5,9.6-7.2,6.1-14.4,12.2-21.4,18.3-14.1,12.1-29.2,22.8-45.4,32-12.3,7-25.4,13.3-39.9,12.3-4.9-.3-9.3,1.7-13.2,5.9-15.4,17.2-32,33.2-52.3,43.9-15.8,8.3-32,10.7-48.1,1.6-14-7.9-15.8-24.1-13-39,.1-.7-.1-.8-.7-.4-17.7,13.7-36.6,28.1-55.8,38.6-4.6,2.5-8.5,3.8-11.5,3.9-15,.3-16-16.5-14.8-27.6,1-8.6,2-17.2,3.1-25.9,.1-.5-.1-.6-.5-.4-1.4,.8-2.7,1.8-3.8,3.1-16.8,19.1-36.3,34.9-58.5,47.3-11.9,6.6-26.4,9.2-35.2-3.7-5.6-8.2-5.2-19.3-2.5-28.4,.2-.6,0-.7-.5-.4-12.9,9.7-25.2,18.1-36.9,25.3-3.9,2.4-8.8,4.9-14.8,7.5-9.5,4.2-19.3,6-29.5,5.2-6.7-.5-11.9-1.9-15.6-4.3-10.7-7-12.8-18.7-14.3-30.5-1-7.7-1-15.2,0-22.8,.1-.9,.2-1.7,.1-2.5,0-.2-.2-.3-.4-.3q-.1,0-.2,.1c-21.4,14.6-43,27.6-64.8,38.9-14,7.3-27.8,13-41.2,17.2-9.7,3-19.3,4.4-28.6,4.3-15.5-.2-26-6.9-30.6-21.5-.2-.6-.9-1-1.5-.8-.1,0-.2,.1-.3,.2-14.4,10.4-29.3,19.6-45.7,26.2-13.4,5.4-28.2,8.8-41.9,5.3-27.4-7.1-21.4-38.6-12.8-57.1,11.1-24.1,26.4-46.6,43.5-67,15.5-18.6,29.1-36,40.6-52.1,.5-.7,.7-1.2,.8-1.6,.1-.7-.2-.8-.7-.4-30.9,24-57.6,48.1-89.3,76.6-20.3,18.3-39.7,37-59.1,56-9.6,9.4-19.1,19.7-29.2,29.5-5.2,5-10.1,8.7-14.9,10.9-9.2,4.3-18.8-3.2-20.9-11.9-3-13,10.7-31.5,18.2-41.4,8.2-11,16.8-22,25.6-33.1,23-28.7,44.5-58.7,65.1-90.2,7-10.6,14.1-22.3,21.5-35.1,6.9-12,13.4-24.2,17.3-37.5,.2-.6-.2-1.3-.8-1.5h-.3c-.9,0-1.7,.1-2.5,.4-8,2.6-15.8,6.4-23.3,11.6-10.3,7-19.8,14.1-28.7,21.4-1.1,.9-1.9,1.9-2.5,3.1-28.1,56-63.5,106.1-104.3,154.9-12.4,14.9-25.1,28.4-38,40.6-7.7,7.3-15.7,13-23.9,17-13.4,6.6-30.7,2.2-31.3-15.1-.4-10.8,3.6-20.6,8.5-30.2,8.8-17.2,19.7-32.7,31.3-48,32.1-42.4,66.3-80.2,102.6-113.5,8.1-7.5,16.5-14.8,25.2-22,.2-.2,.6-.7,1-1.5,5.6-11.6,10.2-23.2,13.9-34.9,2.9-9.2,5.4-19.7,4.9-29.4-.4-7.9-3.5-14.2-12-15.8-7-1.3-13.9-.9-20.7,1.1-13,3.8-25.7,10-38.2,18.6-34.2,23.7-64.4,53.5-85.5,89.3-4.4,7.4-7.1,14.9-8.3,22.4-.5,2.9,.7,4.5,3.5,4.8,11,1.2,23.7-4.2,32.6-10.5,20.3-14.4,38.5-31.8,51.3-51.5,3.2-4.9,6-10.3,11.1-13.6,4.4-2.9,8.7-3.5,12.9-1.8,5.3,2.1,8.2,5.8,8.8,11.1,.9,9-4.4,14.7-9.5,21.2-19.9,25.5-44.1,49.5-71.5,66-16,9.7-32.9,13.2-50.5,10.6-6-.9-11.5-3.4-16.6-7.4-5.8-4.9-9-11.4-9.8-19.8Zm605.2,37.4c3.7-1.7,7.3-3.8,10.6-6.1,6.2-4.4,12.2-9.2,18.1-14.4,19.3-17,37.6-35.1,55.9-52.9,12.3-12,23.9-24.5,34.9-37.6,.8-.9,1.3-2,1.6-3.2,.2-.8-.1-1.1-.9-.8-4.3,1.7-8.3,4-11.9,6.7-33,24.7-64.4,54.4-93.3,85.5-5.8,6.3-11.4,13-16.6,20.3-.3,.5-.4,.9-.3,1.3,.1,.4,.4,.8,.8,1,.1,.3,.6,.4,1.1,.2Zm-127.1-1.9c1.9-1.9,4.9-5.6,4.7-8.4-.1-1.6-1.1-2.3-2.8-2-5.2,.7-10.5,2.9-15.9,6.6-16,10.8-31.1,23.8-45.3,38.9-1.7,1.8-3.1,3.9-4.2,6.2-.2,.5,0,1.1,.5,1.3,.2,.1,.4,.1,.5,.1,3-.4,6-1.3,8.7-2.7,20.1-10.6,38.1-23.9,53.8-40Zm462,8.5c1.7-3.7,3.1-7,4-9.9,.4-1.3,.2-2.9-1.5-3-.4,0-.8,.1-1.1,.3-10.6,7.2-19.7,15.9-27.3,26.2-1.4,1.9-2.6,4.1-2.2,6.6,.5,3.5,2.5,6.2,6,8.1,.3,.2,.6,.2,1,.1,2.8-.7,5.3-2.4,7.4-5.1,4.8-6.1,9.4-13.9,13.7-23.3Zm-253.8,76.5c3.9-2,7.3-4.1,10.3-6.3,33.2-24.5,64.1-51.8,95.1-79.2,.7-.6,1.3-1.3,1.8-2,.3-.4,.2-.9-.2-1.2-.2-.1-.4-.2-.6-.2-11.5,.8-21.7,5.5-31.7,11.8-26.5,16.6-49.6,37-69.4,61.1-3.6,4.4-6.7,9.3-8.6,14.8-.2,.7,.1,1.4,.8,1.7,.1,0,.2,.1,.3,.1,.7,0,1.5-.2,2.2-.6ZM111.93,232.42c1.3-1.8,2.6-3.7,3.8-5.5,.1-.1,0-.2-.1-.3l-.2-.2c-.1-.1-.2-.1-.2,0-15.5,17.6-29.8,35.3-42.9,53.1-2.9,4-6.1,8.5-9.5,13.8v.2l.2,.3c.2,.3,.4,.3,.6,.1,4-4.3,8.3-9.4,13.2-15.3,12.9-16.3,24.7-31.6,35.1-46.2Zm738.9,60.2c-2.6,5.7-5,11.3-5.1,17.7,0,2.2,1.9,2.9,3.8,2.6,5.9-.8,12-3.2,18.1-7.1,11.2-7.2,20.8-16.5,29.9-26.2,2.6-2.7,4.6-5.7,6.2-9,.3-.7,.2-1.6-.3-2.1-6.5-6.8-10.6-15.4-14.8-24.3-.3-.7-.8-1.2-1.4-1.5-.8-.4-1.8-.2-2.4,.4-14.1,13.9-25.3,30.4-34,49.5Z"/>
</svg>