<?xml version="1.0" encoding="UTF-8"?>
<svg id="Layer_1" data-name="Layer 1" xmlns="http://www.w3.org/2000/svg" viewBox="0 0 591.5 353">
  <path id="RHO" d="M170.09,280.56l-7.98-15.46-4.42-8.56-30.62-59.34c20.69-10.25,34.9-31.58,34.9-56.23v-8.68c0-34.64-28.08-62.72-62.72-62.72H3.66c-1.08,0-1.96,.88-1.96,1.96v209.92c0,1.08,.88,1.96,1.96,1.96H46.77c1.08,0,1.96-.88,1.96-1.96v-72.09h37.61l27.3,52.89,10.37,20.1c.33,.65,1.01,1.06,1.74,1.06h42.61c1.47,0,2.42-1.55,1.74-2.86Zm-54.06-135c0,6.43-2.81,12.21-7.28,16.16-3.8,3.36-8.8,5.41-14.28,5.41H48.73v-60.97h45.74c11.91,0,21.57,9.65,21.57,21.57v17.84ZM406.61,43.52c-17.09,1.35-30.65,15.26-31.46,32.51h-.04v205.43c0,1.08-.88,1.96-1.96,1.96h-40.76c-1.08,0-1.96-.88-1.96-1.96v-71.65h-88.81v67.16c0,2.17-.09,4.32-.27,6.45-3.27,38.98-35.94,69.58-75.75,69.58h-.24c-1.08,0-1.96-.88-1.96-1.96v-39.38c0-1.15,.89-2.09,2.04-2.18,17.09-1.35,30.65-15.26,31.46-32.51h.04V71.54c0-1.08,.88-1.96,1.96-1.96h40.75c1.08,0,1.96,.88,1.96,1.96v95.58h88.81V76.03c0-2.17,.09-4.32,.28-6.45C333.99,30.6,366.65,0,406.46,0h.23c1.08,0,1.96,.88,1.96,1.96V41.34c0,1.15-.89,2.09-2.04,2.18Zm101.99,26.06h-19.27c-44.57,0-80.69,36.12-80.69,80.68v52.47c0,44.56,36.12,80.68,80.69,80.68h19.27c44.57,0,80.69-36.12,80.69-80.68v-52.47c0-44.56-36.12-80.68-80.69-80.68Zm35.75,136.95c0,24.13-19.57,43.69-43.7,43.69h-3.38c-24.13,0-43.69-19.56-43.69-43.69v-60.07c0-24.13,19.56-43.69,43.69-43.69h3.38c24.13,0,43.7,19.56,43.7,43.69v60.07Z"/>
</svg>