<?xml version="1.0" encoding="UTF-8"?>
<svg id="Layer_1" data-name="Layer 1" xmlns="http://www.w3.org/2000/svg" xmlns:xlink="http://www.w3.org/1999/xlink" viewBox="0 0 1080 611.68">
  <defs>
    <style>
      .cls-1 {
        clip-path: url(#clippath);
      }

      .cls-2 {
        fill: #fff;
      }

      .cls-3 {
        clip-path: url(#clippath-1);
      }

      .cls-4 {
        clip-path: url(#clippath-4);
      }

      .cls-5 {
        clip-path: url(#clippath-3);
      }

      .cls-6 {
        clip-path: url(#clippath-2);
      }

      .cls-7 {
        clip-path: url(#clippath-7);
      }

      .cls-8 {
        clip-path: url(#clippath-8);
      }

      .cls-9 {
        clip-path: url(#clippath-6);
      }

      .cls-10 {
        clip-path: url(#clippath-5);
      }

      .cls-11 {
        clip-path: url(#clippath-9);
      }

      .cls-12 {
        clip-path: url(#clippath-14);
      }

      .cls-13 {
        clip-path: url(#clippath-13);
      }

      .cls-14 {
        clip-path: url(#clippath-12);
      }

      .cls-15 {
        clip-path: url(#clippath-10);
      }

      .cls-16 {
        clip-path: url(#clippath-15);
      }

      .cls-17 {
        clip-path: url(#clippath-11);
      }
    </style>
    <clipPath id="clippath">
      <path class="cls-2" d="M828.18,395.56c0,.53-.43,.96-.96,.96H282.25c-.53,0-.96-.43-.96-.96h0V32.24c0-.53,.43-.96,.96-.96H827.22c.53,0,.96,.43,.96,.96V395.56ZM304.47,53.38c-.45,0-.81,.36-.81,.81h0V374.26c0,.45,.36,.81,.81,.81h500.54c.45,0,.81-.36,.81-.81h0V54.19c0-.45-.36-.81-.81-.81H304.47Z"/>
    </clipPath>
    <clipPath id="clippath-1">
      <path class="cls-2" d="M164.98,464.84l1.94,1.26c.63,.42,1.05,1.08,1.16,1.82,.61,3.78,.82,8.54,.63,14.26-.23,6.31-4.44,8.63-10.32,8.48-11.22-.25-21.57-.26-31.06-.03-1.24,.02-1.87-.6-1.87-1.84v-50.51c0-.93,.45-1.39,1.36-1.39,11.2-.03,22.56-.02,34.06,.05,9.81,.08,8.28,13.42,7.57,20.69-.2,2.22-1.51,4.01-3.41,5.1-1.19,.67-1.22,1.38-.08,2.12Zm-32.29-19.98l-.05,14.23c0,.6,.49,1.08,1.08,1.08h0l22.98,.08c2.58,0,4.68-2.03,4.69-4.54l.03-7.27c.01-2.52-2.08-4.58-4.67-4.59l-22.98-.08c-.6,0-1.08,.49-1.08,1.08Zm.03,23.09v14.84c0,.43,.35,.78,.78,.78h23.44c2.48,0,4.49-2.13,4.49-4.77h0v-6.86c0-2.63-2.01-4.77-4.49-4.77h-23.44c-.43,0-.78,.35-.78,.78Z"/>
    </clipPath>
    <clipPath id="clippath-2">
      <path class="cls-2" d="M186.98,476.95l-4.89,12.87c-.14,.38-.5,.63-.91,.63l-5.58,.05c-.54,0-.99-.43-.99-.98,0-.11,.02-.23,.06-.33l19.45-51.65c.14-.38,.5-.63,.91-.63l9.94-.03c.41,0,.79,.25,.93,.63l19.53,51.7c.2,.51-.06,1.08-.57,1.27-.12,.05-.24,.07-.37,.07l-5.6-.1c-.4,0-.76-.24-.91-.61l-5.02-12.94c-.15-.39-.52-.64-.93-.63l-24.12,.05c-.41,0-.79,.25-.93,.63Zm3.46-8.81c-.15,.42,.06,.88,.48,1.04,.09,.03,.18,.05,.28,.05h17.71c.45,0,.81-.36,.81-.81,0-.09-.02-.19-.05-.28l-8.86-23.14c-.16-.42-.62-.63-1.04-.48-.22,.08-.39,.26-.48,.48l-8.86,23.14Z"/>
    </clipPath>
    <clipPath id="clippath-3">
      <path class="cls-2" d="M379.99,476.29h-24.35c-.35,0-.66,.23-.78,.56l-5.1,13.07c-.12,.33-.43,.55-.78,.56l-5.8,.05c-.47,0-.86-.38-.86-.85,0-.11,.02-.21,.06-.31l19.58-51.92c.13-.34,.45-.56,.81-.56l10.12,.03c.35,0,.66,.23,.78,.56l19.58,51.95c.17,.44-.06,.94-.5,1.11-.11,.04-.22,.06-.33,.05l-5.95-.18c-.35,0-.66-.23-.78-.56l-4.87-12.99c-.13-.34-.45-.56-.81-.56Zm-21.77-8.07c-.15,.39,.04,.83,.43,.98,.09,.04,.18,.05,.28,.05l17.84-.05c.42,0,.75-.35,.75-.76,0-.08-.02-.17-.04-.25l-8.96-23.31c-.15-.39-.59-.58-.98-.43-.2,.08-.36,.23-.43,.43l-8.88,23.34Z"/>
    </clipPath>
    <clipPath id="clippath-4">
      <path class="cls-2" d="M558.47,476.27l-24.32,.03c-.35,0-.66,.23-.78,.56l-5.1,13.12c-.13,.34-.45,.56-.81,.56l-5.75-.08c-.47,0-.86-.39-.85-.86,0-.09,.02-.19,.05-.27l19.55-51.9c.13-.34,.45-.56,.81-.56l10.12,.08c.35,0,.66,.23,.78,.56l19.58,51.87c.17,.44-.06,.94-.5,1.11-.1,.04-.2,.06-.31,.06l-5.93-.08c-.35,0-.66-.23-.78-.56l-4.95-13.07c-.13-.34-.45-.56-.81-.56Zm-21.72-8.12c-.17,.41,.03,.88,.45,1.05,.1,.04,.2,.06,.31,.06l17.71-.05c.45-.01,.8-.39,.78-.83,0-.09-.02-.17-.05-.25l-8.88-23.11c-.16-.42-.62-.63-1.04-.48-.22,.08-.39,.26-.48,.48l-8.81,23.14Z"/>
    </clipPath>
    <clipPath id="clippath-5">
      <path class="cls-2" d="M682.7,473.57v16.02c0,.62-.3,.93-.91,.91l-5.68-.03c-.44,0-.66-.22-.66-.66l.03-51.65c0-.86,.42-1.29,1.26-1.29h34.21c4.06,0,7.39,3.2,7.57,7.27,.34,7.6,.32,14.53-.05,20.79-.2,3.72-2.25,5.94-6.13,6.66-1.16,.22-1.41,.82-.76,1.79l10.24,15.49c.71,1.08,.41,1.61-.88,1.61h-5.65c-.87,0-1.56-.37-2.04-1.11l-10.55-16.2c-.5-.79-1.23-1.19-2.17-1.19l-16.3,.05c-1.03,0-1.54,.5-1.54,1.51Zm28.6-27.7c0-1.11-.91-2.02-2.02-2.01h0l-24.62,.04c-1.11,0-2.02,.91-2.01,2.02h0l.03,16.9c0,1.11,.91,2.02,2.02,2.01l24.62-.04c1.11,0,2.02-.91,2.01-2.02h0l-.03-16.9Z"/>
    </clipPath>
    <clipPath id="clippath-6">
      <path class="cls-2" d="M771.69,482.5c0,4.42-3.58,8-8,8h-27.25c-4.42,0-8-3.58-8-8v-37.59c0-4.42,3.58-8,8-8h27.25c4.42,0,8,3.58,8,8v37.59Zm-7.32-34.89c0-2.09-1.7-3.78-3.79-3.78h0l-21.14,.04c-2.09,0-3.78,1.7-3.78,3.79h0l.06,32.09c0,2.09,1.7,3.78,3.79,3.78h0l21.14-.04c2.09,0,3.78-1.7,3.78-3.79l-.06-32.09Z"/>
    </clipPath>
    <clipPath id="clippath-7">
      <path class="cls-2" d="M808.85,473.57v16.17c0,.52-.25,.77-.76,.76l-5.83-.03c-.44,0-.66-.22-.66-.66l.03-51.65c0-.86,.42-1.29,1.26-1.29h34.57c3.83,0,6.99,3.02,7.17,6.86,.27,6.29,.34,13.06,.2,20.31-.08,3.58-2.47,7.17-6.18,7.54-1.3,.12-1.59,.72-.88,1.82l10.29,15.67c.64,.96,.39,1.44-.76,1.44l-5.55-.03c-1.08-.02-1.92-.48-2.52-1.39l-10.39-15.97c-.47-.71-1.26-1.13-2.09-1.14l-16.35,.05c-1.03,0-1.54,.5-1.54,1.51Zm28.6-27.7c0-1.11-.91-2.02-2.02-2.01h0l-24.62,.04c-1.11,0-2.02,.91-2.01,2.02h0l.03,16.9c0,1.11,.91,2.02,2.02,2.01l24.62-.04c1.11,0,2.02-.91,2.01-2.02h0l-.03-16.9Z"/>
    </clipPath>
    <clipPath id="clippath-8">
      <path class="cls-2" d="M863.15,476.92l-4.89,12.89c-.14,.38-.5,.63-.91,.63l-5.55,.05c-.54,0-.99-.43-.99-.98,0-.11,.02-.23,.06-.33l19.43-51.65c.14-.38,.5-.63,.91-.63l9.94-.03c.41,0,.79,.25,.93,.63l19.5,51.7c.18,.51-.09,1.07-.6,1.26-.11,.04-.22,.06-.33,.06l-5.55-.05c-.4,0-.76-.25-.91-.63l-5.05-12.94c-.15-.39-.52-.64-.93-.63l-24.12,.03c-.41,0-.79,.25-.93,.63Zm3.43-8.73c-.15,.39,.04,.83,.43,.98,.09,.04,.18,.05,.28,.05h17.86c.42,0,.76-.34,.76-.75,0-.1-.02-.19-.05-.28l-8.93-23.31c-.15-.39-.59-.58-.98-.43-.2,.08-.36,.23-.43,.43l-8.93,23.31Z"/>
    </clipPath>
    <clipPath id="clippath-9">
      <path class="cls-2" d="M991.47,464.79l1.54,1.24c.69,.54,1.11,1.24,1.26,2.09,1.08,5.9,1.09,11.56,.05,16.95-.62,3.15-3.38,5.42-6.59,5.42h-34.69c-.86,0-1.29-.42-1.29-1.26v-51.04c0-.89,.45-1.34,1.34-1.34,11.25,.02,22.61,.03,34.06,.05,4.36,0,7.49,3.1,7.72,7.44,.28,5.05,1.41,15.11-3.33,18.39-.94,.66-.97,1.34-.08,2.04Zm-32.5-19.93l-.05,14.23c0,.6,.49,1.08,1.08,1.08h0l23.09,.08c2.54,.01,4.6-2.16,4.62-4.84v-6.66c.01-2.69-2.03-4.88-4.57-4.89h0l-23.09-.08c-.6,0-1.08,.49-1.08,1.08Zm0,23.11l.05,14.84c0,.43,.35,.78,.78,.78l23.49-.05c2.44-.01,4.42-2.21,4.42-4.92v-6.56c0-2.72-1.99-4.92-4.44-4.92,0,0-.02,0-.02,0l-23.49,.05c-.43,0-.78,.35-.78,.78Z"/>
    </clipPath>
    <clipPath id="clippath-10">
      <path class="cls-2" d="M258.23,562.53l-.15,12.49c-.02,.89-.48,1.34-1.39,1.34h-3.76c-1.3-.02-1.94-.66-1.94-1.94v-50.46c0-.86,.42-1.29,1.26-1.29h34.24c4.26,0,7.72,3.46,7.72,7.72v22.96c.01,4.22-3.4,7.66-7.62,7.67,0,0-.02,0-.03,0l-26.85,.05c-.99,0-1.49,.49-1.49,1.46Zm28.54-31.21c0-1.06-.86-1.92-1.92-1.91h0l-24.83,.04c-1.06,0-1.92,.86-1.91,1.92l.04,20.74c0,1.06,.86,1.92,1.92,1.91h0l24.83-.04c1.06,0,1.92-.86,1.91-1.92h0s-.04-20.74-.04-20.74Z"/>
    </clipPath>
    <clipPath id="clippath-11">
      <path class="cls-2" d="M400.17,568.31c0,4.4-3.57,7.97-7.97,7.97h-27.3c-4.4,0-7.97-3.57-7.97-7.97h0v-37.64c0-4.4,3.57-7.97,7.97-7.97h27.3c4.4,0,7.97,3.57,7.97,7.97v37.64Zm-7.27-34.84c0-2.12-1.72-3.83-3.84-3.83h-21.09c-2.12,0-3.84,1.72-3.84,3.83v31.99c0,2.12,1.72,3.84,3.83,3.84h21.09c2.12,0,3.84-1.72,3.84-3.83h0v-31.99Z"/>
    </clipPath>
    <clipPath id="clippath-12">
      <path class="cls-2" d="M497.94,568.31c0,4.4-3.57,7.97-7.97,7.97h-27.3c-4.4,0-7.97-3.57-7.97-7.97h0v-37.64c0-4.4,3.57-7.97,7.97-7.97h27.3c4.4,0,7.97,3.57,7.97,7.97v37.64Zm-7.29-34.89c0-2.09-1.69-3.78-3.78-3.78h-21.14c-2.09,0-3.78,1.69-3.78,3.78v32.09c0,2.09,1.69,3.78,3.78,3.78h21.14c2.09,0,3.78-1.69,3.78-3.78v-32.09Z"/>
    </clipPath>
    <clipPath id="clippath-13">
      <path class="cls-2" d="M597.5,559.15l10.17,15.67c.64,.99,.37,1.48-.81,1.46h-5.17c-1.23,0-2.18-.51-2.85-1.54l-10.32-15.77c-.5-.77-1.22-1.16-2.14-1.16h-16.32c-1.04,0-1.56,.52-1.56,1.56l.08,16.02c0,.59-.29,.88-.88,.88l-5.73-.03c-.42,0-.63-.21-.63-.63v-51.67c0-.86,.42-1.29,1.26-1.29h34.04c4.32,0,7.84,3.49,7.9,7.82,.08,6.63,.08,12.96-.03,19-.07,4.27-2.22,7.02-6.46,8.25-.81,.24-.98,.71-.53,1.41Zm-29.04-28.61l.05,19.28c0,.47,.38,.86,.86,.86l23.67-.08c2.37,0,4.29-1.83,4.29-4.09,0,0,0-.02,0-.02l-.05-12.82c-.01-2.25-1.93-4.06-4.29-4.06l-23.67,.08c-.47,0-.86,.38-.86,.86Z"/>
    </clipPath>
    <clipPath id="clippath-14">
      <path class="cls-2" d="M647.4,562.08h-24.32c-.35,0-.66,.23-.78,.56l-5.07,13.12c-.13,.34-.46,.57-.83,.56l-5.78-.08c-.47-.01-.85-.4-.84-.88,0-.1,.02-.19,.06-.28l19.55-51.85c.13-.34,.45-.56,.81-.56l10.14,.03c.35,0,.66,.23,.78,.56l19.53,51.92c.17,.44-.06,.94-.5,1.11-.1,.04-.2,.06-.31,.06l-5.93-.13c-.35,0-.66-.23-.78-.56l-4.92-13.02c-.13-.34-.45-.56-.81-.56Zm-21.75-8.07c-.15,.39,.04,.83,.43,.98,.09,.04,.18,.05,.28,.05l17.84-.05c.42,0,.75-.35,.75-.76,0-.08-.02-.17-.04-.25l-8.96-23.31c-.15-.39-.59-.58-.98-.43-.2,.08-.36,.23-.43,.43l-8.88,23.34Z"/>
    </clipPath>
    <clipPath id="clippath-15">
      <path class="cls-2" d="M673.87,562.86l.03,12.74c0,.4-.2,.61-.61,.63l-5.35,.08c-.86,.02-1.29-.41-1.29-1.29v-51.09c0-.84,.43-1.26,1.29-1.26h34.21c4.26,0,7.72,3.46,7.72,7.72v22.98c0,4.24-3.43,7.67-7.67,7.67h-26.52c-1.21,0-1.82,.61-1.82,1.82Zm28.58-31.26c0-1.23-1-2.22-2.23-2.21l-24.27,.08c-1.23,0-2.22,1-2.21,2.23l.07,20.13c0,1.23,1,2.22,2.23,2.21l24.27-.08c1.23,0,2.22-1,2.21-2.23l-.07-20.13Z"/>
    </clipPath>
  </defs>
  <path class="cls-2" d="M377.52,417.96c.25-.4,.13-.93-.27-1.18-.15-.1-.33-.14-.51-.13l-4.97,.25c-.3,.02-.57,.19-.71,.45l-5.37,9.84c-.22,.42-.07,.94,.35,1.16,.14,.07,.3,.11,.46,.1l3.76-.18c.27,0,.53-.15,.68-.38l6.59-9.94" vector-effect="non-scaling-stroke"/>
  <path class="cls-2" d="M33.65,448.11c.03-2.84,1.47-4.26,4.31-4.26h29.49c.42,0,.63-.22,.63-.66l-.03-5.6c0-.45-.24-.68-.71-.68-10.87-.05-21.67-.04-32.42,.03-5.52,.02-8.33,2.73-8.43,8.15-.12,5.01-.13,9.89-.05,14.63,.07,4.13,3.44,7.44,7.57,7.44h23.97c2.94,0,4.41,1.47,4.39,4.42v7.57c0,2.93-1.46,4.39-4.39,4.39H29.06c-.82,0-1.24,.4-1.24,1.21l-.05,4.52c-.02,.82,.4,1.24,1.24,1.24H62.57c3.91,0,7.08-3.17,7.09-7.09v-16.1c0-3.92-3.17-7.09-7.09-7.09h-24.68c-2.91,0-4.35-1.45-4.31-4.34l.08-7.77" vector-effect="non-scaling-stroke"/>
  <path class="cls-2" d="M86.61,467.99c0-.46,.37-.83,.83-.83l23.29,.03c.46,0,.83-.37,.83-.83h0s.03-5.27,.03-5.27c0-.46-.37-.83-.83-.83l-23.31-.05c-.46,0-.83-.37-.83-.83v-14.68c0-.46,.37-.83,.83-.83l30.91,.03c.46,0,.83-.37,.83-.83l-.03-5.3c0-.46-.37-.83-.83-.83l-38.1-.03c-.46,0-.83,.37-.83,.83l.03,51.95c0,.46,.37,.83,.83,.83h38.05c.46,0,.83-.37,.83-.83l.05-5.32c0-.46-.37-.83-.83-.83l-30.91,.03c-.46,0-.83-.37-.83-.83v-14.71" vector-effect="non-scaling-stroke"/>
  <path class="cls-2" d="M267.39,471.58v7.57c-.02,2.93-1.48,4.39-4.39,4.39h-28.94c-.81,0-1.21,.4-1.21,1.21l-.05,4.52c-.02,.82,.39,1.24,1.21,1.24h33.51c3.9,0,7.06-3.14,7.09-7.04l.05-15.49c.03-4.25-3.39-7.72-7.64-7.75-.02,0-.03,0-.05,0h-24.04c-2.83,0-4.24-1.41-4.24-4.24l-.03-7.92c0-2.81,1.4-4.21,4.19-4.21h29.62c.44,0,.66-.22,.66-.66l-.03-5.68c0-.42-.21-.63-.63-.63h-33.43c-4.19,0-7.59,3.39-7.59,7.57v15.44c0,4.01,3.25,7.27,7.27,7.27h24.3c2.93,0,4.39,1.47,4.39,4.42" vector-effect="non-scaling-stroke"/>
  <path class="cls-2" d="M305.38,444.65c0-.46,.37-.83,.83-.83l16.42,.05c.46,0,.83-.37,.83-.83l.03-5.3c0-.46-.37-.83-.83-.83l-41.68-.03c-.46,0-.83,.37-.83,.83l-.1,5.3c0,.46,.37,.83,.83,.83h16.5c.46,0,.83,.37,.83,.83l-.03,44.96c0,.46,.37,.83,.83,.83l5.53,.03c.46,0,.83-.37,.83-.83v-45.01" vector-effect="non-scaling-stroke"/>
  <path class="cls-2" d="M336.42,437.67c0-.42-.34-.76-.76-.76h-5.7c-.42,0-.76,.34-.76,.76v52.08c0,.42,.34,.76,.76,.76h5.7c.42,0,.76-.34,.76-.76v-52.08" vector-effect="non-scaling-stroke"/>
  <path class="cls-2" d="M406.4,450.58c0-1.21,.34-1.32,1.03-.33l26.82,38.98c.57,.84,1.37,1.26,2.4,1.26h4.06c1.14,0,1.72-.58,1.72-1.74l.03-50.99c0-.59-.29-.88-.88-.88l-5.78,.03c-.42,0-.63,.21-.63,.63l-.03,37.82c0,2.24-.62,2.43-1.87,.58l-26.21-38.2c-.4-.57-.95-.86-1.64-.86h-4.92c-.86,0-1.29,.42-1.29,1.26v51.72c0,.42,.22,.63,.66,.63l6.11-.05c.3,0,.45-.15,.45-.45l-.03-39.41" vector-effect="non-scaling-stroke"/>
  <path class="cls-2" d="M480.25,446.62c0-1.38,1.09-2.52,2.47-2.57,6.69-.22,13.93-.29,21.7-.2,3.2,.03,4.7,1.63,4.52,4.79-.03,.52,.21,.78,.73,.78l5.68,.1c.39,.02,.62-.17,.71-.56,1.29-6.43-1.54-12.14-8.48-12.14-9.86,.03-18.93,.08-27.22,.13-4.07,.04-7.34,3.34-7.34,7.39v38.53c0,4.19,3.39,7.59,7.57,7.59,9.34,.02,18.54,.03,27.63,.03,6.16,0,8.58-5.22,8.15-11.05-.08-1.04-.65-1.56-1.69-1.56h-3.78c-1.45,0-2.17,.71-2.17,2.14,0,.86-.29,1.61-.86,2.25-.77,.84-1.73,1.26-2.88,1.26l-21.29-.03c-2.35,0-3.52-1.17-3.51-3.51l.08-33.38" vector-effect="non-scaling-stroke"/>
  <path class="cls-2" d="M584.93,448.09c0-2.83,1.41-4.24,4.24-4.24h29.57c.44,0,.66-.22,.66-.66l-.05-5.68c0-.42-.2-.63-.61-.63h-33.43c-4.18,0-7.58,3.38-7.59,7.57v15.11c-.01,4.18,3.36,7.58,7.54,7.59,0,0,.02,0,.03,0h23.99c2.94,0,4.41,1.47,4.39,4.42l-.03,7.59c0,2.91-1.46,4.36-4.39,4.36l-29.12-.03c-.57,0-.87,.29-.91,.86l-.25,5.15c-.03,.66,.28,.98,.93,.98h33.91c3.92,0,7.09-3.16,7.09-7.06l.05-16.1c0-3.93-3.17-7.11-7.09-7.11h-24.8c-2.74,0-4.11-1.37-4.11-4.11l-.03-8.02" vector-effect="non-scaling-stroke"/>
  <path class="cls-2" d="M644.3,443.85c.46,0,.83,.37,.83,.83l-.1,45.04c0,.46,.37,.83,.83,.83l5.6-.08c.46,0,.83-.37,.83-.83v-44.94c0-.46,.37-.83,.83-.83h0l16.45-.03c.46,0,.83-.37,.83-.83h0v-5.3c0-.46-.37-.83-.83-.83h-41.73c-.46,0-.83,.37-.83,.83l-.03,5.3c0,.46,.37,.83,.83,.83h16.48" vector-effect="non-scaling-stroke"/>
  <path class="cls-2" d="M934.85,480c.02,2.35-1.15,3.53-3.51,3.53h-13.3c-2.71,0-4.08-1.35-4.11-4.06l-.05-6.31c0-.59-.29-.88-.88-.88l-5.65-.03c-.61,0-.91,.31-.91,.93l.15,10.52c.06,3.76,3.11,6.79,6.86,6.79h20.61c4.51,0,8.17-3.65,8.17-8.15h0v-44.23c0-.82-.41-1.24-1.24-1.24h-4.95c-.81,0-1.21,.4-1.21,1.21v41.91" vector-effect="non-scaling-stroke"/>
  <path class="cls-2" d="M1012.51,468.32c0-.65,.53-1.19,1.19-1.19h0l22.58,.03c.65,0,1.17-.52,1.19-1.16l.13-4.57c.01-.65-.51-1.2-1.16-1.21,0,0-.02,0-.03,0h-22.68c-.65,0-1.19-.53-1.19-1.19h0l-.03-14.03c0-.65,.53-1.19,1.19-1.19h0l30.23,.03c.65,0,1.19-.53,1.19-1.19h0l.05-4.57c0-.65-.53-1.19-1.19-1.19h0l-37.44-.05c-.65,0-1.19,.53-1.19,1.19h0l.03,51.27c0,.65,.53,1.19,1.19,1.19h0l37.34-.03c.65,0,1.19-.53,1.19-1.19h0v-4.54c0-.65-.53-1.19-1.19-1.19h-30.15c-.65,0-1.19-.53-1.19-1.19h0l-.05-14.05" vector-effect="non-scaling-stroke"/>
  <path class="cls-2" d="M339.09,553.22c.47,0,.86,.38,.86,.86h0s-.05,21.32-.05,21.32c0,.47,.38,.86,.86,.86h0l5.58,.03c.47,0,.86-.38,.86-.86v-51.9c0-.47-.38-.86-.86-.86h-5.55c-.47,0-.86,.38-.86,.86v21.34c0,.47-.38,.86-.86,.86h0l-27.07-.05c-.47,0-.86-.38-.86-.86l.1-21.27c0-.47-.38-.86-.86-.86l-5.58-.05c-.47,0-.86,.38-.86,.86h0l.03,51.85c0,.47,.38,.86,.86,.86l5.37,.08c.47,0,.86-.38,.86-.86l.13-21.34c0-.47,.38-.86,.86-.86h27.05" vector-effect="non-scaling-stroke"/>
  <path class="cls-2" d="M431.53,530.59c0-.54,.44-.98,.98-.98h0l16.07,.05c.54,.01,.99-.42,1.01-.96,0,0,0-.02,0-.03l.05-5c.01-.54-.42-.99-.96-1.01,0,0-.02,0-.03,0h-41.4c-.54,0-.98,.44-.98,.98h0l-.08,5c0,.54,.44,.98,.98,.98h0l16.2-.03c.54,0,.98,.44,.98,.98h0l-.05,44.71c0,.54,.44,.98,.98,.98h0l5.25,.03c.54,0,.98-.44,.98-.98h0v-44.73" vector-effect="non-scaling-stroke"/>
  <path class="cls-2" d="M543.66,556.65v8.93c0,2.08-1.69,3.76-3.78,3.76l-21.9-.08c-1.69,0-3.05-1.37-3.05-3.05l.03-33.28c0-1.73,1.38-3.14,3.1-3.18,6.81-.15,14.04-.19,21.67-.1,2.88,.03,3.99,2.42,4.11,4.95,0,.32,.17,.48,.5,.48l5.78-.13c.45,0,.71-.23,.78-.68,.88-6.13-1.77-11.68-8.43-11.66-10.08,.03-19.15,.07-27.22,.1-4.17,.01-7.54,3.39-7.54,7.54v38.43c0,4.19,3.39,7.59,7.57,7.59h27.93c4.25,0,7.71-3.44,7.72-7.7l.03-19.45c.02-1.08-.52-1.61-1.61-1.61l-17.48-.03c-.59,0-.89,.3-.91,.91v5.35c0,.62,.31,.93,.93,.93h9.84c1.31,.02,1.96,.67,1.94,1.97" vector-effect="non-scaling-stroke"/>
  <path class="cls-2" d="M754.73,553.22c.47,0,.86,.38,.86,.86h0s.03,21.29,.03,21.29c0,.47,.38,.86,.86,.86l5.5,.05c.47,0,.86-.38,.86-.86l.08-51.87c0-.47-.38-.86-.86-.86h0l-5.63-.03c-.47,0-.86,.38-.86,.86l.03,21.34c0,.47-.38,.86-.86,.86h0l-27.05-.08c-.47,0-.86-.38-.86-.86l.03-21.27c0-.47-.38-.86-.86-.86h-5.5c-.47,0-.86,.38-.86,.86v51.9c0,.47,.38,.86,.86,.86h5.5c.47,0,.86-.38,.86-.86v-21.32c0-.47,.38-.86,.86-.86l27.02-.03" vector-effect="non-scaling-stroke"/>
  <path class="cls-2" d="M793.79,552.11l-15.77-27.98c-.56-.98-1.39-1.46-2.5-1.46h-5.3c-.39,0-.7,.32-.7,.7,0,.12,.03,.23,.09,.33,6.24,10.95,12.74,22.14,19.5,33.58,2.95,4.97,2.22,11.25,2.07,16.8-.03,1.5,.7,2.26,2.2,2.3l2.65,.05c1.58,.05,2.37-.71,2.37-2.3,.03-5.75-.76-11.96,2.3-17.13,6.31-10.73,12.65-21.65,19.02-32.75,.62-1.09,.31-1.63-.93-1.61l-5.05,.05c-.87,0-1.53,.39-1.97,1.16l-15.9,28.26c-.71,1.24-1.4,1.24-2.09,0" vector-effect="non-scaling-stroke"/>
  <g>
    <path class="cls-2" d="M828.18,395.56c0,.53-.43,.96-.96,.96H282.25c-.53,0-.96-.43-.96-.96h0V32.24c0-.53,.43-.96,.96-.96H827.22c.53,0,.96,.43,.96,.96V395.56ZM304.47,53.38c-.45,0-.81,.36-.81,.81h0V374.26c0,.45,.36,.81,.81,.81h500.54c.45,0,.81-.36,.81-.81h0V54.19c0-.45-.36-.81-.81-.81H304.47Z"/>
    <g class="cls-1">
      <path class="cls-2" d="M828.18,32.24c0-.53-.43-.96-.96-.96H282.25c-.53,0-.96,.43-.96,.96V395.56c0,.53,.43,.96,.96,.96H827.22c.53,0,.96-.43,.96-.96h0V32.24" vector-effect="non-scaling-stroke"/>
    </g>
  </g>
  <path class="cls-2" d="M377.52,417.96l-6.59,9.94c-.15,.23-.41,.37-.68,.38l-3.76,.18c-.47,.03-.88-.33-.91-.81,0-.16,.03-.32,.1-.46l5.37-9.84c.14-.26,.41-.44,.71-.45l4.97-.25c.47-.03,.88,.33,.91,.8,.01,.18-.03,.36-.13,.51Z"/>
  <path class="cls-2" d="M33.65,448.11l-.08,7.77c-.03,2.89,1.4,4.34,4.31,4.34h24.68c3.92,0,7.09,3.17,7.09,7.09v16.1c-.01,3.92-3.18,7.09-7.09,7.09H29.01c-.84,0-1.25-.41-1.24-1.24l.05-4.52c0-.81,.41-1.21,1.24-1.21h28.94c2.93,0,4.39-1.46,4.39-4.39v-7.57c.02-2.94-1.45-4.42-4.39-4.42h-23.97c-4.13,0-7.5-3.31-7.57-7.44-.08-4.74-.07-9.62,.05-14.63,.1-5.42,2.91-8.13,8.43-8.15,10.75-.07,21.56-.08,32.42-.03,.47,0,.71,.23,.71,.68l.03,5.6c0,.44-.21,.66-.63,.66h-29.49c-2.84,0-4.28,1.42-4.31,4.26Z"/>
  <path class="cls-2" d="M86.61,467.99v14.71c0,.46,.37,.83,.83,.83l30.91-.03c.46,0,.83,.37,.83,.83l-.05,5.32c0,.46-.37,.83-.83,.83h-38.05c-.46,0-.83-.37-.83-.83l-.03-51.95c0-.46,.37-.83,.83-.83l38.1,.03c.46,0,.83,.37,.83,.83l.03,5.3c0,.46-.37,.83-.83,.83l-30.91-.03c-.46,0-.83,.37-.83,.83v14.68c0,.46,.37,.83,.83,.83l23.31,.05c.46,0,.83,.37,.83,.83l-.03,5.27c0,.46-.37,.83-.83,.83h0l-23.29-.03c-.46,0-.83,.37-.83,.83Z"/>
  <g>
    <path class="cls-2" d="M164.98,464.84l1.94,1.26c.63,.42,1.05,1.08,1.16,1.82,.61,3.78,.82,8.54,.63,14.26-.23,6.31-4.44,8.63-10.32,8.48-11.22-.25-21.57-.26-31.06-.03-1.24,.02-1.87-.6-1.87-1.84v-50.51c0-.93,.45-1.39,1.36-1.39,11.2-.03,22.56-.02,34.06,.05,9.81,.08,8.28,13.42,7.57,20.69-.2,2.22-1.51,4.01-3.41,5.1-1.19,.67-1.22,1.38-.08,2.12Zm-32.29-19.98l-.05,14.23c0,.6,.49,1.08,1.08,1.08h0l22.98,.08c2.58,0,4.68-2.03,4.69-4.54l.03-7.27c.01-2.52-2.08-4.58-4.67-4.59l-22.98-.08c-.6,0-1.08,.49-1.08,1.08Zm.03,23.09v14.84c0,.43,.35,.78,.78,.78h23.44c2.48,0,4.49-2.13,4.49-4.77h0v-6.86c0-2.63-2.01-4.77-4.49-4.77h-23.44c-.43,0-.78,.35-.78,.78Z"/>
    <g class="cls-3">
      <path class="cls-2" d="M165.05,462.72c1.89-1.08,3.2-2.88,3.41-5.1,.71-7.27,2.25-20.61-7.57-20.69-11.51-.07-22.86-.08-34.06-.05-.91,0-1.36,.46-1.36,1.39v50.51c0,1.24,.62,1.86,1.87,1.84,9.49-.24,19.84-.23,31.06,.03,5.88,.15,10.09-2.17,10.32-8.48,.19-5.72-.03-10.47-.63-14.26-.11-.74-.53-1.4-1.16-1.82l-1.94-1.26c-1.14-.74-1.12-1.45,.08-2.12" vector-effect="non-scaling-stroke"/>
      <path class="cls-2" d="M132.68,444.86l-.05,14.23c0,.6,.49,1.08,1.08,1.08h0l22.98,.08c2.58,0,4.68-2.03,4.69-4.54l.03-7.27c.01-2.52-2.08-4.58-4.67-4.59l-22.98-.08c-.6,0-1.08,.49-1.08,1.08" vector-effect="non-scaling-stroke"/>
      <path class="cls-2" d="M132.71,467.94v14.84c0,.43,.35,.78,.78,.78h23.44c2.48,0,4.49-2.13,4.49-4.77h0v-6.86c0-2.63-2.01-4.77-4.49-4.77h-23.44c-.43,0-.78,.35-.78,.78" vector-effect="non-scaling-stroke"/>
    </g>
  </g>
  <g>
    <path class="cls-2" d="M186.98,476.95l-4.89,12.87c-.14,.38-.5,.63-.91,.63l-5.58,.05c-.54,0-.99-.43-.99-.98,0-.11,.02-.23,.06-.33l19.45-51.65c.14-.38,.5-.63,.91-.63l9.94-.03c.41,0,.79,.25,.93,.63l19.53,51.7c.2,.51-.06,1.08-.57,1.27-.12,.05-.24,.07-.37,.07l-5.6-.1c-.4,0-.76-.24-.91-.61l-5.02-12.94c-.15-.39-.52-.64-.93-.63l-24.12,.05c-.41,0-.79,.25-.93,.63Zm3.46-8.81c-.15,.42,.06,.88,.48,1.04,.09,.03,.18,.05,.28,.05h17.71c.45,0,.81-.36,.81-.81,0-.09-.02-.19-.05-.28l-8.86-23.14c-.16-.42-.62-.63-1.04-.48-.22,.08-.39,.26-.48,.48l-8.86,23.14Z"/>
    <g class="cls-6">
      <path class="cls-2" d="M186.98,476.95c.15-.39,.52-.64,.93-.63l24.12-.05c.41,0,.79,.25,.93,.63l5.02,12.94c.15,.37,.51,.61,.91,.61l5.6,.1c.54,0,.99-.43,1-.97,0-.13-.02-.25-.07-.37l-19.53-51.7c-.15-.39-.52-.64-.93-.63l-9.94,.03c-.4,0-.76,.25-.91,.63l-19.45,51.65c-.18,.51,.09,1.07,.6,1.26,.11,.04,.22,.06,.33,.06l5.58-.05c.4,0,.76-.25,.91-.63l4.89-12.87" vector-effect="non-scaling-stroke"/>
      <path class="cls-2" d="M190.43,468.14c-.15,.42,.06,.88,.48,1.04,.09,.03,.18,.05,.28,.05h17.71c.45,0,.81-.36,.81-.81,0-.09-.02-.19-.05-.28l-8.86-23.14c-.16-.42-.62-.63-1.04-.48-.22,.08-.39,.26-.48,.48l-8.86,23.14" vector-effect="non-scaling-stroke"/>
    </g>
  </g>
  <path class="cls-2" d="M267.39,471.58c0-2.94-1.46-4.42-4.39-4.42h-24.3c-4.01,0-7.27-3.25-7.27-7.27v-15.44c0-4.18,3.4-7.57,7.59-7.57h33.43c.42,0,.63,.21,.63,.63l.03,5.68c0,.44-.22,.66-.66,.66h-29.62c-2.79,0-4.19,1.4-4.19,4.21l.03,7.92c0,2.83,1.41,4.24,4.24,4.24h24.04c4.25,0,7.7,3.45,7.7,7.7,0,.02,0,.03,0,.05l-.05,15.49c-.03,3.9-3.19,7.04-7.09,7.04h-33.51c-.82,0-1.23-.41-1.21-1.24l.05-4.52c0-.81,.4-1.21,1.21-1.21h28.94c2.91,0,4.37-1.46,4.39-4.39v-7.57Z"/>
  <path class="cls-2" d="M305.38,444.65v45.01c0,.46-.37,.83-.83,.83l-5.53-.03c-.46,0-.83-.37-.83-.83l.03-44.96c0-.46-.37-.83-.83-.83h-16.5c-.46,0-.83-.37-.83-.83h0s.1-5.3,.1-5.3c0-.46,.37-.83,.83-.83l41.68,.03c.46,0,.83,.37,.83,.83l-.03,5.3c0,.46-.37,.83-.83,.83l-16.42-.05c-.46,0-.83,.37-.83,.83Z"/>
  <rect class="cls-2" x="329.2" y="436.91" width="7.22" height="53.59" rx=".76" ry=".76"/>
  <g>
    <path class="cls-2" d="M379.99,476.29h-24.35c-.35,0-.66,.23-.78,.56l-5.1,13.07c-.12,.33-.43,.55-.78,.56l-5.8,.05c-.47,0-.86-.38-.86-.85,0-.11,.02-.21,.06-.31l19.58-51.92c.13-.34,.45-.56,.81-.56l10.12,.03c.35,0,.66,.23,.78,.56l19.58,51.95c.17,.44-.06,.94-.5,1.11-.11,.04-.22,.06-.33,.05l-5.95-.18c-.35,0-.66-.23-.78-.56l-4.87-12.99c-.13-.34-.45-.56-.81-.56Zm-21.77-8.07c-.15,.39,.04,.83,.43,.98,.09,.04,.18,.05,.28,.05l17.84-.05c.42,0,.75-.35,.75-.76,0-.08-.02-.17-.04-.25l-8.96-23.31c-.15-.39-.59-.58-.98-.43-.2,.08-.36,.23-.43,.43l-8.88,23.34Z"/>
    <g class="cls-5">
      <path class="cls-2" d="M379.99,476.29c.36,0,.68,.22,.81,.56l4.87,12.99c.12,.33,.43,.55,.78,.56l5.95,.18c.47,.02,.87-.35,.89-.83,0-.11-.01-.23-.05-.33l-19.58-51.95c-.12-.33-.43-.55-.78-.56l-10.12-.03c-.36,0-.68,.22-.81,.56l-19.58,51.92c-.17,.44,.06,.94,.5,1.11,.1,.04,.2,.06,.31,.06l5.8-.05c.35,0,.66-.23,.78-.56l5.1-13.07c.12-.33,.43-.55,.78-.56h24.35" vector-effect="non-scaling-stroke"/>
      <path class="cls-2" d="M358.21,468.22c-.15,.39,.04,.83,.43,.98,.09,.04,.18,.05,.28,.05l17.84-.05c.42,0,.75-.35,.75-.76,0-.08-.02-.17-.04-.25l-8.96-23.31c-.15-.39-.59-.58-.98-.43-.2,.08-.36,.23-.43,.43l-8.88,23.34" vector-effect="non-scaling-stroke"/>
    </g>
  </g>
  <path class="cls-2" d="M406.4,450.58l.03,39.41c0,.3-.15,.45-.45,.45l-6.11,.05c-.44,0-.66-.21-.66-.63v-51.72c0-.84,.43-1.26,1.29-1.26h4.92c.69,0,1.24,.29,1.64,.86l26.21,38.2c1.24,1.85,1.87,1.66,1.87-.58l.03-37.82c0-.42,.21-.63,.63-.63l5.78-.03c.59,0,.88,.29,.88,.88l-.03,50.99c0,1.16-.57,1.74-1.72,1.74h-4.06c-1.03,0-1.82-.42-2.4-1.26l-26.82-38.98c-.69-.99-1.03-.88-1.03,.33Z"/>
  <path class="cls-2" d="M480.25,446.62l-.08,33.38c-.02,2.34,1.15,3.51,3.51,3.51l21.29,.03c1.14,0,2.1-.42,2.88-1.26,.57-.64,.86-1.39,.86-2.25,0-1.43,.72-2.14,2.17-2.14h3.78c1.04,0,1.61,.52,1.69,1.56,.43,5.83-1.99,11.05-8.15,11.05-9.08,0-18.29,0-27.63-.03-4.18,0-7.57-3.4-7.57-7.59v-38.53c0-4.05,3.27-7.35,7.34-7.39,8.29-.05,17.37-.09,27.22-.13,6.94,0,9.76,5.7,8.48,12.14-.08,.39-.32,.57-.71,.56l-5.68-.1c-.52,0-.77-.26-.73-.78,.19-3.16-1.32-4.76-4.52-4.79-7.77-.08-15-.02-21.7,.2-1.38,.05-2.47,1.19-2.47,2.57Z"/>
  <g>
    <path class="cls-2" d="M558.47,476.27l-24.32,.03c-.35,0-.66,.23-.78,.56l-5.1,13.12c-.13,.34-.45,.56-.81,.56l-5.75-.08c-.47,0-.86-.39-.85-.86,0-.09,.02-.19,.05-.27l19.55-51.9c.13-.34,.45-.56,.81-.56l10.12,.08c.35,0,.66,.23,.78,.56l19.58,51.87c.17,.44-.06,.94-.5,1.11-.1,.04-.2,.06-.31,.06l-5.93-.08c-.35,0-.66-.23-.78-.56l-4.95-13.07c-.13-.34-.45-.56-.81-.56Zm-21.72-8.12c-.17,.41,.03,.88,.45,1.05,.1,.04,.2,.06,.31,.06l17.71-.05c.45-.01,.8-.39,.78-.83,0-.09-.02-.17-.05-.25l-8.88-23.11c-.16-.42-.62-.63-1.04-.48-.22,.08-.39,.26-.48,.48l-8.81,23.14Z"/>
    <g class="cls-4">
      <path class="cls-2" d="M558.47,476.27c.36,0,.68,.22,.81,.56l4.95,13.07c.12,.33,.43,.55,.78,.56l5.93,.08c.47,0,.86-.38,.86-.85,0-.11-.02-.21-.06-.31l-19.58-51.87c-.12-.33-.43-.55-.78-.56l-10.12-.08c-.36,0-.68,.22-.81,.56l-19.55,51.9c-.15,.45,.09,.94,.53,1.09,.09,.03,.18,.05,.27,.05l5.75,.08c.36,0,.68-.22,.81-.56l5.1-13.12c.12-.33,.43-.55,.78-.56l24.32-.03" vector-effect="non-scaling-stroke"/>
      <path class="cls-2" d="M536.74,468.14c-.17,.41,.03,.88,.45,1.05,.1,.04,.2,.06,.31,.06l17.71-.05c.45-.01,.8-.39,.78-.83,0-.09-.02-.17-.05-.25l-8.88-23.11c-.16-.42-.62-.63-1.04-.48-.22,.08-.39,.26-.48,.48l-8.81,23.14" vector-effect="non-scaling-stroke"/>
    </g>
  </g>
  <path class="cls-2" d="M584.93,448.09l.03,8.02c0,2.74,1.37,4.11,4.11,4.11h24.8c3.92,0,7.09,3.19,7.09,7.11h0l-.05,16.1c0,3.9-3.17,7.06-7.09,7.06h-33.91c-.66,0-.97-.33-.93-.98l.25-5.15c.03-.57,.34-.86,.91-.86l29.12,.03c2.93,0,4.39-1.45,4.39-4.36l.03-7.59c.02-2.94-1.45-4.42-4.39-4.42h-23.99c-4.18,0-7.57-3.39-7.57-7.57,0,0,0-.02,0-.03v-15.11c.01-4.18,3.41-7.57,7.59-7.57h33.43c.4,0,.61,.21,.61,.63l.05,5.68c0,.44-.22,.66-.66,.66h-29.57c-2.83,0-4.24,1.41-4.24,4.24Z"/>
  <path class="cls-2" d="M644.3,443.85h-16.48c-.46,0-.83-.37-.83-.83h0s.03-5.3,.03-5.3c0-.46,.37-.83,.83-.83h41.73c.46,0,.83,.37,.83,.83h0v5.3c0,.46-.37,.83-.83,.83h0l-16.45,.03c-.46,0-.83,.37-.83,.83h0v44.94c0,.46-.37,.83-.83,.83l-5.6,.08c-.46,0-.83-.37-.83-.83l.1-45.04c0-.46-.37-.83-.83-.83Z"/>
  <g>
    <path class="cls-2" d="M682.7,473.57v16.02c0,.62-.3,.93-.91,.91l-5.68-.03c-.44,0-.66-.22-.66-.66l.03-51.65c0-.86,.42-1.29,1.26-1.29h34.21c4.06,0,7.39,3.2,7.57,7.27,.34,7.6,.32,14.53-.05,20.79-.2,3.72-2.25,5.94-6.13,6.66-1.16,.22-1.41,.82-.76,1.79l10.24,15.49c.71,1.08,.41,1.61-.88,1.61h-5.65c-.87,0-1.56-.37-2.04-1.11l-10.55-16.2c-.5-.79-1.23-1.19-2.17-1.19l-16.3,.05c-1.03,0-1.54,.5-1.54,1.51Zm28.6-27.7c0-1.11-.91-2.02-2.02-2.01h0l-24.62,.04c-1.11,0-2.02,.91-2.01,2.02h0l.03,16.9c0,1.11,.91,2.02,2.02,2.01l24.62-.04c1.11,0,2.02-.91,2.01-2.02h0l-.03-16.9Z"/>
    <g class="cls-10">
      <path class="cls-2" d="M684.24,472.06l16.3-.05c.94,0,1.67,.4,2.17,1.19l10.55,16.2c.49,.74,1.17,1.11,2.04,1.11h5.65c1.3,0,1.59-.54,.88-1.61l-10.24-15.49c-.66-.98-.4-1.57,.76-1.79,3.89-.72,5.93-2.94,6.13-6.66,.37-6.26,.39-13.19,.05-20.79-.18-4.07-3.51-7.27-7.57-7.27h-34.21c-.84,0-1.26,.43-1.26,1.29l-.03,51.65c0,.44,.22,.66,.66,.66l5.68,.03c.61,.02,.91-.29,.91-.91v-16.02c0-1.01,.51-1.51,1.54-1.51" vector-effect="non-scaling-stroke"/>
      <path class="cls-2" d="M711.3,445.87c0-1.11-.91-2.02-2.02-2.01h0l-24.62,.04c-1.11,0-2.02,.91-2.01,2.02h0l.03,16.9c0,1.11,.91,2.02,2.02,2.01l24.62-.04c1.11,0,2.02-.91,2.01-2.02h0l-.03-16.9" vector-effect="non-scaling-stroke"/>
    </g>
  </g>
  <g>
    <path class="cls-2" d="M771.69,482.5c0,4.42-3.58,8-8,8h-27.25c-4.42,0-8-3.58-8-8v-37.59c0-4.42,3.58-8,8-8h27.25c4.42,0,8,3.58,8,8v37.59Zm-7.32-34.89c0-2.09-1.7-3.78-3.79-3.78h0l-21.14,.04c-2.09,0-3.78,1.7-3.78,3.79h0l.06,32.09c0,2.09,1.7,3.78,3.79,3.78h0l21.14-.04c2.09,0,3.78-1.7,3.78-3.79l-.06-32.09Z"/>
    <g class="cls-9">
      <path class="cls-2" d="M771.69,444.91c0-4.42-3.58-8-8-8h-27.25c-4.42,0-8,3.58-8,8v37.59c0,4.42,3.58,8,8,8h27.25c4.42,0,8-3.58,8-8v-37.59" vector-effect="non-scaling-stroke"/>
      <path class="cls-2" d="M764.37,447.61c0-2.09-1.7-3.78-3.79-3.78h0l-21.14,.04c-2.09,0-3.78,1.7-3.78,3.79h0l.06,32.09c0,2.09,1.7,3.78,3.79,3.78h0l21.14-.04c2.09,0,3.78-1.7,3.78-3.79l-.06-32.09" vector-effect="non-scaling-stroke"/>
    </g>
  </g>
  <g>
    <path class="cls-2" d="M808.85,473.57v16.17c0,.52-.25,.77-.76,.76l-5.83-.03c-.44,0-.66-.22-.66-.66l.03-51.65c0-.86,.42-1.29,1.26-1.29h34.57c3.83,0,6.99,3.02,7.17,6.86,.27,6.29,.34,13.06,.2,20.31-.08,3.58-2.47,7.17-6.18,7.54-1.3,.12-1.59,.72-.88,1.82l10.29,15.67c.64,.96,.39,1.44-.76,1.44l-5.55-.03c-1.08-.02-1.92-.48-2.52-1.39l-10.39-15.97c-.47-.71-1.26-1.13-2.09-1.14l-16.35,.05c-1.03,0-1.54,.5-1.54,1.51Zm28.6-27.7c0-1.11-.91-2.02-2.02-2.01h0l-24.62,.04c-1.11,0-2.02,.91-2.01,2.02h0l.03,16.9c0,1.11,.91,2.02,2.02,2.01l24.62-.04c1.11,0,2.02-.91,2.01-2.02h0l-.03-16.9Z"/>
    <g class="cls-7">
      <path class="cls-2" d="M810.39,472.06l16.35-.05c.84,0,1.62,.43,2.09,1.14l10.39,15.97c.61,.91,1.45,1.37,2.52,1.39l5.55,.03c1.14,0,1.4-.48,.76-1.44l-10.29-15.67c-.71-1.09-.41-1.7,.88-1.82,3.71-.38,6.11-3.96,6.18-7.54,.13-7.25,.07-14.02-.2-20.31-.18-3.84-3.33-6.87-7.17-6.86h-34.57c-.84,0-1.26,.43-1.26,1.29l-.03,51.65c0,.44,.22,.66,.66,.66l5.83,.03c.5,.02,.76-.24,.76-.76v-16.17c0-1.01,.51-1.51,1.54-1.51" vector-effect="non-scaling-stroke"/>
      <path class="cls-2" d="M837.45,445.87c0-1.11-.91-2.02-2.02-2.01h0l-24.62,.04c-1.11,0-2.02,.91-2.01,2.02h0l.03,16.9c0,1.11,.91,2.02,2.02,2.01l24.62-.04c1.11,0,2.02-.91,2.01-2.02h0l-.03-16.9" vector-effect="non-scaling-stroke"/>
    </g>
  </g>
  <g>
    <path class="cls-2" d="M863.15,476.92l-4.89,12.89c-.14,.38-.5,.63-.91,.63l-5.55,.05c-.54,0-.99-.43-.99-.98,0-.11,.02-.23,.06-.33l19.43-51.65c.14-.38,.5-.63,.91-.63l9.94-.03c.41,0,.79,.25,.93,.63l19.5,51.7c.18,.51-.09,1.07-.6,1.26-.11,.04-.22,.06-.33,.06l-5.55-.05c-.4,0-.76-.25-.91-.63l-5.05-12.94c-.15-.39-.52-.64-.93-.63l-24.12,.03c-.41,0-.79,.25-.93,.63Zm3.43-8.73c-.15,.39,.04,.83,.43,.98,.09,.04,.18,.05,.28,.05h17.86c.42,0,.76-.34,.76-.75,0-.1-.02-.19-.05-.28l-8.93-23.31c-.15-.39-.59-.58-.98-.43-.2,.08-.36,.23-.43,.43l-8.93,23.31Z"/>
    <g class="cls-8">
      <path class="cls-2" d="M863.15,476.92c.15-.39,.52-.64,.93-.63l24.12-.03c.41,0,.79,.25,.93,.63l5.05,12.94c.14,.38,.5,.63,.91,.63l5.55,.05c.54,0,.99-.43,.99-.98,0-.11-.02-.23-.06-.33l-19.5-51.7c-.15-.39-.52-.64-.93-.63l-9.94,.03c-.4,0-.76,.25-.91,.63l-19.43,51.65c-.18,.51,.09,1.07,.6,1.26,.11,.04,.22,.06,.33,.06l5.55-.05c.4,0,.76-.25,.91-.63l4.89-12.89" vector-effect="non-scaling-stroke"/>
      <path class="cls-2" d="M866.58,468.19c-.15,.39,.04,.83,.43,.98,.09,.04,.18,.05,.28,.05h17.86c.42,0,.76-.34,.76-.75,0-.1-.02-.19-.05-.28l-8.93-23.31c-.15-.39-.59-.58-.98-.43-.2,.08-.36,.23-.43,.43l-8.93,23.31" vector-effect="non-scaling-stroke"/>
    </g>
  </g>
  <path class="cls-2" d="M934.85,480v-41.91c0-.81,.4-1.21,1.21-1.21h4.95c.82,0,1.24,.41,1.24,1.24v44.23c0,4.5-3.66,8.15-8.17,8.15h-20.61c-3.75,0-6.81-3.02-6.86-6.79l-.15-10.52c0-.62,.3-.93,.91-.93l5.65,.03c.59,0,.88,.29,.88,.88l.05,6.31c.03,2.71,1.4,4.06,4.11,4.06h13.3c2.35,0,3.52-1.18,3.51-3.53Z"/>
  <g>
    <path class="cls-2" d="M991.47,464.79l1.54,1.24c.69,.54,1.11,1.24,1.26,2.09,1.08,5.9,1.09,11.56,.05,16.95-.62,3.15-3.38,5.42-6.59,5.42h-34.69c-.86,0-1.29-.42-1.29-1.26v-51.04c0-.89,.45-1.34,1.34-1.34,11.25,.02,22.61,.03,34.06,.05,4.36,0,7.49,3.1,7.72,7.44,.28,5.05,1.41,15.11-3.33,18.39-.94,.66-.97,1.34-.08,2.04Zm-32.5-19.93l-.05,14.23c0,.6,.49,1.08,1.08,1.08h0l23.09,.08c2.54,.01,4.6-2.16,4.62-4.84v-6.66c.01-2.69-2.03-4.88-4.57-4.89h0l-23.09-.08c-.6,0-1.08,.49-1.08,1.08Zm0,23.11l.05,14.84c0,.43,.35,.78,.78,.78l23.49-.05c2.44-.01,4.42-2.21,4.42-4.92v-6.56c0-2.72-1.99-4.92-4.44-4.92,0,0-.02,0-.02,0l-23.49,.05c-.43,0-.78,.35-.78,.78Z"/>
    <g class="cls-11">
      <path class="cls-2" d="M991.55,462.75c4.74-3.28,3.61-13.35,3.33-18.39-.23-4.34-3.36-7.44-7.72-7.44-11.45-.02-22.81-.03-34.06-.05-.89,0-1.34,.45-1.34,1.34v51.04c0,.84,.43,1.26,1.29,1.26h34.69c3.21,0,5.97-2.27,6.59-5.42,1.04-5.4,1.03-11.05-.05-16.95-.15-.86-.57-1.56-1.26-2.09l-1.54-1.24c-.89-.71-.87-1.39,.08-2.04" vector-effect="non-scaling-stroke"/>
      <path class="cls-2" d="M958.97,444.86l-.05,14.23c0,.6,.49,1.08,1.08,1.08h0l23.09,.08c2.54,.01,4.6-2.16,4.62-4.84v-6.66c.01-2.69-2.03-4.88-4.57-4.89h0l-23.09-.08c-.6,0-1.08,.49-1.08,1.08" vector-effect="non-scaling-stroke"/>
      <path class="cls-2" d="M958.97,467.97l.05,14.84c0,.43,.35,.78,.78,.78l23.49-.05c2.44-.01,4.42-2.21,4.42-4.92v-6.56c0-2.72-1.99-4.92-4.44-4.92,0,0-.02,0-.02,0l-23.49,.05c-.43,0-.78,.35-.78,.78" vector-effect="non-scaling-stroke"/>
    </g>
  </g>
  <path class="cls-2" d="M1012.51,468.32l.05,14.05c0,.65,.53,1.19,1.19,1.19h30.15c.65,0,1.19,.53,1.19,1.19h0v4.54c0,.65-.53,1.19-1.19,1.19h0l-37.34,.03c-.65,0-1.19-.53-1.19-1.19h0l-.03-51.27c0-.65,.53-1.19,1.19-1.19h0l37.44,.05c.65,0,1.19,.53,1.19,1.19h0l-.05,4.57c0,.65-.53,1.19-1.19,1.19h0l-30.23-.03c-.65,0-1.19,.53-1.19,1.19h0l.03,14.03c0,.65,.53,1.19,1.19,1.19h22.68c.65,0,1.19,.53,1.19,1.19,0,0,0,.02,0,.03l-.13,4.57c-.01,.65-.54,1.16-1.19,1.16l-22.58-.03c-.65,0-1.19,.53-1.19,1.19h0Z"/>
  <g>
    <path class="cls-2" d="M258.23,562.53l-.15,12.49c-.02,.89-.48,1.34-1.39,1.34h-3.76c-1.3-.02-1.94-.66-1.94-1.94v-50.46c0-.86,.42-1.29,1.26-1.29h34.24c4.26,0,7.72,3.46,7.72,7.72v22.96c.01,4.22-3.4,7.66-7.62,7.67,0,0-.02,0-.03,0l-26.85,.05c-.99,0-1.49,.49-1.49,1.46Zm28.54-31.21c0-1.06-.86-1.92-1.92-1.91h0l-24.83,.04c-1.06,0-1.92,.86-1.91,1.92l.04,20.74c0,1.06,.86,1.92,1.92,1.91h0l24.83-.04c1.06,0,1.92-.86,1.91-1.92h0s-.04-20.74-.04-20.74Z"/>
    <g class="cls-15">
      <path class="cls-2" d="M259.72,561.07l26.85-.05c4.22,0,7.64-3.42,7.64-7.64,0,0,0-.02,0-.03v-22.96c0-4.26-3.46-7.72-7.72-7.72h-34.24c-.84,0-1.26,.43-1.26,1.29v50.46c0,1.28,.65,1.93,1.94,1.94h3.76c.91,0,1.37-.45,1.39-1.34l.15-12.49c0-.98,.5-1.46,1.49-1.46" vector-effect="non-scaling-stroke"/>
      <path class="cls-2" d="M286.77,531.32c0-1.06-.86-1.92-1.92-1.91h0l-24.83,.04c-1.06,0-1.92,.86-1.91,1.92l.04,20.74c0,1.06,.86,1.92,1.92,1.91h0l24.83-.04c1.06,0,1.92-.86,1.91-1.92h0s-.04-20.74-.04-20.74" vector-effect="non-scaling-stroke"/>
    </g>
  </g>
  <path class="cls-2" d="M339.09,553.22h-27.05c-.47,0-.86,.38-.86,.86h0s-.13,21.34-.13,21.34c0,.47-.38,.86-.86,.86l-5.37-.08c-.47,0-.86-.38-.86-.86l-.03-51.85c0-.47,.38-.86,.86-.86h0l5.58,.05c.47,0,.86,.38,.86,.86l-.1,21.27c0,.47,.38,.86,.86,.86l27.07,.05c.47,0,.86-.38,.86-.86h0v-21.34c0-.47,.38-.86,.86-.86h5.55c.47,0,.86,.38,.86,.86v51.9c0,.47-.38,.86-.86,.86l-5.58-.03c-.47,0-.86-.38-.86-.86h0l.05-21.32c0-.47-.38-.86-.86-.86h0Z"/>
  <g>
    <path class="cls-2" d="M400.17,568.31c0,4.4-3.57,7.97-7.97,7.97h-27.3c-4.4,0-7.97-3.57-7.97-7.97h0v-37.64c0-4.4,3.57-7.97,7.97-7.97h27.3c4.4,0,7.97,3.57,7.97,7.97v37.64Zm-7.27-34.84c0-2.12-1.72-3.83-3.84-3.83h-21.09c-2.12,0-3.84,1.72-3.84,3.83v31.99c0,2.12,1.72,3.84,3.83,3.84h21.09c2.12,0,3.84-1.72,3.84-3.83h0v-31.99Z"/>
    <g class="cls-17">
      <path class="cls-2" d="M400.17,530.67c0-4.4-3.57-7.97-7.97-7.97h-27.3c-4.4,0-7.97,3.57-7.97,7.97h0v37.64c0,4.4,3.57,7.97,7.97,7.97h27.3c4.4,0,7.97-3.57,7.97-7.97v-37.64" vector-effect="non-scaling-stroke"/>
      <path class="cls-2" d="M392.91,533.47c0-2.12-1.72-3.83-3.84-3.83h-21.09c-2.12,0-3.84,1.72-3.84,3.83v31.99c0,2.12,1.72,3.84,3.83,3.84h21.09c2.12,0,3.84-1.72,3.84-3.83h0v-31.99" vector-effect="non-scaling-stroke"/>
    </g>
  </g>
  <path class="cls-2" d="M431.53,530.59v44.73c0,.54-.44,.98-.98,.98h0l-5.25-.03c-.54,0-.98-.44-.98-.98h0l.05-44.71c0-.54-.44-.98-.98-.98h0l-16.2,.03c-.54,0-.98-.44-.98-.98h0l.08-5c0-.54,.44-.98,.98-.98h41.4c.54,0,.98,.44,.98,.98,0,0,0,.02,0,.03l-.05,5c0,.54-.44,.98-.98,.98,0,0-.02,0-.03,0l-16.07-.05c-.54,0-.98,.44-.98,.98h0Z"/>
  <g>
    <path class="cls-2" d="M497.94,568.31c0,4.4-3.57,7.97-7.97,7.97h-27.3c-4.4,0-7.97-3.57-7.97-7.97h0v-37.64c0-4.4,3.57-7.97,7.97-7.97h27.3c4.4,0,7.97,3.57,7.97,7.97v37.64Zm-7.29-34.89c0-2.09-1.69-3.78-3.78-3.78h-21.14c-2.09,0-3.78,1.69-3.78,3.78v32.09c0,2.09,1.69,3.78,3.78,3.78h21.14c2.09,0,3.78-1.69,3.78-3.78v-32.09Z"/>
    <g class="cls-14">
      <path class="cls-2" d="M497.94,530.67c0-4.4-3.57-7.97-7.97-7.97h-27.3c-4.4,0-7.97,3.57-7.97,7.97h0v37.64c0,4.4,3.57,7.97,7.97,7.97h27.3c4.4,0,7.97-3.57,7.97-7.97v-37.64" vector-effect="non-scaling-stroke"/>
      <path class="cls-2" d="M490.65,533.42c0-2.09-1.69-3.78-3.78-3.78h-21.14c-2.09,0-3.78,1.69-3.78,3.78v32.09c0,2.09,1.69,3.78,3.78,3.78h21.14c2.09,0,3.78-1.69,3.78-3.78v-32.09" vector-effect="non-scaling-stroke"/>
    </g>
  </g>
  <path class="cls-2" d="M541.71,554.68h-9.84c-.62,0-.93-.31-.93-.93v-5.35c.02-.61,.32-.91,.91-.91l17.48,.03c1.09,0,1.63,.54,1.61,1.61l-.03,19.45c-.01,4.25-3.47,7.7-7.72,7.7h-27.93c-4.18,0-7.57-3.4-7.57-7.59h0v-38.43c0-4.16,3.37-7.53,7.54-7.54,8.07-.03,17.15-.07,27.22-.1,6.66-.03,9.31,5.53,8.43,11.66-.07,.45-.33,.68-.78,.68l-5.78,.13c-.34,0-.5-.16-.5-.48-.13-2.52-1.24-4.92-4.11-4.95-7.64-.08-14.86-.05-21.67,.1-1.73,.04-3.1,1.45-3.1,3.18l-.03,33.28c0,1.69,1.37,3.05,3.05,3.05l21.9,.08c2.09,0,3.78-1.68,3.78-3.76v-8.93c.02-1.3-.63-1.95-1.94-1.97Z"/>
  <g>
    <path class="cls-2" d="M597.5,559.15l10.17,15.67c.64,.99,.37,1.48-.81,1.46h-5.17c-1.23,0-2.18-.51-2.85-1.54l-10.32-15.77c-.5-.77-1.22-1.16-2.14-1.16h-16.32c-1.04,0-1.56,.52-1.56,1.56l.08,16.02c0,.59-.29,.88-.88,.88l-5.73-.03c-.42,0-.63-.21-.63-.63v-51.67c0-.86,.42-1.29,1.26-1.29h34.04c4.32,0,7.84,3.49,7.9,7.82,.08,6.63,.08,12.96-.03,19-.07,4.27-2.22,7.02-6.46,8.25-.81,.24-.98,.71-.53,1.41Zm-29.04-28.61l.05,19.28c0,.47,.38,.86,.86,.86l23.67-.08c2.37,0,4.29-1.83,4.29-4.09,0,0,0-.02,0-.02l-.05-12.82c-.01-2.25-1.93-4.06-4.29-4.06l-23.67,.08c-.47,0-.86,.38-.86,.86Z"/>
    <g class="cls-13">
      <path class="cls-2" d="M598.03,557.74c4.24-1.23,6.39-3.98,6.46-8.25,.1-6.04,.11-12.37,.03-19-.06-4.34-3.57-7.82-7.9-7.82h-34.04c-.84,0-1.26,.43-1.26,1.29v51.67c0,.42,.21,.63,.63,.63l5.73,.03c.59,0,.88-.29,.88-.88l-.08-16.02c0-1.04,.52-1.56,1.56-1.56h16.32c.93,0,1.64,.39,2.14,1.16l10.32,15.77c.67,1.03,1.62,1.54,2.85,1.54h5.17c1.18,.02,1.45-.47,.81-1.46l-10.17-15.67c-.45-.71-.28-1.18,.53-1.41" vector-effect="non-scaling-stroke"/>
      <path class="cls-2" d="M568.46,530.54l.05,19.28c0,.47,.38,.86,.86,.86l23.67-.08c2.37,0,4.29-1.83,4.29-4.09,0,0,0-.02,0-.02l-.05-12.82c-.01-2.25-1.93-4.06-4.29-4.06l-23.67,.08c-.47,0-.86,.38-.86,.86" vector-effect="non-scaling-stroke"/>
    </g>
  </g>
  <g>
    <path class="cls-2" d="M647.4,562.08h-24.32c-.35,0-.66,.23-.78,.56l-5.07,13.12c-.13,.34-.46,.57-.83,.56l-5.78-.08c-.47-.01-.85-.4-.84-.88,0-.1,.02-.19,.06-.28l19.55-51.85c.13-.34,.45-.56,.81-.56l10.14,.03c.35,0,.66,.23,.78,.56l19.53,51.92c.17,.44-.06,.94-.5,1.11-.1,.04-.2,.06-.31,.06l-5.93-.13c-.35,0-.66-.23-.78-.56l-4.92-13.02c-.13-.34-.45-.56-.81-.56Zm-21.75-8.07c-.15,.39,.04,.83,.43,.98,.09,.04,.18,.05,.28,.05l17.84-.05c.42,0,.75-.35,.75-.76,0-.08-.02-.17-.04-.25l-8.96-23.31c-.15-.39-.59-.58-.98-.43-.2,.08-.36,.23-.43,.43l-8.88,23.34Z"/>
    <g class="cls-12">
      <path class="cls-2" d="M647.4,562.08c.36,0,.68,.22,.81,.56l4.92,13.02c.12,.33,.43,.55,.78,.56l5.93,.13c.47,0,.86-.38,.86-.85,0-.11-.02-.21-.06-.31l-19.53-51.92c-.12-.33-.43-.55-.78-.56l-10.14-.03c-.36,0-.68,.22-.81,.56l-19.55,51.85c-.17,.44,.06,.94,.5,1.11,.09,.03,.19,.05,.28,.06l5.78,.08c.37,.01,.7-.21,.83-.56l5.07-13.12c.12-.33,.43-.55,.78-.56h24.32" vector-effect="non-scaling-stroke"/>
      <path class="cls-2" d="M625.66,554c-.15,.39,.04,.83,.43,.98,.09,.04,.18,.05,.28,.05l17.84-.05c.42,0,.75-.35,.75-.76,0-.08-.02-.17-.04-.25l-8.96-23.31c-.15-.39-.59-.58-.98-.43-.2,.08-.36,.23-.43,.43l-8.88,23.34" vector-effect="non-scaling-stroke"/>
    </g>
  </g>
  <g>
    <path class="cls-2" d="M673.87,562.86l.03,12.74c0,.4-.2,.61-.61,.63l-5.35,.08c-.86,.02-1.29-.41-1.29-1.29v-51.09c0-.84,.43-1.26,1.29-1.26h34.21c4.26,0,7.72,3.46,7.72,7.72v22.98c0,4.24-3.43,7.67-7.67,7.67h-26.52c-1.21,0-1.82,.61-1.82,1.82Zm28.58-31.26c0-1.23-1-2.22-2.23-2.21l-24.27,.08c-1.23,0-2.22,1-2.21,2.23l.07,20.13c0,1.23,1,2.22,2.23,2.21l24.27-.08c1.23,0,2.22-1,2.21-2.23l-.07-20.13Z"/>
    <g class="cls-16">
      <path class="cls-2" d="M675.69,561.04h26.52c4.24,0,7.67-3.43,7.67-7.67v-22.98c0-4.26-3.46-7.72-7.72-7.72h-34.21c-.86,0-1.29,.42-1.29,1.26v51.09c0,.87,.43,1.3,1.29,1.29l5.35-.08c.4-.02,.61-.23,.61-.63l-.03-12.74c0-1.21,.61-1.82,1.82-1.82" vector-effect="non-scaling-stroke"/>
      <path class="cls-2" d="M702.45,531.6c0-1.23-1-2.22-2.23-2.21l-24.27,.08c-1.23,0-2.22,1-2.21,2.23l.07,20.13c0,1.23,1,2.22,2.23,2.21l24.27-.08c1.23,0,2.22-1,2.21-2.23l-.07-20.13" vector-effect="non-scaling-stroke"/>
    </g>
  </g>
  <path class="cls-2" d="M754.73,553.22l-27.02,.03c-.47,0-.86,.38-.86,.86v21.32c0,.47-.38,.86-.86,.86h-5.5c-.47,0-.86-.38-.86-.86v-51.9c0-.47,.38-.86,.86-.86h5.5c.47,0,.86,.38,.86,.86l-.03,21.27c0,.47,.38,.86,.86,.86l27.05,.08c.47,0,.86-.38,.86-.86h0s-.03-21.34-.03-21.34c0-.47,.38-.86,.86-.86l5.63,.03c.47,0,.86,.38,.86,.86h0s-.08,51.87-.08,51.87c0,.47-.38,.86-.86,.86l-5.5-.05c-.47,0-.86-.38-.86-.86l-.03-21.29c0-.47-.38-.86-.86-.86h0Z"/>
  <path class="cls-2" d="M795.88,552.11l15.9-28.26c.44-.77,1.09-1.16,1.97-1.16l5.05-.05c1.24-.02,1.56,.52,.93,1.61-6.37,11.1-12.72,22.02-19.02,32.75-3.05,5.17-2.27,11.38-2.3,17.13,0,1.58-.79,2.35-2.37,2.3l-2.65-.05c-1.5-.03-2.23-.8-2.2-2.3,.15-5.55,.88-11.83-2.07-16.8-6.76-11.44-13.26-22.63-19.5-33.58-.19-.32-.08-.74,.26-.94,.11-.06,.23-.09,.35-.1h5.3c1.11,0,1.94,.49,2.5,1.46l15.77,27.98c.69,1.24,1.39,1.24,2.09,0Z"/>
</svg>