<?xml version="1.0" encoding="UTF-8"?>
<svg id="Layer_1" data-name="Layer 1" xmlns="http://www.w3.org/2000/svg" xmlns:xlink="http://www.w3.org/1999/xlink" viewBox="0 0 1920.7 553.1">
  <defs>
    <style>
      .cls-1 {
        clip-path: url(#clippath-4);
      }

      .cls-1, .cls-2, .cls-3, .cls-4, .cls-5, .cls-6, .cls-7, .cls-8, .cls-9, .cls-10, .cls-11, .cls-12, .cls-13, .cls-14, .cls-15, .cls-16 {
        fill: none;
      }

      .cls-2 {
        clip-path: url(#clippath-2);
      }

      .cls-17 {
        fill: #fff;
      }

      .cls-3 {
        clip-path: url(#clippath-6);
      }

      .cls-4 {
        clip-path: url(#clippath-9);
      }

      .cls-5 {
        clip-path: url(#clippath-12);
      }

      .cls-6 {
        clip-path: url(#clippath-13);
      }

      .cls-7 {
        clip-path: url(#clippath-7);
      }

      .cls-8 {
        clip-path: url(#clippath-10);
      }

      .cls-9 {
        clip-path: url(#clippath-5);
      }

      .cls-10 {
        clip-path: url(#clippath-3);
      }

      .cls-11 {
        clip-path: url(#clippath-11);
      }

      .cls-13 {
        clip-path: url(#clippath);
      }

      .cls-14 {
        clip-path: url(#clippath-1);
      }

      .cls-15 {
        clip-path: url(#clippath-8);
      }

      .cls-16 {
        clip-path: url(#clippath-14);
      }
    </style>
    <clipPath id="clippath">
      <path class="cls-12" d="m507.72,414.5c0,.7-.6,1.2-1.2,1.2H79.72c-.7,0-1.2-.6-1.2-1.2h0V130.5c0-.7.6-1.2,1.2-1.2h426.8c.7,0,1.2.6,1.2,1.2v284h0Zm-14.5-269.6c0-.6-.5-1-1-1H94.32c-.6,0-1,.5-1,1h0v255.2c0,.6.5,1,1,1h397.8c.6,0,1-.5,1-1l.1-255.2h0Z"/>
    </clipPath>
    <clipPath id="clippath-1">
      <path class="cls-12" d="m716.12,259.9c6.6,5.6,4.4,15.3,4.2,23-.2,6.1-3.4,9.2-9.7,9.4-12.3.2-26.2.3-41.6.1-1.8,0-2.7-.9-2.7-2.7v-61.6c0-1.9.9-2.8,2.8-2.8h42.3c4.7,0,8.6,3.7,8.9,8.4.4,6.3,2.1,19.8-4.1,23.9-1,.6-1.1,1.4-.1,2.3Zm-4.7-22.8c0-1.8-1.4-3.2-3.2-3.2h0l-29.5.2c-1.8,0-3.2,1.4-3.2,3.2h0l.1,14c0,1.8,1.4,3.2,3.2,3.2h0l29.5-.2c1.8,0,3.2-1.4,3.2-3.2h0l-.1-14Zm0,29.4c0-1.8-1.5-3.3-3.3-3.3l-29.4.1c-1.8,0-3.3,1.5-3.3,3.3v13.8c0,1.8,1.5,3.3,3.3,3.3h0l29.4-.1c1.8,0,3.3-1.5,3.3-3.3v-13.8Z"/>
    </clipPath>
    <clipPath id="clippath-2">
      <path class="cls-12" d="m775.62,274.7h-30.1c-.6,0-1.1.4-1.3.9l-6,15.9c-.2.5-.7.9-1.3.9h-6.8c-.8,0-1.4-.6-1.4-1.3,0-.2,0-.4.1-.5l24.2-64.3c.2-.5.7-.9,1.2-.9l12.4-.1c.6,0,1.1.4,1.3.9l24.4,64.5c.3.7-.1,1.5-.8,1.8-.2.1-.4.1-.6.1l-6.8-.2c-.5,0-1-.4-1.2-.9l-6.1-15.9c-.1-.6-.6-.9-1.2-.9Zm-27-10.6c-.3.6,0,1.4.7,1.6.2.1.3.1.5.1h21.7c.7,0,1.2-.5,1.3-1.2,0-.2,0-.3-.1-.5l-10.8-28.2c-.2-.6-1-1-1.6-.7-.3.1-.6.4-.7.7l-11,28.2Z"/>
    </clipPath>
    <clipPath id="clippath-3">
      <path class="cls-12" d="m986.32,274.7h-30.1c-.6,0-1.1.3-1.3.9l-6.1,16c-.2.5-.7.9-1.3.9h-6.7c-.8,0-1.3-.6-1.3-1.4,0-.1,0-.3.1-.4l24.2-64.4c.2-.5.7-.9,1.3-.9h12.3c.6,0,1.1.4,1.3.9l24.4,64.6c.3.7-.1,1.5-.8,1.7-.2.1-.3.1-.5.1l-6.9-.3c-.5,0-1-.4-1.2-.9l-6.1-15.9c-.2-.6-.7-.9-1.3-.9Zm-27-10.6c-.2.6.1,1.4.7,1.6.1,0,.3.1.4.1h21.7c.7,0,1.2-.6,1.2-1.2,0-.1,0-.3-.1-.4l-10.8-28.3c-.2-.6-1-1-1.6-.7-.3.1-.6.4-.7.7l-10.8,28.2Z"/>
    </clipPath>
    <clipPath id="clippath-4">
      <path class="cls-12" d="m1210.72,274.7h-30.2c-.6,0-1.1.4-1.3.9l-6,15.9c-.2.5-.7.9-1.3.9h-6.8c-.8,0-1.4-.6-1.4-1.4,0-.2,0-.3.1-.5l24.3-64.4c.2-.5.7-.9,1.2-.9l12.4-.1c.6,0,1.1.4,1.3.9l24.4,64.5c.3.7-.1,1.5-.8,1.8-.2.1-.4.1-.6.1l-6.8-.2c-.5,0-1-.4-1.2-.9l-6.1-15.9c-.1-.4-.6-.7-1.2-.7Zm-27-10.6c-.3.6,0,1.4.7,1.6.2.1.3.1.5.1h21.7c.7,0,1.2-.5,1.3-1.2,0-.2,0-.3-.1-.5l-10.8-28.2c-.2-.6-1-1-1.6-.7-.3.1-.6.4-.7.7l-11,28.2Z"/>
    </clipPath>
    <clipPath id="clippath-5">
      <path class="cls-12" d="m1366.22,271.1v19.4c0,1.3-.6,1.9-1.9,1.9h-5.6c-1,0-1.7-.8-1.7-1.7h0v-63c0-1.6.8-2.3,2.3-2.3h42.6c5.2,0,9.4,4.2,9.4,9.4h0l-.1,26.5c0,.9-.2,1.8-.7,2.5-1.6,2.6-3.8,4.3-6.7,5.2-1.6.5-1.9,1.4-1,2.7l12.4,18.6c1,1.5.6,2.2-1.2,2.2h-5.8c-1.8,0-3.4-.9-4.4-2.3l-12.4-19c-.8-1.3-2.2-2-3.7-2h-19.5c-1.1-.1-2,.8-2,1.9Zm35.9-15.5v-16.9c0-2.6-2.1-4.7-4.7-4.7h-29.1c-1.2,0-2.2.6-2.2,1.3v23.6c0,.7,1,1.3,2.2,1.3h29.1c2.7.1,4.7-2,4.7-4.6h0Z"/>
    </clipPath>
    <clipPath id="clippath-6">
      <path class="cls-12" d="m1477.22,282.5c0,5.5-4.4,9.9-9.9,9.9h-34.4c-5.5,0-9.9-4.4-9.9-9.9v-47.3c0-5.5,4.4-9.9,9.9-9.9h34.4c5.5,0,9.9,4.4,9.9,9.9v47.3Zm-9.1-44c0-2.5-2-4.5-4.5-4.5h-27c-2.5,0-4.5,2-4.5,4.5l.1,40.6c0,2.5,2,4.5,4.5,4.5h27c2.5,0,4.5-2,4.5-4.5h0l-.1-40.6Z"/>
    </clipPath>
    <clipPath id="clippath-7">
      <path class="cls-12" d="m1524.52,271.1v19.9c0,.9-.5,1.4-1.4,1.4l-6.1.1c-.9,0-1.7-.7-1.7-1.7h0v-63.2c0-1.5.8-2.3,2.3-2.3h42.8c4.8,0,8.8,3.8,8.9,8.7.2,8.5.3,17.1.1,25.7-.1,4.5-2.9,8.2-7.4,9.2-1.6.4-2,1.3-1,2.7l12.4,18.6c1,1.5.6,2.2-1.2,2.2h-6.1c-1.7,0-3-.8-3.9-2.2l-12.4-19.1c-.8-1.3-2.3-2.1-3.8-2.1h-19.5c-1.3.2-2,.8-2,2.1Zm35.8-34.3c0-1.5-1.2-2.7-2.7-2.7h-30.5c-1.5,0-2.7,1.2-2.7,2.7v20.8c0,1.5,1.2,2.7,2.7,2.7h30.5c1.5,0,2.7-1.2,2.7-2.7h0v-20.8Z"/>
    </clipPath>
    <clipPath id="clippath-8">
      <path class="cls-12" d="m1623.22,274.7l-29.5.1c-.8,0-1.5.5-1.7,1.2l-5.8,15.3c-.3.7-1,1.2-1.7,1.2l-5.6-.1c-1,0-1.8-.9-1.8-1.9,0-.2,0-.4.1-.6l23.7-63.4c.3-.7,1-1.2,1.7-1.2l11.7-.1c.8,0,1.5.5,1.7,1.2l24.1,63.6c.4,1-.1,2-1.1,2.4-.2.1-.5.1-.7.1l-5.9-.3c-.7,0-1.4-.5-1.6-1.2l-5.8-15.2c-.4-.6-1.1-1.1-1.8-1.1Zm-26.7-10.6c-.2.6.1,1.4.7,1.6.1,0,.3.1.4.1h21.7c.7,0,1.2-.6,1.2-1.2,0-.1,0-.3-.1-.4l-10.8-28.3c-.2-.6-1-1-1.6-.7-.3.1-.6.4-.7.7l-10.8,28.2Z"/>
    </clipPath>
    <clipPath id="clippath-9">
      <path class="cls-12" d="m1753.52,259.7c6.8,7,3.7,14.5,4.2,23.7.3,5.9-5.4,9-10.6,9h-41.7c-1,0-1.8-.8-1.8-1.8h0v-63c0-1.5.8-2.3,2.3-2.3h42.8c4.7,0,8.6,3.7,8.9,8.4.3,6.1,2,19.6-4,23.7-.9.7-.9,1.5-.1,2.3Zm-4.9-22.6c0-1.8-1.4-3.2-3.2-3.2h0l-29.5.2c-1.8,0-3.2,1.4-3.2,3.2h0l.1,14c0,1.8,1.4,3.2,3.2,3.2h0l29.5-.2c1.8,0,3.2-1.4,3.2-3.2h0l-.1-14Zm.1,29.5c0-1.8-1.5-3.3-3.3-3.3h0l-29.3.1c-1.8,0-3.3,1.5-3.3,3.3v13.8c0,1.8,1.5,3.3,3.3,3.3l29.3-.1c1.8,0,3.3-1.5,3.3-3.3h0v-13.8Z"/>
    </clipPath>
    <clipPath id="clippath-10">
      <path class="cls-12" d="m552.22,387.2l.1,16c0,1.3-.6,1.9-1.9,1.9h-5.9c-1.3,0-2-.7-2-2v-67c0-1.4.7-2.1,2.1-2.1h45.5c5.4,0,9.8,4.4,9.8,9.8v30.2c0,5.9-4.8,10.7-10.7,10.7h-34.6c-1.5,0-2.4.8-2.4,2.5Zm.1-43.3l-.1,30.4c0,.6.5,1.1,1.1,1.1h0l31.9.1c2.8,0,5-2.4,5.1-5.3h0v-21.9c0-2.9-2.2-5.3-5-5.4l-31.9-.1c-.6-.1-1.1.4-1.1,1.1Z"/>
    </clipPath>
    <clipPath id="clippath-11">
      <path class="cls-12" d="m741.82,394.6c0,5.8-4.7,10.5-10.5,10.5h-36.4c-5.8,0-10.5-4.7-10.5-10.5h0v-50.2c0-5.8,4.7-10.5,10.5-10.5h36.4c5.8,0,10.5,4.7,10.5,10.5h0v50.2Zm-9.7-46.8c0-2.6-2.1-4.7-4.7-4.7h-28.7c-2.6,0-4.7,2.1-4.7,4.7h0v43.2c0,2.6,2.1,4.7,4.7,4.7h28.7c2.6,0,4.7-2.1,4.7-4.7h0v-43.2Z"/>
    </clipPath>
    <clipPath id="clippath-12">
      <path class="cls-12" d="m871.02,394.6c0,5.7-4.6,10.4-10.3,10.4h0l-36.7.1c-5.7,0-10.4-4.6-10.4-10.3l-.2-50.4c0-5.7,4.6-10.4,10.3-10.4h0l36.7-.1c5.7,0,10.4,4.6,10.4,10.3l.2,50.4Zm-9.8-46.9c0-2.5-2.1-4.6-4.6-4.6h-28.8c-2.5,0-4.6,2.1-4.6,4.6h0v43.4c0,2.5,2.1,4.6,4.6,4.6h28.8c2.5,0,4.6-2.1,4.6-4.6v-43.4Z"/>
    </clipPath>
    <clipPath id="clippath-13">
      <path class="cls-12" d="m1036.62,387.1l-6.6,17.2c-.2.6-.8.9-1.4.9l-7-.2c-.8,0-1.4-.7-1.3-1.5,0-.2,0-.3.1-.4l25.7-68.1c.2-.5.7-.9,1.3-.9l13.1-.2c.6,0,1.1.4,1.3.9l25.8,68.4c.3.7-.1,1.5-.9,1.8-.2.1-.3.1-.5.1l-7.2-.1c-.6,0-1.1-.3-1.3-.9l-6.4-16.9c-.2-.5-.7-.9-1.3-.9l-32.1-.1c-.6,0-1.1.4-1.3.9Zm4.6-11.8c-.2.6.1,1.3.7,1.6.1.1.3.1.4.1h23.3c.7,0,1.2-.5,1.2-1.2,0-.1,0-.3-.1-.4l-11.7-30.3c-.2-.6-.9-.9-1.6-.7-.3.1-.6.4-.7.7l-11.5,30.2Z"/>
    </clipPath>
    <clipPath id="clippath-14">
      <path class="cls-12" d="m1105.92,387.2v16.4c0,.9-.5,1.3-1.4,1.4l-6.3.2c-1.3.1-2-.6-2-2v-67.1c0-1.4.7-2.1,2.1-2.1h45.5c5.4,0,9.8,4.4,9.8,9.8h0v31.2c0,5.3-4.3,9.7-9.7,9.7h-35.5c-1.7,0-2.5.8-2.5,2.5Zm37.8-41.8c0-1.5-1.2-2.7-2.7-2.7h0l-32.5.1c-1.5,0-2.7,1.2-2.7,2.7h0l.1,27.1c0,1.5,1.2,2.7,2.7,2.7h0l32.5-.1c1.5,0,2.7-1.2,2.7-2.7h0l-.1-27.1Z"/>
    </clipPath>
  </defs>
  <path class="cls-17" d="m972.72,205.3c-.8,2.3-2.3,4.2-3.5,6.3-.6,1-.3,2.2.7,2.8.3.2.7.3,1,.3h1.7c1.4,0,2.4-.6,3.2-1.7l5.9-8.9c2-3,1.2-4.4-2.4-4.2-3.2.2-5.3,2-6.6,5.4" vector-effect="non-scaling-stroke"/>
  <path class="cls-17" d="m587.32,268.1v10.8c0,2.6-2.1,4.8-4.8,4.8h-37.1c-.9,0-1.3.4-1.3,1.3l-.2,5.6c0,1,.8,1.8,1.7,1.9h38.8c7.8,0,11.7-3.9,11.8-11.7v-15.4c0-7.2-3.6-10.8-10.8-10.8l-29.8-.1c-2.9,0-4.4-1.4-4.4-4.3v-11.1c0-3.3,1.7-4.9,5-4.9h36c1.3,0,2.4-1.1,2.4-2.4v-.2l-.3-4.2c-.1-1.3-.9-2-2.2-2h-39.2c-7.2,0-10.8,3.6-10.8,10.8v15.2c0,8,4,12,12,12h28.4c3.1-.1,4.8,1.5,4.8,4.7" vector-effect="non-scaling-stroke"/>
  <path class="cls-17" d="m618.32,264.8c0-.9.7-1.6,1.6-1.6h0l28,.1c.9,0,1.6-.7,1.6-1.6h0v-5.8c0-.9-.7-1.6-1.6-1.6h0l-28,.3c-.9,0-1.6-.7-1.6-1.6h0v-17.3c0-.9.7-1.6,1.6-1.6h37.6c.9,0,1.6-.7,1.6-1.6l.1-5.6c0-.9-.7-1.6-1.6-1.6h-46.9c-.9,0-1.6.7-1.6,1.6l-.1,64c0,.9.7,1.6,1.6,1.6h46.9c.9,0,1.6-.7,1.6-1.6v-5.6c0-.9-.7-1.6-1.6-1.6h-37.6c-.9,0-1.6-.7-1.6-1.6h0v-17.3" vector-effect="non-scaling-stroke"/>
  <path class="cls-17" d="m844.72,277.9c0,3.9-1.9,5.8-5.8,5.8h-35.2c-1.5,0-2.3.7-2.4,2.2l-.3,4.5c-.1,1,.7,2,1.8,2h40.1c7.2,0,10.8-3.6,10.8-10.8v-16.4c0-7.2-3.6-10.8-10.8-10.8h-28.9c-3,0-5.4-2.4-5.4-5.4l.1-10.1c0-3.3,1.6-4.9,4.9-4.9h36.2c1.4,0,2.1-.7,2.1-2.1l-.2-5.6c0-.7-.4-1.1-1.2-1.1h-40.1c-7.4,0-11,3.7-11,11v15.9c0,7.3,3.7,11,11,11h28.3c3.9,0,5.8,1.9,5.8,5.8v9" vector-effect="non-scaling-stroke"/>
  <path class="cls-17" d="m882.42,233.9c.8,0,1.4.6,1.4,1.4l-.2,55.7c0,.8.6,1.4,1.4,1.4h6.7c.8,0,1.4-.6,1.4-1.4l-.1-55.6c0-.8.6-1.4,1.4-1.4h19.7c.7,0,1.3-.6,1.4-1.3l.1-6c0-.8-.6-1.4-1.3-1.4h-51.6c-.8,0-1.4.6-1.4,1.4v6.1c0,.8.6,1.4,1.4,1.4h0l19.7-.3" vector-effect="non-scaling-stroke"/>
  <path class="cls-17" d="m932.02,226.8c0-.8-.7-1.5-1.5-1.5h-6.2c-.8,0-1.5.7-1.5,1.5v64.1c0,.8.7,1.5,1.5,1.5h6.2c.8,0,1.5-.7,1.5-1.5v-64.1" vector-effect="non-scaling-stroke"/>
  <path class="cls-17" d="m1021.62,243.3c9.9,14.3,20.4,29.6,31.5,45.8,2.4,3.6,5.6,4.6,9.6,3.1,1.2-.5,1.8-1.4,1.8-2.7v-63.2c0-.9-.4-1.3-1.3-1.2l-5.7.2c-1.3.1-2,.7-2,2.1v46.8c0,2.3-.7,2.5-2,.6l-32.8-47.7c-.8-1.1-1.9-1.7-3.3-1.7h-5.3c-1.2,0-1.8.6-1.8,1.8v63.6c0,1.1.6,1.7,1.7,1.7h5.6c1.3,0,1.9-.6,1.9-1.9v-46.6c0-2.5.7-2.7,2.1-.7" vector-effect="non-scaling-stroke"/>
  <path class="cls-17" d="m1143.62,283.7h-27.5c-2.9,0-4.4-1.5-4.4-4.4v-40.2c0-3.3,1.7-4.9,5-4.9h27.3c1.3,0,2.4.9,2.5,2.2.6,4.2,3.3,5.8,8.2,4.8,1.1-.3,1.8-1,2-2.1,1-6.6-2.1-13.6-9.6-13.7-12.8,0-24.5,0-35.2.1-5.2,0-9.3,4.2-9.3,9.4v47.9c0,5.4,4.3,9.7,9.7,9.7h0c9.7,0,20.6,0,32.5.2,8.7.1,13.1-5.4,12-13.9-.1-1.1-.9-2-2-2.2-4.7-.9-7.5.7-8.3,4.8-.3,1.5-1.3,2.3-2.9,2.3" vector-effect="non-scaling-stroke"/>
  <path class="cls-17" d="m1279.82,277.9c0,3.9-1.9,5.8-5.8,5.8h-35.2c-1.5,0-2.3.7-2.4,2.2l-.3,4.5c-.1,1,.7,2,1.8,2h40.1c7.2,0,10.8-3.6,10.8-10.8v-16.4c0-7.2-3.6-10.8-10.8-10.8h-29.3c-2.7,0-4.8-2.2-4.9-4.9v-10c0-3.6,1.8-5.4,5.4-5.4h36.2c1.1,0,1.6-.5,1.6-1.6l-.1-5.6c0-1.1-.6-1.6-1.7-1.6h-39.6c-7.4,0-11.1,3.7-11,11v15.9c0,7.3,3.7,11,11,11h28.3c3.9,0,5.8,1.9,5.8,5.8l.1,8.9" vector-effect="non-scaling-stroke"/>
  <path class="cls-17" d="m1317.52,233.9c.8,0,1.4.6,1.4,1.4l-.2,55.7c0,.8.6,1.4,1.4,1.4h6.7c.8,0,1.4-.6,1.4-1.4l-.1-55.6c0-.8.6-1.4,1.4-1.4h19.7c.7,0,1.3-.6,1.4-1.3l.1-6c0-.8-.6-1.4-1.3-1.4h-51.6c-.8,0-1.4.6-1.4,1.4v6.1c0,.8.6,1.4,1.4,1.4l19.7-.3" vector-effect="non-scaling-stroke"/>
  <path class="cls-17" d="m1678.72,283.5l-18.3.2c-2.7,0-4-1.3-4-4v-7.8c0-1.3-1-2.3-2.3-2.4l-4.4-.2c-1.6-.1-2.5.7-2.6,2.3-.4,4.7-.3,9.1.5,13.2.8,4.4,4.6,7.5,9.1,7.5h25.8c5.1,0,9.2-4.2,9.2-9.3v-56.8c0-.6-.5-1-1-1h-6.8c-.8,0-1.1.4-1.1,1.1v53.2c-.1,2.2-1.8,4-4.1,4" vector-effect="non-scaling-stroke"/>
  <path class="cls-17" d="m1779.92,264.8c0-.9.7-1.6,1.6-1.6h0l28,.1c.9,0,1.6-.7,1.6-1.6h0v-5.9c0-.9-.7-1.6-1.6-1.6h0l-28,.3c-.9,0-1.6-.7-1.6-1.6h0v-17.3c0-.9.7-1.6,1.6-1.6h37.6c.9,0,1.6-.7,1.6-1.6v-5.6c0-.9-.7-1.6-1.6-1.6h-46.8c-.9,0-1.6.7-1.6,1.6l-.1,64c0,.9.7,1.6,1.6,1.6h46.8c.9,0,1.6-.7,1.6-1.6h0v-5.6c0-.9-.7-1.6-1.6-1.6h-37.6c-.9,0-1.6-.7-1.6-1.6h0l.1-17.2" vector-effect="non-scaling-stroke"/>
  <path class="cls-17" d="m782.32,344.4c0-.8.6-1.4,1.4-1.4h21.1c.8,0,1.4-.6,1.4-1.4v-6.4c0-.8-.6-1.4-1.4-1.4h-54.8c-.8,0-1.4.6-1.4,1.4h0v6.4c0,.8.6,1.4,1.4,1.4h0l21.3.1c.8,0,1.4.6,1.4,1.4l-.1,59.2c0,.8.6,1.4,1.4,1.4h7c.8,0,1.4-.6,1.4-1.4l-.1-59.3" vector-effect="non-scaling-stroke"/>
  <path class="cls-17" d="m1263.82,372.3l-20.1-35.7c-1-1.7-2.4-2.6-4.4-2.6l-5.6-.1c-1.7-.1-2.1.6-1.2,2.1,8.4,14.7,17,29.6,25.9,44.6,3.7,6.4,2.3,15.5,2.1,22.6,0,1.3.6,2,1.9,2h5.9c1.4,0,2.1-.7,2.1-2.1,0-7.6-1.5-16,2.7-23.1,8.7-14.7,17.2-29.3,25.6-43.8.9-1.6.5-2.3-1.4-2.3l-5.8.1c-1.7,0-2.9.8-3.7,2.2l-20.4,36.1c-1.2,2.1-2.4,2.1-3.6,0" vector-effect="non-scaling-stroke"/>
  <path class="cls-17" d="m661.22,378.1v26c0,.6.3,1,1,1h7.8c.5,0,1-.4,1-.9v-69.1c0-.7-.4-1.1-1.1-1.1h-7.5c-.8,0-1.1.4-1.1,1.1v25.4c0,2.6-1.3,3.9-3.9,3.9h-28.5c-4.7,0-6.7-2.3-6.1-7,.7-5.1.9-12.4.6-22.2,0-.7-.4-1.1-1.2-1.1l-7.4-.1c-.8,0-1.2.3-1.2,1.1v69c0,.6.3,1,1,1l7.3.1c1,0,1.4-.5,1.4-1.4v-25c0-2.8,1.4-4.2,4.2-4.2l30.1-.1c2.3-.1,3.6,1.2,3.6,3.6" vector-effect="non-scaling-stroke"/>
  <path class="cls-17" d="m932.12,378.5v12.2c0,2.7-2.2,4.9-5,4.9h-27.9c-3.4,0-5.1-1.7-5.1-5.1v-42.9c0-2.5,2-4.5,4.5-4.5h0l29.5-.2c1.5,0,2.3.7,2.7,2.1,1.1,4.8,4.1,6.5,9,5.1,1.2-.3,1.9-1.1,2-2.4.7-7.5-3.2-14-11.1-14-12.9.1-25.1.1-36.5.2-5.5,0-9.9,4.5-9.9,9.9v51.4c0,5.4,4.4,9.8,9.8,9.8h36.9c7.1,0,10.7-3.6,10.7-10.7v-23.4c0-2.7-1.3-4-4-4h-21.3c-1.1,0-1.6.5-1.5,1.6l.3,6.5c.1.8.5,1.2,1.2,1.2h13.1c1.9,0,2.7.8,2.6,2.3" vector-effect="non-scaling-stroke"/>
  <path class="cls-17" d="m1213.82,377.7v25.4c0,1.3.7,1.9,2,1.9l6.8-.1c.6,0,.9-.3.9-.9v-69.1c0-.8-.4-1.2-1.2-1.1l-6.7.1c-1.2,0-1.8.6-1.9,1.8-.5,8.8-.3,15.9.5,21.5.7,4.7-1.3,7-6.1,7h-26.8c-4.7,0-6.8-2.3-6.1-7,.7-5,.9-12.2.5-21.8,0-1.1-.6-1.6-1.7-1.6h-6.9c-.8,0-1.1.4-1.1,1.1v69c0,.7.3,1,1,1h6.8c1.2,0,1.9-.6,1.9-1.9v-25c0-2.4,1.2-3.7,3.7-3.7h31c2.3.2,3.4,1.3,3.4,3.4" vector-effect="non-scaling-stroke"/>
  <path class="cls-17" d="m1005.12,379.8c-2.1.2-2.5,1.3-1.4,3l13.1,20c.1.3.2.5.2.8,0,.8-.6,1.4-1.4,1.4h-6.8c-1.5,0-2.9-.7-3.7-2l-13.6-20.8c-.7-1.2-1.8-1.8-3.3-1.8l-21.1.1c-1.4,0-2.1.7-2.1,2.1v20.6c0,1.3-.6,1.9-1.9,1.9h-5.8c-1.3,0-2-.7-2-2v-67.1c0-1.4.7-2.1,2.1-2.1h44.8c5.8,0,10.5,4.6,10.5,10.4v24.9c.1,4.7-2.5,9.9-7.6,10.6m-2.2-33.8c0-1.5-1.2-2.8-2.8-2.8h0l-32.3-.1c-1.5,0-2.8,1.2-2.8,2.8h0l-.1,22.3c0,1.5,1.2,2.8,2.8,2.8h0l32.3.1c1.5,0,2.8-1.2,2.8-2.8h0l.1-22.3"/>
  <g class="cls-13">
    <path class="cls-17" d="m507.72,130.5c0-.7-.6-1.2-1.2-1.2H79.72c-.7,0-1.2.6-1.2,1.2v284c0,.7.6,1.2,1.2,1.2h426.8c.7,0,1.2-.6,1.2-1.2h0V130.5" vector-effect="non-scaling-stroke"/>
    <path class="cls-17" d="m493.22,144.9c0-.6-.5-1-1-1H94.32c-.6,0-1,.5-1,1h0v255.2c0,.6.5,1,1,1h397.8c.6,0,1-.5,1-1l.1-255.2" vector-effect="non-scaling-stroke"/>
  </g>
  <path class="cls-17" d="m972.72,205.3c1.2-3.4,3.4-5.3,6.6-5.5,3.6-.2,4.4,1.2,2.4,4.2l-5.9,8.9c-.8,1.1-1.8,1.7-3.2,1.7h-1.7c-1.1,0-2-.9-2-2.1,0-.4.1-.7.3-1,1.2-1.9,2.8-3.9,3.5-6.2Z"/>
  <path class="cls-17" d="m582.42,263.3h-28.4c-8,0-12-4-12-12v-15.2c0-7.1,3.6-10.7,10.8-10.8h39.2c1.3,0,2.1.7,2.2,2l.3,4.2c.1,1.3-.8,2.5-2.2,2.6h-36.2c-3.3,0-5,1.6-5,4.9v11.1c0,2.9,1.5,4.3,4.4,4.3l29.8.1c7.2,0,10.8,3.6,10.8,10.8v15.4c0,7.8-3.9,11.7-11.8,11.7h-38.8c-1,0-1.8-.8-1.8-1.8h0l.2-5.6c0-.9.5-1.3,1.3-1.3h37.1c2.7,0,4.8-2.1,4.8-4.8h0v-10.8c.2-3.2-1.5-4.8-4.7-4.8Z"/>
  <path class="cls-17" d="m618.32,264.8v17.3c0,.9.7,1.6,1.6,1.6h37.6c.9,0,1.6.7,1.6,1.6h0v5.6c0,.9-.7,1.6-1.6,1.6h-46.9c-.9,0-1.6-.7-1.6-1.6h0l.1-64c0-.9.7-1.6,1.6-1.6h46.9c.9,0,1.6.7,1.6,1.6h0l-.1,5.6c0,.9-.7,1.6-1.6,1.6h-37.6c-.9,0-1.6.7-1.6,1.6h0v17.3c0,.9.7,1.6,1.6,1.6h0l28-.3c.9,0,1.6.7,1.6,1.6h0v5.8c0,.9-.7,1.6-1.6,1.6h0l-28-.1c-.9,0-1.6.7-1.6,1.6h0Z"/>
  <g class="cls-14">
    <path class="cls-17" d="m716.32,257.5c6.3-4.1,4.5-17.6,4.1-23.9-.3-4.7-4.2-8.4-8.9-8.4h-42.3c-1.9,0-2.8.9-2.8,2.8v61.6c0,1.8.9,2.7,2.7,2.7,15.4.2,29.3.1,41.6-.1,6.3-.1,9.5-3.3,9.7-9.4.2-7.8,2.3-17.4-4.2-23-1.1-.8-1-1.6.1-2.3" vector-effect="non-scaling-stroke"/>
    <path class="cls-17" d="m711.42,237.1c0-1.8-1.4-3.2-3.2-3.2h0l-29.5.2c-1.8,0-3.2,1.4-3.2,3.2h0l.1,14c0,1.8,1.4,3.2,3.2,3.2h0l29.5-.2c1.8,0,3.2-1.4,3.2-3.2h0l-.1-14" vector-effect="non-scaling-stroke"/>
    <path class="cls-17" d="m711.42,266.5c0-1.8-1.5-3.3-3.3-3.3l-29.4.1c-1.8,0-3.3,1.5-3.3,3.3v13.8c0,1.8,1.5,3.3,3.3,3.3h0l29.4-.1c1.8,0,3.3-1.5,3.3-3.3v-13.8" vector-effect="non-scaling-stroke"/>
  </g>
  <g class="cls-2">
    <path class="cls-17" d="m775.62,274.7c.6,0,1.1.3,1.3.9l6.1,15.9c.2.5.7.9,1.2.9l6.8.2c.8,0,1.4-.5,1.4-1.3,0-.2,0-.4-.1-.6l-24.3-64.5c-.2-.5-.7-.9-1.3-.9l-12.4.1c-.6,0-1.1.4-1.2.9l-24.2,64.3c-.3.7.1,1.5.8,1.8.2.1.3.1.5.1h6.8c.6,0,1.1-.4,1.3-.9l6-15.9c.2-.5.7-.9,1.3-.9l30-.1" vector-effect="non-scaling-stroke"/>
    <path class="cls-17" d="m748.62,264.1c-.3.6,0,1.4.7,1.6.2.1.3.1.5.1h21.7c.7,0,1.2-.5,1.3-1.2,0-.2,0-.3-.1-.5l-10.8-28.2c-.2-.6-1-1-1.6-.7-.3.1-.6.4-.7.7l-11,28.2" vector-effect="non-scaling-stroke"/>
  </g>
  <path class="cls-17" d="m844.72,277.9v-8.8c0-3.9-1.9-5.8-5.8-5.8h-28.3c-7.3,0-11-3.7-11-11v-15.9c0-7.4,3.7-11,11-11h40.1c.8,0,1.1.4,1.2,1.1l.2,5.6c0,1.4-.7,2.1-2.1,2.1h-36.2c-3.3,0-4.9,1.6-4.9,4.9l-.1,10.1c0,3,2.4,5.4,5.4,5.4h28.8c7.3,0,10.9,3.6,10.8,10.8v16.4c0,7.2-3.6,10.8-10.8,10.8h-40c-1.1,0-1.9-.8-1.9-1.9v-.1l.3-4.5c.1-1.5.9-2.2,2.4-2.2h35.2c3.8-.2,5.7-2.2,5.7-6Z"/>
  <path class="cls-17" d="m882.42,233.9l-19.8.2c-.8,0-1.4-.6-1.4-1.4h0v-6.1c0-.8.6-1.4,1.4-1.4h51.6c.8,0,1.4.6,1.4,1.4h0l-.1,6c0,.7-.6,1.3-1.4,1.3h-19.7c-.8,0-1.4.6-1.4,1.4h0l.1,55.6c0,.8-.6,1.4-1.4,1.4h-6.7c-.8,0-1.4-.6-1.4-1.4l.2-55.7c0-.7-.6-1.3-1.4-1.3Z"/>
  <path class="cls-17" d="m924.32,225.3h6.2c.8,0,1.5.7,1.5,1.5v64.1c0,.8-.7,1.5-1.5,1.5h-6.2c-.8,0-1.5-.7-1.5-1.5v-64.1c0-.9.7-1.5,1.5-1.5Z"/>
  <g class="cls-10">
    <path class="cls-17" d="m986.32,274.7c.6,0,1.1.3,1.3.9l6.1,15.9c.2.5.7.8,1.2.9l6.9.3c.8,0,1.4-.6,1.4-1.3,0-.2,0-.3-.1-.5l-24.4-64.6c-.2-.5-.7-.9-1.3-.9h-12.3c-.6,0-1.1.4-1.3.9l-24.2,64.4c-.3.7.1,1.5.8,1.7.1.1.3.1.4.1h6.7c.6,0,1.1-.4,1.3-.9l6.1-16c.2-.5.7-.9,1.3-.9h30.1" vector-effect="non-scaling-stroke"/>
    <path class="cls-17" d="m959.32,264.1c-.2.6.1,1.4.7,1.6.1,0,.3.1.4.1h21.7c.7,0,1.2-.6,1.2-1.2,0-.1,0-.3-.1-.4l-10.8-28.3c-.2-.6-1-1-1.6-.7-.3.1-.6.4-.7.7l-10.8,28.2" vector-effect="non-scaling-stroke"/>
  </g>
  <path class="cls-17" d="m1019.52,243.9v46.6c0,1.2-.6,1.9-1.9,1.9h-5.6c-1.1,0-1.7-.6-1.7-1.7v-63.6c0-1.2.6-1.8,1.8-1.8h5.3c1.4,0,2.5.6,3.3,1.7l32.8,47.7c1.3,1.9,2,1.7,2-.6v-46.8c0-1.3.7-2,2-2.1l5.7-.2c.9,0,1.3.4,1.3,1.2v63.2c0,1.3-.6,2.2-1.8,2.7-3.9,1.5-7.1.4-9.6-3.1-11.1-16.3-21.6-31.5-31.5-45.8-1.4-1.9-2.1-1.7-2.1.7Z"/>
  <path class="cls-17" d="m1146.52,281.3c.8-4.1,3.6-5.7,8.3-4.8,1.1.2,1.9,1.1,2,2.2,1,8.4-3.3,14-12,13.9-11.9-.2-22.8-.2-32.5-.2-5.4,0-9.7-4.3-9.8-9.7h0v-47.9c0-5.2,4.1-9.4,9.3-9.4,10.7-.1,22.5-.1,35.2-.1,7.5,0,10.6,7.1,9.6,13.7-.2,1.1-.8,1.8-2,2.1-4.9,1.1-7.6-.5-8.2-4.8-.2-1.2-1.2-2.2-2.5-2.2h-27.3c-3.3,0-5,1.6-5,4.9v40.2c0,2.9,1.5,4.4,4.4,4.4h27.5c1.7.1,2.7-.7,3-2.3Z"/>
  <g class="cls-1">
    <path class="cls-17" d="m1210.72,274.7c.6,0,1.1.3,1.3.9l6.1,15.9c.2.5.7.9,1.2.9l6.8.2c.8,0,1.4-.5,1.4-1.3,0-.2,0-.4-.1-.6l-24.4-64.5c-.2-.5-.7-.9-1.3-.9l-12.4.1c-.6,0-1.1.4-1.2.9l-24.3,64.4c-.3.7.1,1.5.8,1.7.2.1.3.1.5.1h6.8c.6,0,1.1-.4,1.3-.9l6-15.9c.2-.5.7-.9,1.3-.9l30.2-.1" vector-effect="non-scaling-stroke"/>
    <path class="cls-17" d="m1183.72,264.1c-.3.6,0,1.4.7,1.6.2.1.3.1.5.1h21.7c.7,0,1.2-.5,1.3-1.2,0-.2,0-.3-.1-.5l-10.8-28.2c-.2-.6-1-1-1.6-.7-.3.1-.6.4-.7.7l-11,28.2" vector-effect="non-scaling-stroke"/>
  </g>
  <path class="cls-17" d="m1317.52,233.9l-19.8.2c-.8,0-1.4-.6-1.4-1.4v-6.1c0-.8.6-1.4,1.4-1.4h51.6c.8,0,1.4.6,1.4,1.4h0l-.1,6c0,.7-.6,1.3-1.4,1.3h-19.7c-.8,0-1.4.6-1.4,1.4l.1,55.6c0,.8-.6,1.4-1.4,1.4h-6.7c-.8,0-1.4-.6-1.4-1.4l.2-55.7c0-.7-.6-1.3-1.4-1.3Z"/>
  <g class="cls-9">
    <path class="cls-17" d="m1368.22,269.1h19.5c1.5,0,2.9.8,3.7,2l12.4,19c1,1.5,2.6,2.4,4.4,2.3h5.8c1.7,0,2.1-.8,1.2-2.2l-12.4-18.6c-.9-1.3-.6-2.3,1-2.7,2.9-.9,5.1-2.6,6.7-5.2.5-.7.7-1.6.7-2.5l.1-26.5c0-5.2-4.2-9.4-9.4-9.4h-42.6c-1.5,0-2.3.8-2.3,2.3v63c0,1,.8,1.7,1.7,1.7h5.6c1.3,0,1.9-.6,1.9-1.9v-19.4c0-1,.9-1.9,2-1.9" vector-effect="non-scaling-stroke"/>
    <path class="cls-17" d="m1402.12,255.6v-16.9c0-2.6-2.1-4.7-4.7-4.7h-29.1c-1.2,0-2.2.6-2.2,1.3v23.6c0,.7,1,1.3,2.2,1.3h29.1c2.7.1,4.7-2,4.7-4.6h0" vector-effect="non-scaling-stroke"/>
  </g>
  <g class="cls-3">
    <path class="cls-17" d="m1477.22,235.2c0-5.5-4.4-9.9-9.9-9.9h-34.4c-5.5,0-9.9,4.4-9.9,9.9v47.3c0,5.5,4.4,9.9,9.9,9.9h34.4c5.5,0,9.9-4.4,9.9-9.9v-47.3" vector-effect="non-scaling-stroke"/>
    <path class="cls-17" d="m1468.12,238.5c0-2.5-2-4.5-4.5-4.5h-27c-2.5,0-4.5,2-4.5,4.5l.1,40.6c0,2.5,2,4.5,4.5,4.5h27c2.5,0,4.5-2,4.5-4.5h0l-.1-40.6" vector-effect="non-scaling-stroke"/>
  </g>
  <g class="cls-7">
    <path class="cls-17" d="m1526.52,269.2h19.5c1.5,0,3,.8,3.8,2.1l12.4,19.1c.9,1.4,2.2,2.1,3.9,2.2h6.1c1.8,0,2.2-.7,1.2-2.2l-12.4-18.6c-.9-1.4-.6-2.3,1-2.7,4.5-1,7.3-4.7,7.4-9.2.2-8.7.1-17.2-.1-25.7-.1-4.8-4.1-8.7-8.9-8.7h-42.8c-1.5,0-2.3.8-2.3,2.3v63.2c0,.9.7,1.7,1.7,1.7h0l6.1-.1c.9,0,1.4-.5,1.4-1.4v-19.9c0-1.5.7-2.1,2-2.1" vector-effect="non-scaling-stroke"/>
    <path class="cls-17" d="m1560.32,236.8c0-1.5-1.2-2.7-2.7-2.7h-30.5c-1.5,0-2.7,1.2-2.7,2.7v20.8c0,1.5,1.2,2.7,2.7,2.7h30.5c1.5,0,2.7-1.2,2.7-2.7h0v-20.8" vector-effect="non-scaling-stroke"/>
  </g>
  <g class="cls-15">
    <path class="cls-17" d="m1623.22,274.7c.8,0,1.5.5,1.7,1.2l5.8,15.2c.3.7.9,1.2,1.6,1.2l5.9.3c1,0,1.9-.8,1.9-1.8,0-.3,0-.5-.1-.7l-24.1-63.6c-.3-.7-1-1.2-1.7-1.2l-11.7.1c-.8,0-1.5.5-1.7,1.2l-23.7,63.4c-.4,1,.1,2,1.1,2.4.2.1.4.1.6.1l5.6.1c.8,0,1.5-.5,1.7-1.2l5.8-15.3c.3-.7,1-1.2,1.7-1.2l29.6-.2" vector-effect="non-scaling-stroke"/>
    <path class="cls-17" d="m1596.52,264.1c-.2.6.1,1.4.7,1.6.1,0,.3.1.4.1h21.7c.7,0,1.2-.6,1.2-1.2,0-.1,0-.3-.1-.4l-10.8-28.3c-.2-.6-1-1-1.6-.7-.3.1-.6.4-.7.7l-10.8,28.2" vector-effect="non-scaling-stroke"/>
  </g>
  <path class="cls-17" d="m1678.72,283.5c2.2,0,4-1.8,4-4v-53.1c0-.7.4-1.1,1.1-1.1h6.8c.6,0,1,.5,1,1v56.8c0,5.1-4.1,9.3-9.2,9.3h-25.8c-4.5,0-8.3-3.2-9.1-7.5-.8-4.1-.9-8.5-.5-13.2.1-1.6,1-2.4,2.6-2.3l4.4.2c1.3,0,2.3,1.1,2.3,2.4v7.8c0,2.7,1.3,4,4,4l18.4-.3Z"/>
  <g class="cls-4">
    <path class="cls-17" d="m1753.72,257.4c6-4.1,4.4-17.6,4-23.7-.3-4.7-4.2-8.4-8.9-8.4h-42.8c-1.6,0-2.3.8-2.3,2.3v63c0,1,.8,1.8,1.8,1.8h0c14.4.1,28.3.1,41.7,0,5.2,0,10.9-3.1,10.6-9-.5-9.2,2.7-16.7-4.2-23.7-.9-.8-.9-1.6.1-2.3" vector-effect="non-scaling-stroke"/>
    <path class="cls-17" d="m1748.62,237.1c0-1.8-1.4-3.2-3.2-3.2h0l-29.5.2c-1.8,0-3.2,1.4-3.2,3.2h0l.1,14c0,1.8,1.4,3.2,3.2,3.2h0l29.5-.2c1.8,0,3.2-1.4,3.2-3.2h0l-.1-14" vector-effect="non-scaling-stroke"/>
    <path class="cls-17" d="m1748.72,266.6c0-1.8-1.5-3.3-3.3-3.3h0l-29.3.1c-1.8,0-3.3,1.5-3.3,3.3v13.8c0,1.8,1.5,3.3,3.3,3.3l29.3-.1c1.8,0,3.3-1.5,3.3-3.3h0v-13.8" vector-effect="non-scaling-stroke"/>
  </g>
  <path class="cls-17" d="m1779.92,264.8v17.3c0,.9.7,1.6,1.6,1.6h37.6c.9,0,1.6.7,1.6,1.6h0v5.6c0,.9-.7,1.6-1.6,1.6h-46.8c-.9,0-1.6-.7-1.6-1.6h0l.1-64c0-.9.7-1.6,1.6-1.6h46.8c.9,0,1.6.7,1.6,1.6h0v5.6c0,.9-.7,1.6-1.6,1.6h-37.6c-.9,0-1.6.7-1.6,1.6h0v17.3c0,.9.7,1.6,1.6,1.6h0l28-.3c.9,0,1.6.7,1.6,1.6h0v5.9c0,.9-.7,1.6-1.6,1.6h0l-28-.1c-1-.1-1.7.6-1.7,1.5h0Z"/>
  <path class="cls-17" d="m782.32,344.4v59.3c0,.8-.6,1.4-1.4,1.4h-7c-.8,0-1.4-.6-1.4-1.4l.1-59.2c0-.8-.6-1.4-1.4-1.4l-21.3-.1c-.8,0-1.4-.6-1.4-1.4h0v-6.4c0-.8.6-1.4,1.4-1.4h54.7c.8,0,1.4.6,1.4,1.4h0v6.4c0,.8-.6,1.4-1.4,1.4h-21.1c-.6.1-1.2.7-1.2,1.4h0Z"/>
  <path class="cls-17" d="m1267.42,372.3l20.4-36.1c.8-1.5,2-2.2,3.7-2.2l5.8-.1c1.8-.1,2.3.7,1.4,2.3-8.3,14.5-16.8,29.1-25.6,43.8-4.2,7.1-2.7,15.5-2.7,23.1,0,1.4-.7,2.1-2.1,2.1h-5.9c-1.3,0-1.9-.7-1.9-2,.1-7.1,1.6-16.2-2.1-22.6-8.8-15-17.5-29.8-25.9-44.6-.8-1.4-.4-2.1,1.2-2.1l5.6.1c2,0,3.4.9,4.4,2.6l20.1,35.7c1.2,2.1,2.4,2.1,3.6,0Z"/>
  <g class="cls-8">
    <path class="cls-17" d="m554.72,384.7h34.6c5.9,0,10.7-4.8,10.7-10.7h0v-30.2c0-5.4-4.4-9.8-9.8-9.8h-45.5c-1.4,0-2.1.7-2.1,2.1v67c0,1.3.7,2,2,2h5.9c1.3,0,1.9-.6,1.9-1.9l-.1-16c-.1-1.7.8-2.5,2.4-2.5" vector-effect="non-scaling-stroke"/>
    <path class="cls-17" d="m552.32,343.9l-.1,30.4c0,.6.5,1.1,1.1,1.1h0l31.9.1c2.8,0,5-2.4,5.1-5.3h0v-21.9c0-2.9-2.2-5.3-5-5.4l-31.9-.1c-.6-.1-1.1.4-1.1,1.1" vector-effect="non-scaling-stroke"/>
  </g>
  <path class="cls-17" d="m661.22,378.1c0-2.4-1.2-3.7-3.7-3.7l-30.1.1c-2.8,0-4.2,1.4-4.2,4.2v25c0,.9-.5,1.4-1.4,1.4l-7.3-.1c-.6,0-1-.3-1-1v-69c0-.8.4-1.2,1.2-1.1l7.4.1c.8,0,1.1.4,1.2,1.1.3,9.7.1,17.1-.6,22.2-.6,4.7,1.4,7,6.1,7h28.5c2.6,0,3.9-1.3,3.9-3.9v-25.4c0-.7.4-1.1,1.1-1.1h7.5c.7,0,1.1.4,1.1,1.1v69.1c0,.5-.4.9-1,.9h-7.8c-.6,0-1-.3-1-1l.1-25.9h0Z"/>
  <g class="cls-11">
    <path class="cls-17" d="m741.82,344.4c0-5.8-4.7-10.5-10.5-10.5h-36.4c-5.8,0-10.5,4.7-10.5,10.5h0v50.2c0,5.8,4.7,10.5,10.5,10.5h36.4c5.8,0,10.5-4.7,10.5-10.5h0v-50.2" vector-effect="non-scaling-stroke"/>
    <path class="cls-17" d="m732.12,347.8c0-2.6-2.1-4.7-4.7-4.7h-28.7c-2.6,0-4.7,2.1-4.7,4.7h0v43.2c0,2.6,2.1,4.7,4.7,4.7h28.7c2.6,0,4.7-2.1,4.7-4.7h0v-43.2" vector-effect="non-scaling-stroke"/>
  </g>
  <g class="cls-5">
    <path class="cls-17" d="m870.92,344.2c0-5.7-4.7-10.4-10.4-10.3l-36.7.1c-5.7,0-10.4,4.7-10.3,10.4h0l.2,50.4c0,5.7,4.7,10.4,10.4,10.3l36.7-.1c5.7,0,10.4-4.7,10.3-10.4h0l-.2-50.4" vector-effect="non-scaling-stroke"/>
    <path class="cls-17" d="m861.22,347.7c0-2.5-2.1-4.6-4.6-4.6h-28.8c-2.5,0-4.6,2.1-4.6,4.6h0v43.4c0,2.5,2.1,4.6,4.6,4.6h28.8c2.5,0,4.6-2.1,4.6-4.6v-43.4" vector-effect="non-scaling-stroke"/>
  </g>
  <path class="cls-17" d="m929.92,376.2h-13.1c-.8,0-1.2-.4-1.2-1.2l-.3-6.5c-.1-1,.4-1.6,1.5-1.6h21.3c2.6,0,4,1.3,4,4v23.4c0,7.1-3.6,10.7-10.7,10.7h-36.9c-5.4,0-9.8-4.4-9.8-9.8h0v-51.4c0-5.5,4.4-9.9,9.9-9.9,11.4,0,23.6-.1,36.5-.2,7.9,0,11.8,6.4,11.1,14-.1,1.3-.8,2.1-2,2.4-4.9,1.4-7.9-.3-9-5.1-.3-1.4-1.2-2.1-2.7-2.1l-29.5.2c-2.5,0-4.5,2-4.5,4.5h0v42.9c0,3.4,1.7,5.1,5.1,5.1h27.9c2.7,0,5-2.2,5-4.9v-12.2c-.3-1.5-1.1-2.3-2.6-2.3Z"/>
  <g class="cls-6">
    <path class="cls-17" d="m1036.62,387.1c.2-.5.7-.9,1.3-.9l32.1.1c.6,0,1.1.3,1.3.9l6.4,16.9c.2.5.7.9,1.3.9l7.2.1c.8,0,1.4-.6,1.4-1.4,0-.2,0-.3-.1-.5l-25.8-68.4c-.2-.6-.7-.9-1.3-.9l-13.1.2c-.6,0-1.1.3-1.3.9l-25.7,68.1c-.3.7.1,1.5.8,1.8.1.1.3.1.4.1l7,.2c.6,0,1.1-.3,1.4-.9l6.7-17.2" vector-effect="non-scaling-stroke"/>
    <path class="cls-17" d="m1041.22,375.3c-.2.6.1,1.3.7,1.6.1.1.3.1.4.1h23.3c.7,0,1.2-.5,1.2-1.2,0-.1,0-.3-.1-.4l-11.7-30.3c-.2-.6-.9-.9-1.6-.7-.3.1-.6.4-.7.7l-11.5,30.2" vector-effect="non-scaling-stroke"/>
  </g>
  <g class="cls-16">
    <path class="cls-17" d="m1108.42,384.7h35.5c5.4,0,9.7-4.3,9.7-9.7v-31.2c0-5.4-4.4-9.8-9.8-9.8h-45.5c-1.4,0-2.1.7-2.1,2.1v67.1c0,1.4.7,2,2,2l6.3-.2c.9,0,1.4-.5,1.4-1.4v-16.4c0-1.7.8-2.5,2.5-2.5" vector-effect="non-scaling-stroke"/>
    <path class="cls-17" d="m1143.72,345.4c0-1.5-1.2-2.7-2.7-2.7h0l-32.5.1c-1.5,0-2.7,1.2-2.7,2.7h0l.1,27.1c0,1.5,1.2,2.7,2.7,2.7h0l32.5-.1c1.5,0,2.7-1.2,2.7-2.7h0l-.1-27.1" vector-effect="non-scaling-stroke"/>
  </g>
  <path class="cls-17" d="m1213.82,377.7c0-2.2-1.1-3.3-3.2-3.3h-31c-2.5,0-3.7,1.2-3.7,3.7v25c0,1.3-.6,1.9-1.9,1.9h-6.8c-.7,0-1-.3-1-1v-69c0-.8.4-1.1,1.1-1.1h6.9c1.1,0,1.6.6,1.7,1.6.4,9.5.2,16.8-.5,21.8-.7,4.7,1.4,7,6.1,7h26.8c4.7,0,6.7-2.3,6.1-7-.8-5.6-1-12.8-.5-21.5.1-1.2.7-1.8,1.9-1.8l6.7-.1c.8,0,1.2.3,1.2,1.1v69.1c0,.6-.3.9-.9.9l-6.8.1c-1.3,0-2-.6-2-1.9l-.2-25.5Z"/>
</svg>