<?xml version="1.0" encoding="UTF-8"?>
<svg id="Layer_1" data-name="Layer 1" xmlns="http://www.w3.org/2000/svg" viewBox="0 0 918.5 353">
  <defs>
    <style>
      .cls-1 {
        fill: #030303;
      }

      .cls-2 {
        fill: #020202;
      }

      .cls-3 {
        fill: #0c0c0c;
      }

      .cls-4 {
        fill: #090909;
      }

      .cls-5 {
        fill: #080808;
      }

      .cls-6 {
        fill: #0a0a0a;
      }
    </style>
  </defs>
  <g id="The_Grip" data-name="The Grip">
    <g>
      <path class="cls-2" d="M148.26,78c2.09-2.25,3.98-4.27,6.09-6.07,9.13-7.82,19.71-11.68,31.72-11.76,6.93-.04,13.73,.64,20.31,2.93,11.44,3.99,19.1,11.87,23.61,22.97,3.05,7.49,4.33,15.35,4.83,23.37,.13,2.13,.2,4.27,.2,6.41,.01,29.97,0,59.93,0,89.9,0,.56-.03,1.12,.01,1.67,.08,1.08-.41,1.55-1.47,1.5-.19,0-.37,0-.56,0-11.73,0-23.45,.01-35.18,0-1.99,0-2.02-.06-2.02-2.33,0-10.05,0-20.1,0-30.15,0-20.19,0-40.39,.01-60.58,0-3.09-.27-6.14-1.02-9.13-1.85-7.43-6.26-12.29-13.98-13.83-7.28-1.45-14.42-1.26-21.33,1.7-4.58,1.97-8.09,5.21-10.82,9.35-.53,.81-.87,1.62-.78,2.6,.04,.46,0,.93,0,1.4,0,32.57,0,65.14,0,97.71,0,.37,0,.74,0,1.12-.04,2.1-.05,2.13-2.17,2.14-11.54,.01-23.08,.01-34.62,0-2.32,0-2.33-.04-2.36-2.29,0-.65,0-1.3,0-1.95,0-66.54,0-133.08,0-199.61,0-3.78-.33-3.5,3.41-3.5,10.89,0,21.78,0,32.66,0,3.19,0,3.08-.55,3.08,3.19,0,23.36,0,46.72,0,70.07,0,.9-.2,1.83,.33,3.17Z"/>
      <path class="cls-2" d="M362.34,163.75c6.22,6.98,12.18,13.74,18.25,20.39,1.15,1.26,.43,1.94-.23,2.82-4.73,6.25-10.59,11.19-17.37,15.08-9.85,5.66-20.52,8.59-31.79,9.43-12.29,.92-24.42-.15-35.91-4.74-24.24-9.67-38.43-27.61-42.3-53.4-2.04-13.62-1.71-27.28,1.57-40.72,4.02-16.5,12.05-30.54,26.13-40.58,9.94-7.08,21.12-10.8,33.25-11.64,8.58-.59,17.1-.17,25.46,2.02,19.45,5.11,32.45,17.37,39.65,35.95,3.77,9.73,5.26,19.91,5.43,30.3,.09,5.77,.02,11.54,.02,17.31,0,2.76-.01,2.77-2.72,2.77-18.05,0-36.1,0-54.15,0-11.26,0-22.52,0-33.78,0-2.05,0-2.22,.16-1.88,1.99,1.84,9.83,6.44,17.97,14.85,23.66,4.96,3.36,10.51,5.09,16.47,5.49,10.38,.7,20.19-1.02,29.01-6.89,2.96-1.97,5.63-4.27,7.95-6.97,.6-.7,1.24-1.36,2.08-2.29Zm-43.24-41.86c.74,0,1.49,0,2.23,0,7.53,0,15.06,.01,22.58,0,2.19,0,2.18-.05,2.24-2.14,.08-2.43-.25-4.84-.67-7.2-1.6-9.02-6.04-15.91-15-19.16-4.34-1.58-8.91-1.94-13.47-1.49-5.71,.56-10.74,2.74-14.86,6.87-5.61,5.65-8.21,12.7-9.59,20.32-.51,2.78-.45,2.81,2.27,2.81,8.09,0,16.17,0,24.26,0Z"/>
      <path class="cls-2" d="M63.05,129.11c0,11.35-.02,22.71,.02,34.06,.01,2.97,.24,5.93,1.12,8.82,1.25,4.12,4.15,6.19,8.24,6.94,5.01,.91,10,.35,14.99-.09,2.16-.19,2.2-.21,2.2,1.89,.02,8.47-.03,16.94,.04,25.41,.01,1.6-.52,2.26-2.08,2.67-11.77,3.09-23.62,4.1-35.6,1.45-14.25-3.15-23.11-12.26-26.39-26.35-1.25-5.38-1.64-10.83-1.63-16.33,.03-24.2,.01-48.4,.01-72.6,0-.19,0-.37,0-.56-.02-2.74,.44-2.73-2.69-2.72-5.49,0-10.98,.02-16.47,0-2.12,0-2.15-.05-2.15-2.17-.01-8.19-.02-16.38,0-24.57,0-2.16,.04-2.2,2.15-2.21,5.58-.02,11.17,0,16.75-.01,2.39,0,2.41-.03,2.41-2.5,0-18.43,0-36.86,0-55.29,0-.65,.02-1.3,0-1.95-.04-1.09,.51-1.47,1.55-1.44,1.77,.04,3.54,.01,5.3,.01,9.77,0,19.54,0,29.32,0,2.78,0,2.93-.45,2.92,2.84-.02,18.43-.01,36.86,0,55.29,0,2.99-.47,3.07,2.99,3.06,6.51-.02,13.03-.01,19.54,0,2.5,0,2.53,.03,2.53,2.39,.01,8.1,.01,16.19,0,24.29,0,2.24-.03,2.27-2.32,2.28-6.51,.02-13.03,0-19.54,0-3.76,0-3.19-.15-3.2,3.07-.01,11.45,0,22.9,0,34.34Z"/>
    </g>
    <g>
      <g>
        <path class="cls-2" d="M541.8,193.93c-5.1,5.44-11.13,9.6-18.31,11.73-21.53,6.38-46.05,1.13-61.37-21.29-6.85-10.03-10.72-21.14-12.54-33.07-1.76-11.57-1.87-23.17-.52-34.75,1.64-14.07,5.9-27.21,14.55-38.68,10.52-13.94,24.62-20.82,41.95-21.3,8.27-.23,16.32,.91,23.93,4.41,4.96,2.28,9.3,5.4,13.02,9.4,.55,.59,.97,1.4,1.87,1.57,.84-.32,.58-1.07,.65-1.67,.34-2.86,.65-5.73,.98-8.59,.26-2.27,.27-2.3,2.51-2.31,7.26-.02,14.52,0,21.78,0,3.26,0,6.51,.04,9.77-.02,1.3-.02,1.94,.39,1.79,1.75-.05,.46,0,.93,0,1.4,0,46.25,.03,92.5-.02,138.76-.01,14.28-3.81,27.36-12.92,38.63-6.47,8.01-14.72,13.55-24.23,17.31-8.91,3.53-18.2,5.04-27.74,5.59-13.36,.77-26.09-1.56-38.29-6.97-7.55-3.35-14.45-7.66-19.96-13.95q-1.68-1.92-.24-3.91c4.87-6.7,9.73-13.4,14.61-20.09,1.36-1.87,1.43-1.9,3-.25,5.3,5.53,11.4,9.82,18.7,12.27,9.05,3.05,18.26,3.53,27.43,.79,11.99-3.58,18.36-12.03,19.98-24.25,.5-3.79,.35-7.61,.33-11.43,0-.34,.07-.76-.72-1.07Zm.73-61.43c0-9.49,0-18.99,0-28.48,0-1.21,0-2.36-.76-3.46-2.03-2.94-4.36-5.55-7.38-7.51-5.87-3.81-12.37-4.92-19.21-4.48-7.45,.48-13.56,3.62-18.27,9.43-4.14,5.1-6.38,11.06-7.73,17.41-1.87,8.81-2.12,17.72-1.42,26.65,.48,6.14,1.79,12.15,4.48,17.75,3.51,7.31,8.57,13.02,16.62,15.51,3.43,1.06,6.94,1.32,10.48,1.13,8.77-.48,16.29-3.48,21.64-10.85,1.09-1.5,1.6-3.02,1.58-4.9-.07-9.4-.03-18.8-.03-28.2Z"/>
        <path class="cls-2" d="M824.82,193.05c0,1.62,0,2.53,0,3.45,0,20.66,0,41.31,0,61.97,0,.47-.04,.94,0,1.39,.15,1.31-.33,1.85-1.71,1.78-2.04-.1-4.09-.03-6.14-.03-9.58,0-19.17,0-28.75,0-2.55,0-2.56-.02-2.56-2.6,0-65.69,0-131.38,0-197.07,0-2.56,.02-2.57,2.62-2.58,10.42,0,20.84,0,31.26,0,2.38,0,2.4,.02,2.66,2.4,.39,3.58,.73,7.16,1.13,11.11,1.86-1.14,2.87-2.72,4.16-3.94,8.59-8.11,18.9-11.96,30.56-12.37,9.52-.34,18.71,1.15,27.31,5.51,9,4.56,15.65,11.54,20.7,20.14,5.36,9.11,8.28,19.04,9.79,29.44,1.77,12.21,1.96,24.46,.61,36.7-1.7,15.33-6.3,29.59-16.31,41.69-9.65,11.66-22.12,17.5-37.18,18.01-8.97,.3-17.6-1-25.64-5.24-4.55-2.4-8.46-5.61-12.51-9.78Zm0-60.74c0,9.21,0,18.42,0,27.63,0,1.1-.06,2.16,.55,3.23,1.98,3.44,4.42,6.44,7.74,8.65,6.61,4.41,13.97,5.34,21.65,4.31,7.08-.95,12.38-4.73,16.14-10.75,2.75-4.39,4.33-9.23,5.35-14.26,1.97-9.64,2.2-19.38,1.45-29.14-.43-5.57-1.53-11.04-3.66-16.26-2.72-6.66-6.75-12.17-13.56-15.19-4.65-2.07-9.54-2.38-14.49-1.89-8.38,.83-15.36,4.16-19.93,11.61-.85,1.38-1.3,2.77-1.28,4.44,.07,9.21,.03,18.42,.03,27.63Z"/>
        <path class="cls-1" d="M649.65,75.72c1.25-.78,1.57-1.79,2.13-2.59,5.27-7.58,11.98-13.18,21.11-15.46,6.34-1.58,12.71-1.5,19.06,.02,2.33,.56,2.36,.59,2.34,2.87-.1,11.16-.22,22.31-.35,33.47-.02,1.97-.07,2.01-2.12,1.76-6.1-.75-12.22-1.19-18.36-.49-6.99,.8-13.44,2.91-18.41,8.26-.82,.88-1.58,1.83-2.27,2.82-1.31,1.85-1.93,3.83-1.93,6.21,.08,29.96,.05,59.92,.05,89.87,0,.56-.02,1.12,0,1.67,.04,1.1-.55,1.45-1.56,1.43-1.86-.03-3.72-.01-5.58-.01-9.58,0-19.17,0-28.75,0-.56,0-1.12-.02-1.67,0-1.13,.06-1.79-.34-1.7-1.59,.04-.56,0-1.12,0-1.67,0-46.61,0-93.22,0-139.84,0-2.98-.54-3.11,2.94-3.1,10.42,.02,20.84,0,31.26,0,.28,0,.56,0,.84,0,1.98,.07,2.03,.11,2.14,2.05,.27,4.63,.53,9.26,.82,14.29Z"/>
        <path class="cls-1" d="M714.42,132.53c0-23.35,0-46.69,0-70.04,0-3.55-.23-3.11,3.16-3.11,10.98,0,21.95,0,32.93,0,.65,0,1.3,.01,1.95,0,.88,0,1.41,.34,1.39,1.3-.01,.56,0,1.12,0,1.67,0,46.69,0,93.39,0,140.08,0,.56-.02,1.12,0,1.67,.04,1.09-.53,1.5-1.54,1.46-.46-.02-.93,0-1.4,0-11.25,0-22.51,0-33.76,0-2.46,0-2.74,.57-2.73-2.72,.01-21.95,0-43.9,0-65.85,0-1.49,0-2.98,0-4.46Z"/>
      </g>
      <path class="cls-1" d="M733.6,1.31c6.33,.09,11.79,1.36,16.18,5.47,6.3,5.9,7.68,13.28,5.32,21.24-2.38,8.03-8.37,12.28-16.46,13.55-4.14,.66-8.33,.49-12.41-.69-8.44-2.43-13.81-9.87-14.12-18.65-.29-8.22,4.22-16.83,13.72-19.73,1.33-.41,2.71-.68,4.08-.88,1.37-.2,2.77-.24,3.68-.31Z"/>
    </g>
    <g>
      <path class="cls-4" d="M804.06,329.94c.77-.76,.35-1.72,.36-2.58,.03-7.69,0-15.38,.02-23.07,.01-2.76,.06-2.79,2.89-2.82,2.39-.03,4.77,.02,7.16-.01,1.32-.02,1.98,.52,1.91,1.89-.04,.66-.01,1.33-.01,1.99,0,13.79,0,27.58,0,41.37,0,.8,0,1.59,0,2.39,0,1.33-.67,1.88-1.98,1.87-2.78-.03-5.57-.04-8.35,.02-1.85,.03-2.42-1.34-3.14-2.6-4.46-7.83-8.92-15.65-13.38-23.47-.45-.79-.93-1.56-1.39-2.32-1.48,.43-.9,1.53-.9,2.33-.03,7.69,.02,15.38-.01,23.07-.01,2.88-.07,2.91-2.84,2.97-2.25,.05-4.51-.06-6.76,.03-1.95,.08-2.55-.81-2.49-2.63,.09-2.65,.03-5.3,.03-7.96,0-11.93-.01-23.87,0-35.8,0-3.04,.04-3.09,3.06-3.1,2.9,0,6.15-.68,8.62,.39,2.55,1.11,3.21,4.67,4.67,7.16,3.74,6.4,7.34,12.89,11.03,19.33,.35,.61,.39,1.59,1.51,1.58Z"/>
      <path class="cls-4" d="M689.31,350.95c-3.67,0-7.22-.04-10.77,.02-1.58,.03-2.33-.79-2.97-2.12-2.07-4.29-4.22-8.54-6.38-12.79-1.15-2.25-3.93-3.23-6.31-2.37-1.2,.44-1,1.42-1.01,2.3-.03,3.71,0,7.42-.01,11.13-.01,3.77-.02,3.78-3.62,3.81-2.12,.02-4.24-.03-6.36,.02-1.52,.03-2.16-.66-2.12-2.16,.04-1.99,.01-3.97,.01-5.96,0-12.58,0-25.17,0-37.75,0-3.61,.02-3.62,3.71-3.63,5.56-.01,11.13-.05,16.69,.01,4.73,.05,9.1,1.18,13.03,4.06,6.79,4.98,6.1,18.51-.22,22.83-.55,.37-1.05,.82-1.63,1.13-1.46,.8-1.59,1.65-.75,3.17,2.85,5.22,5.5,10.55,8.24,15.84,.3,.58,.73,1.11,.46,2.44Zm-22.48-26.95c.79,0,1.59-.06,2.38,0,4.54,.37,6.98-2.9,6.58-7.32-.35-3.85-2.64-5.78-7.49-5.79-7.81-.02-6.29-.95-6.46,6.01-.02,.66,0,1.32,0,1.98,.05,5.88-.66,5.04,4.99,5.11Z"/>
      <path class="cls-4" d="M106.21,325.78c0,7.42,.03,14.84-.01,22.26-.01,2.84-.08,2.86-2.86,2.9-2.12,.03-4.25-.11-6.36,.04-2.08,.15-2.83-.6-2.77-2.69,.11-4.37,.04-8.74,.04-13.12,0-.93-.03-1.86-.01-2.78,.02-1.3-.6-1.96-1.91-1.96-4.5,0-9.01,0-13.51,0-1.66,0-1.86,1.11-1.85,2.42,.02,4.77,.02,9.54,0,14.31-.01,3.73-.03,3.74-3.67,3.77-1.99,.02-3.99-.14-5.96,.05-2.22,.21-2.69-.8-2.68-2.76,.05-14.71,.07-29.42,0-44.12-.01-2.1,.64-2.82,2.72-2.68,2.37,.16,4.77,.11,7.15,.01,1.9-.08,2.54,.67,2.49,2.56-.11,4.37-.05,8.74-.04,13.12q0,4.02,4.21,4.02c3.44,0,6.89-.09,10.33,.04,2.11,.08,2.8-.76,2.76-2.79-.09-4.77,.07-9.54-.08-14.31-.07-2.17,.71-2.79,2.76-2.65,2.24,.15,4.51,.13,6.75,0,1.89-.11,2.59,.53,2.53,2.48-.12,4.24-.04,8.48-.04,12.72,0,3.05,0,6.1,0,9.14Z"/>
      <path class="cls-4" d="M290.03,325.87c0-7.16-.02-14.32,.01-21.48,.01-2.85,.06-2.89,2.78-2.91,4.11-.03,8.22,.1,12.33-.03,12.51-.4,22.67,8.3,23.55,21.36,.28,4.13,.25,8.22-.95,12.21-2.91,9.72-10.76,15.72-20.88,15.92-4.64,.09-9.28,.03-13.92,0-2.83-.02-2.89-.05-2.91-2.8-.04-7.42-.01-14.85-.01-22.27Zm11.9,.19c0,4.38,0,8.75,0,13.13,0,1.26,.05,2.42,1.77,2.51,5.48,.27,10.15-1.48,11.85-7.7,1.28-4.66,1.32-9.45,.3-14.17-1.4-6.51-5.07-9.17-11.62-8.81-1.66,.09-2.37,.56-2.33,2.32,.09,4.24,.03,8.49,.03,12.73Z"/>
      <path class="cls-4" d="M541.17,350.95c-4.02,0-7.82-.02-11.63,.01-1.41,.01-2.12-.76-2.69-1.93-1.62-3.33-3.31-6.63-4.98-9.94-.59-1.15-.95-2.45-1.99-3.3-1.28,.09-1.34,1.22-1.73,1.97-1.76,3.41-3.58,6.8-5.11,10.31-1.01,2.31-2.48,3.06-4.91,2.92-3.26-.19-6.54-.05-9.61-.05-.64-1.53,.22-2.18,.65-2.93,3.57-6.34,7.05-12.74,10.82-18.97,1.38-2.27,1.23-3.99-.06-6.16-3.44-5.81-6.69-11.73-9.98-17.62-.56-1.01-1.42-1.91-1.54-3.51,4.16-.61,8.33-.2,12.47-.24,1.35-.01,1.58,1.29,2.03,2.18,1.85,3.66,3.61,7.37,5.41,11.05,.33,.68,.53,1.51,1.62,1.85,2.23-3.6,4.09-7.38,5.66-11.24,1.22-3,2.87-4.32,6.2-3.96,2.97,.32,6.01,.07,8.84,.07,.69,1.45-.23,2.09-.65,2.84-3.55,6.35-7.07,12.73-10.76,19-1.16,1.97-1.17,3.49,0,5.45,3.53,5.9,6.88,11.91,10.25,17.91,.64,1.13,1.6,2.14,1.7,4.29Z"/>
      <path class="cls-6" d="M882.84,326.07c0-7.29,.06-14.58-.04-21.87-.03-2.02,.52-2.8,2.66-2.78,9.68,.09,19.35,.1,29.03,0,2.15-.02,2.86,.71,2.63,2.74-.26,2.21,.94,5-.59,6.5-1.36,1.32-4.06,.37-6.17,.4-4.11,.07-8.22-.01-12.33,.03-2.9,.03-2.9,.07-2.99,2.78q-.22,7.27,6.92,7.27c3.18,0,6.36,.03,9.54-.01,1.45-.02,2.09,.51,2.23,2.05,.68,7.04,.72,7.03-6.29,7.03-3.45,0-6.89,.04-10.34-.01-1.52-.02-2.18,.59-2.08,2.13,.19,2.89-1.1,6.4,.53,8.52,1.63,2.12,5.2,.67,7.91,.78,3.84,.15,7.69,.08,11.53,0,1.51-.03,2.04,.52,2.15,2.05,.53,7.28,.57,7.28-6.86,7.28-7.69,0-15.38,.02-23.07,0-4.06-.01-4.43,.98-4.4-4.2,.04-6.89,.01-13.79,0-20.68Z"/>
      <path class="cls-6" d="M604.04,326.08c0-7.29,.07-14.59-.04-21.88-.03-2.08,.62-2.79,2.7-2.78,9.81,.07,19.62,.06,29.44,.01,1.66,0,2.45,.48,2.34,2.26-.11,1.72-.12,3.45,0,5.17,.13,1.84-.76,2.24-2.37,2.22-5.57-.05-11.14-.04-16.71-.01-2.97,.01-2.98,.05-3.02,3.1-.02,1.59,.05,3.18-.02,4.77-.07,1.73,.68,2.26,2.38,2.22,4.37-.11,8.75-.07,13.13-.04,3.03,.03,3.13,.07,3.09,3.14-.09,6.88,1.1,5.83-5.8,5.91-3.45,.04-6.9,.09-10.34-.03-1.95-.07-2.57,.67-2.47,2.54,.13,2.25,.09,4.51,.02,6.76-.05,1.75,.73,2.24,2.39,2.22,5.44-.08,10.87-.05,16.31-.03,3.34,.01,3.4,.04,3.38,3.17-.06,7.19,.95,6.06-6.05,6.11-8.22,.06-16.44,.03-24.66,0-3.64,0-3.66-.03-3.67-3.78-.01-7.03,0-14.06,0-21.08Z"/>
      <path class="cls-4" d="M272.88,350.95c-6.22,0-6.44,.06-8-5.79-.96-3.61-1.6-3.24-4.3-3.24-3.44,0-6.89,.07-10.33-.03-1.7-.05-2.83,.34-3.07,2.2-.05,.38-.3,.73-.42,1.11q-1.84,5.74-8.02,5.74c-6.83,0-6.79,.01-4.49-6.26,4.84-13.15,9.63-26.32,14.45-39.48,1.37-3.74,1.39-3.82,5.27-3.72,2.48,.07,5.35-.98,7.35,.52,1.83,1.37,1.95,4.24,2.77,6.45,4.89,13.13,9.71,26.29,14.52,39.45,1.08,2.95,1.04,2.98-2.15,3.02-1.19,.02-2.38,0-3.58,0Zm-16.67-33.54l-.91,.13c-1.45,4.81-2.91,9.63-4.47,14.8,3.58-.11,6.66,.42,9.97-.43-1.6-5.05-3.09-9.77-4.59-14.5Z"/>
      <path class="cls-4" d="M120.13,325.87c0-7.15-.02-14.31,0-21.46,.01-2.85,.06-2.92,2.82-2.93,9.54-.04,19.08-.03,28.61,0,2.89,0,2.89,.07,2.96,2.79q.19,6.81-6.5,6.81c-4.24,0-8.48,.08-12.72-.03-1.98-.05-3,.43-2.79,2.63,.15,1.57,.11,3.18,0,4.76-.14,2.04,.64,2.82,2.74,2.75,4.1-.13,8.21-.05,12.32-.04,3.4,.01,3.46,.03,3.42,3.54-.08,6.32,1,5.44-5.39,5.5-3.58,.03-7.15,.06-10.73-.02-1.65-.03-2.49,.47-2.35,2.25,.23,2.88-1.13,6.43,.57,8.48,1.64,1.99,5.21,.62,7.92,.72,3.7,.13,7.42,.07,11.13,.01,1.61-.02,2.44,.43,2.4,2.25-.18,8.7,.98,6.94-6.77,7.04-7.68,.1-15.37,.02-23.05,.02-5.17,0-4.61,.23-4.61-4.81,0-6.76,0-13.51,0-20.27Z"/>
      <path class="cls-6" d="M341.51,326.37c0-7.16,0-14.31,0-21.47,0-3.36,.03-3.41,3.15-3.42,9.28-.03,18.55-.03,27.83,0,3.06,0,3.06,.06,3.11,3.06q.13,6.54-6.38,6.54c-4.37,0-8.75,.06-13.12-.03-1.88-.04-2.48,.6-2.53,2.51-.23,7.58-.3,7.58,7.45,7.58,2.92,0,5.83,.06,8.75-.03,1.7-.05,2.28,.61,2.39,2.3,.46,6.81,.51,6.8-6.15,6.8-3.31,0-6.63,.08-9.94-.03-1.91-.06-2.63,.65-2.48,2.54,.22,2.76-1.06,6.16,.52,8.12,1.69,2.09,5.2,.67,7.91,.78,3.7,.15,7.42,.09,11.13,.01,1.92-.04,2.52,.75,2.48,2.6-.16,8.06,.86,6.64-6.33,6.7-8.22,.08-16.43,.04-24.65,0-3.06-.01-3.13-.08-3.15-3.11-.04-7.16-.01-14.31,0-21.47Z"/>
      <path class="cls-5" d="M455.61,326.09c0-7.29,.06-14.58-.04-21.87-.02-1.97,.41-2.82,2.62-2.8,9.67,.11,19.35,.1,29.02,0,2.08-.02,2.7,.62,2.73,2.71,.1,6.94,.19,6.94-6.81,6.94-4.24,0-8.48,.09-12.72-.04-2.1-.06-2.75,.68-2.69,2.76,.26,8.91-1.27,7.18,7.27,7.35,3.05,.06,6.1,.06,9.14-.01,1.73-.04,2.24,.72,2.34,2.37,.43,6.7,.47,6.7-6.24,6.7-3.31,0-6.63,.07-9.94-.03-1.81-.05-2.71,.45-2.58,2.45,.14,2.11,.14,4.25,0,6.36-.15,2.14,.77,2.75,2.79,2.72,5.43-.09,10.87-.05,16.3-.03,3.01,.01,3.08,.05,3.06,3.08-.03,7.52,.73,6.1-5.98,6.17-8.22,.08-16.43,.03-24.65,.02-3.62,0-3.63-.03-3.64-3.77-.01-7.02,0-14.05,0-21.07Z"/>
      <path class="cls-4" d="M552.3,326.47c0-7.42,.06-14.84-.04-22.26-.03-2.01,.51-2.83,2.66-2.79,6.22,.12,12.46-.16,18.68,.11,6.2,.27,11.68,2.39,15.16,7.97,6.04,9.68,1.17,21.3-9.91,24.01-3.94,.96-7.9,.74-11.85,.68-2.04-.03-2.88,.49-2.79,2.66,.15,3.57,.06,7.15,.04,10.73-.02,3.31-.04,3.32-3.18,3.36-1.46,.02-2.91,0-4.37,0-4.29,0-4.43,.63-4.4-4.21,.04-6.76,0-13.51,0-20.27Zm11.92-8.44c0,1.72,0,3.45,0,5.17,0,.88,.23,1.66,1.25,1.66,2.91,.01,5.85,.42,8.71-.25,3.38-.79,5.17-3.67,4.77-7.23-.4-3.5-2.84-6.14-6.05-6.32-2.25-.13-4.51,0-6.76-.04-1.31-.03-1.97,.46-1.93,1.84,.05,1.72,.01,3.45,.01,5.17Z"/>
      <path class="cls-4" d="M190.09,326.21c0-7.28-.02-14.56,0-21.85,.01-2.83,.06-2.88,2.81-2.89,5.96-.03,11.92-.16,17.87,.04,6.05,.19,11.49,2.03,15.22,7.2,6.7,9.28,2.22,21.65-8.83,24.66-3.78,1.03-7.6,.86-11.43,.88-3.68,.02-3.69,.03-3.71,3.7-.01,3.57-.05,7.15,.02,10.72,.03,1.71-.65,2.37-2.35,2.3-2.38-.09-4.77-.14-7.15,.01-1.97,.12-2.51-.68-2.49-2.53,.07-7.41,.03-14.83,.03-22.24Zm11.89-8.46c0,1.72,.05,3.44-.02,5.15-.05,1.32,.47,2,1.81,1.99,2.38-.02,4.77,.14,7.13-.1,3.95-.41,6.09-3.19,5.77-7.12-.36-4.39-2.92-6.59-7.7-6.64q-6.98-.08-6.98,6.72Z"/>
      <path class="cls-5" d="M729.51,325.92c0-7.16-.02-14.31,0-21.47,.01-2.89,.05-2.96,2.79-2.97,9.67-.03,19.35,.01,29.02-.04,1.79,0,2.65,.45,2.59,2.45-.28,8.81,1.39,6.98-6.97,7.16-4.24,.09-8.48,.09-12.72-.02-1.89-.05-2.47,.57-2.54,2.48-.25,7.65-.31,7.64,7.33,7.64,3.05,0,6.1,.02,9.14-.01,1.46-.01,2.24,.6,2.2,2.11,0,.13,0,.27,0,.4-.13,7.99,1.01,6.4-5.99,6.54-3.44,.07-6.89,.08-10.34-.02-1.68-.04-2.47,.47-2.33,2.25,.23,2.89-1.11,6.43,.56,8.5,1.62,2,5.2,.62,7.91,.71,3.71,.13,7.42,.09,11.13,0,1.8-.04,2.64,.47,2.6,2.47-.2,8.2,.98,6.73-6.63,6.81-8.22,.08-16.43,.04-24.65,0-3.06-.01-3.11-.07-3.13-3.13-.03-7.29-.01-14.58-.01-21.87Z"/>
      <path class="cls-6" d="M841.71,326.3c0,3.44-.19,6.88,.94,10.23,1.29,3.83,3.62,5.55,7.7,5.52,4.18-.03,6.78-1.62,7.78-5.39,.58-2.19,1.36-3.13,3.72-2.84,2.09,.25,4.23,0,6.35,.06,2.27,.07,2.54,.35,2.22,2.62-.53,3.79-2.17,7.06-4.9,9.76-6.87,6.79-23.38,8.05-30.95-1.16-3.07-3.73-4.48-8.03-5.12-12.69-.71-5.17-.59-10.33,.57-15.4,2.09-9.17,9.27-17.21,22.12-16.15,4.74,.39,9.07,1.68,12.69,4.91,3.1,2.76,4.8,6.29,5.58,10.27,.45,2.28,.14,2.6-2.09,2.7-1.59,.07-3.18,.06-4.77,0-1.44-.05-3.02,.46-4.3-.25-1.28-.71-.79-2.39-1.26-3.6-1.4-3.59-4.45-4.35-7.7-4.57-3.34-.22-6.24,1.77-7.38,4.98-.71,1.98-1.25,4.05-1.21,6.21,.03,1.59,0,3.18,0,4.77Z"/>
      <path class="cls-4" d="M32.46,301.47c5.96,0,11.92,.07,17.88-.04,2.02-.04,2.94,.5,2.75,2.66-.15,1.71-.07,3.44-.02,5.16,.04,1.39-.64,1.85-1.93,1.83-3.31-.03-6.62-.05-9.93,0-2.78,.04-2.83,.09-2.84,2.92-.02,10.86,0,21.72,0,32.58,0,.93,0,1.85-.03,2.78-.04,.87-.38,1.56-1.38,1.57-3.05,.02-6.09,.02-9.14,0-1.18,0-1.6-.74-1.61-1.81,0-.93,0-1.85,0-2.78,0-10.73,.01-21.45,0-32.18,0-3.02-.05-3.05-3.05-3.09-3.05-.04-6.09-.07-9.14,.01-1.72,.05-2.33-.6-2.28-2.33,.25-8.92-1.35-7.11,6.84-7.28,4.63-.09,9.27-.02,13.91-.02Z"/>
      <path class="cls-3" d="M386.89,325.9c0-7.15-.02-14.3,0-21.46,.01-2.89,.06-2.92,2.78-2.98,2.25-.05,4.5-.04,6.75,0,2.83,.05,2.89,.08,2.9,2.86,.03,7.55,0,15.1,0,22.65,0,3.71-.02,7.42,0,11.13,.02,3.52,.04,3.53,3.44,3.55,4.77,.02,9.54-.03,14.3,.01,2.8,.02,2.88,.08,2.86,2.91-.04,7.71,.86,6.31-6.17,6.38-7.68,.08-15.36,.03-23.05,.01-3.82,0-3.83-.03-3.84-4,0-7.02,0-14.04,0-21.06Z"/>
      <path class="cls-6" d="M714.66,326.15c0,7.29,.03,14.59-.01,21.88-.02,2.82-.09,2.85-2.93,2.91-1.99,.05-3.98,.04-5.97,0-3.08-.06-3.13-.07-3.15-3.07-.03-6.37,0-12.73,0-19.1,0-8.09-.02-16.18,0-24.27,0-2.99,.05-3,3.11-3.05,1.86-.03,3.71-.02,5.57,0,3.36,.04,3.37,.05,3.38,3.6,.01,7.03,0,14.06,0,21.09Z"/>
    </g>
  </g>
</svg>