<?xml version="1.0" encoding="UTF-8"?>
<svg id="Layer_1" data-name="Layer 1" xmlns="http://www.w3.org/2000/svg" viewBox="0 0 1920 353">
  <path id="Toyota" d="M802.12,67.61h-187.07v41.46h69.11v176.34h49.09V109.07h69.11l-.24-41.46m183.02,143.7c-7.63,19.3-24.78,33.36-45.28,36.94-3.81,.71-7.63,.95-11.2,.95-3.81,0-7.63-.48-11.44-.95-20.49-3.57-37.65-17.63-45.28-36.94-4.29-11.2-6.67-23.12-6.67-35.03s2.14-23.83,6.67-34.79c7.63-19.3,24.78-33.36,45.28-36.94,7.63-1.43,15.25-1.43,22.88,0,20.49,3.57,37.65,17.63,45.28,36.94,8.58,22.4,8.58,47.42-.24,69.82m-56.72-150.37c-63.86,0-115.34,51.71-115.34,115.34s51.71,115.34,115.34,115.34,115.34-51.71,115.34-115.34-51.47-115.34-115.34-115.34h0Zm116.29,6.67h57.67l53.86,93.65,53.86-93.65h57.67l-86.98,137.26v80.55h-48.85v-80.55l-87.22-137.26m339.34,181.82c3.81,0,7.63-.48,11.2-.95,20.49-3.57,37.65-17.63,45.28-36.94,8.82-22.4,8.82-47.42,0-69.82-7.63-19.3-24.78-33.36-45.28-36.94-7.63-1.43-15.25-1.43-22.88,0-20.49,3.57-37.41,17.63-45.04,36.94-4.29,11.2-6.67,22.88-6.67,34.79s2.38,24.07,6.67,35.03c7.63,19.3,24.78,33.36,45.28,36.94,3.81,.48,7.63,.95,11.44,.95m-115.34-73.16c0-63.63,51.71-115.34,115.34-115.58,63.63,0,115.34,51.71,115.58,115.34v.24c0,63.63-51.71,115.34-115.58,115.34s-115.34-51.47-115.34-115.34Zm565.01,22.88l-31.93-86.03-32.17,86.03h64.1m14.06,38.13h-92.7l-17.87,47.9h-54.57l88.17-217.81h61.01l88.17,217.81h-54.33l-17.87-47.9Zm-150.61-169.67h-187.07v41.46h69.11v176.34h49.09V109.07h68.87v-41.46M394.15,17.8C354.83,5.89,313.84-.07,272.86,.41c-40.99-.48-81.98,5.24-121.3,17.4C61.72,46.64,0,106.69,0,175.8c0,97.23,122.01,176.82,272.86,176.82s272.86-79.12,272.86-176.82c.24-69.11-61.48-129.16-151.56-157.99h0Zm-121.3,258.8c-22.64,0-40.99-44.09-41.94-99.85,13.34,1.43,27.4,1.67,41.94,1.67s28.6-.71,41.94-1.67c-.95,55.76-19.3,99.85-41.94,99.85h0Zm-39.08-143.22c5.96-39.32,21.21-66.72,39.08-66.72s32.89,27.4,39.08,66.49c-25.97,2.62-52.19,2.62-78.16,.24Zm102.23-3.1c-9.06-61.01-33.84-105.09-63.15-105.09s-53.86,43.61-63.15,105.09c-55.52-8.82-94.13-28.12-94.13-51.23,0-30.98,70.54-56,157.28-56s157.28,25.02,157.28,56c.24,22.88-38.6,42.66-94.13,51.23h0ZM39.8,169.36c0-30.03,11.68-57.91,31.69-82.21-.24,1.67-.24,3.57-.24,5,0,37.89,56.48,69.58,135.12,81.5v8.58c0,69.82,19.54,129.16,46.23,149.42-119.39-7.15-212.8-76.97-212.8-162.28h0Zm253.55,162.76c26.69-20.49,46.23-79.83,46.23-149.65v-8.58c78.64-11.68,135.12-43.61,135.12-81.5,0-1.67,0-3.57-.24-5,20.02,22.64,31.22,51.95,31.69,82.21,0,85.07-93.41,154.9-212.8,162.52h0Z"/>
</svg>