<?xml version="1.0" encoding="UTF-8"?>
<svg id="Layer_1" data-name="Layer 1" xmlns="http://www.w3.org/2000/svg" viewBox="0 0 844.4 170.13">
  <path d="M354.88,39.08h-78.52v17.37h28.99v74.02h20.57V56.44h28.99v-17.37m76.76,60.36c-3.22,8.11-10.41,13.98-19,15.51-1.57,.28-3.16,.42-4.75,.43-1.63,0-3.24-.16-4.78-.43-8.59-1.53-15.77-7.4-18.97-15.51-1.84-4.68-2.77-9.65-2.77-14.68s.95-9.98,2.77-14.65c3.2-8.12,10.38-14,18.97-15.55,3.16-.59,6.4-.59,9.56,0,8.59,1.53,15.76,7.4,18.97,15.51,3.68,9.44,3.68,19.92,0,29.36m-23.75-63.1c-26.75,0-48.43,21.68-48.43,48.43s21.68,48.43,48.43,48.43,48.43-21.68,48.43-48.43-21.68-48.43-48.43-48.43h0Zm48.73,2.77h24.24l22.61,39.26,22.61-39.29h24.21l-36.54,57.58v33.8h-20.54v-33.8l-36.58-57.58m142.48,76.3c1.61,0,3.21-.16,4.75-.43,8.59-1.53,15.77-7.4,18.97-15.51,3.71-9.43,3.71-19.9,0-29.33-3.2-8.11-10.38-13.98-18.97-15.51-3.16-.56-6.4-.56-9.56,0-8.58,1.54-15.74,7.41-18.93,15.51-1.84,4.67-2.77,9.64-2.77,14.65s.99,10.14,2.77,14.68c3.2,8.11,10.38,13.99,18.97,15.51,1.58,.29,3.17,.43,4.78,.43m-48.42-30.63c-.02-26.74,21.65-48.43,48.39-48.45,26.74-.02,48.43,21.65,48.45,48.39v.06c-.02,26.74-21.71,48.41-48.45,48.39-26.72-.02-48.38-21.68-48.39-48.39Zm237.07,9.56l-13.45-36.11-13.47,36.09h26.92m5.95,16h-38.86l-7.49,20.11h-22.88l37.01-91.38h25.6l37.01,91.38h-22.83l-7.56-20.11Zm-63.19-71.21h-78.52v17.37h28.99v74.02h20.57V56.44h28.93v-17.37M183.74,18.17c-16.5-5-33.67-7.45-50.9-7.25-17.24-.2-34.41,2.25-50.91,7.25C44.24,30.3,18.29,55.46,18.29,84.47c0,40.85,51.18,74.16,114.54,74.16s114.54-33.17,114.54-74.16c0-29.01-25.88-54.18-63.64-66.3h0Zm-50.91,108.64c-9.45,0-17.17-18.49-17.6-41.92,5.62,.6,11.51,.74,17.6,.74s11.98-.28,17.63-.71c-.46,23.36-8.17,41.88-17.63,41.88h0Zm-16.42-60.07c2.49-16.46,8.89-27.98,16.42-27.98s13.75,11.51,16.42,27.94c-10.93,.98-21.92,.99-32.85,.04Zm42.91-1.35c-3.84-25.6-14.22-44.08-26.48-44.08s-22.64,18.34-26.48,44.08c-23.25-3.7-39.53-11.83-39.53-21.48,0-13.01,29.61-23.54,66.02-23.54s66.05,10.53,66.05,23.54c0,9.6-16.28,17.92-39.53,21.48h-.05Zm-124.31,16.42c0-12.59,4.91-24.28,13.33-34.49-.14,.71-.14,1.5-.14,2.06,0,15.85,23.68,29.15,56.67,34.19v3.56c0,29.29,8.17,54.18,19.41,62.75-50.02-2.95-89.23-32.28-89.23-68.08h-.04Zm106.44,68.27c11.23-8.61,19.38-33.49,19.38-62.78v-3.56c32.99-4.87,56.67-18.34,56.67-34.17,0-.74,0-1.5-.14-2.1,8.4,9.55,13.12,21.77,13.33,34.49,0,35.65-39.21,64.98-89.23,68.08v.04h0Z"/>
</svg>