<?xml version="1.0" encoding="UTF-8"?>
<svg id="Layer_1" data-name="Layer 1" xmlns="http://www.w3.org/2000/svg" viewBox="0 0 1466 353">
  <defs>
    <style>
      .cls-1 {
        fill: #030303;
      }

      .cls-2 {
        fill: #020202;
      }
    </style>
  </defs>
  <g id="Zusset">
    <path class="cls-1" d="M900.03,99.4c15.68,0,31.37-.01,47.05,0,9.23,0,17.87,7.05,19.68,15.98,2.11,10.43-2.68,20.31-11.55,24.4-3.73,1.72-7.61,1.76-11.48,1.79-29.97,.21-59.94,.34-89.92,.48-7.24,.04-13.08,5.88-12.98,13.02,.1,7.1,5.99,12.82,13.23,12.82,19.95,0,39.9-.06,59.85,.01,20.42,.08,35.63,9.77,45.45,27.25,16.28,28.99,3.77,64.21-26.76,76.98-5.99,2.5-12.27,3.85-18.82,3.83-30.9-.12-61.8-.19-92.7-.31-10.8-.04-17.47-4.37-21.09-13.59-4.88-12.45,4.75-26.83,18.06-26.8,31.25,.05,62.49,.18,93.74,.28,6.43,.02,11.82-4.85,12.36-11.16,.63-7.36-3.72-13.33-10.46-14.47-2.29-.39-4.56-.55-6.88-.55-18.34,.02-36.68,.25-55.01-.05-20.67-.34-36.56-9.78-46.64-27.85-17.45-31.28-2.13-69.35,31.82-80.11,5.18-1.64,10.57-2.25,16.02-2.25,15.68,0,31.36,0,47.04,0,0,.1,0,.19,0,.29Z"/>
    <path class="cls-1" d="M1070.89,167.97c11.18,0,22.41-.66,33.54,.15,20.12,1.46,38.85,17.48,44.8,37.24,7.83,25.98-3.69,53.23-27.7,65.19-7.09,3.54-14.66,5.44-22.64,5.41-30.9-.11-61.79-.17-92.69-.3-12.72-.05-20.13-6.23-21.9-18.48-1.8-12.41,9.4-22.11,18.36-22,25.82,.31,51.64,.27,77.46,.36,5.65,.02,11.3,.01,16.95,0,6.46,0,11.69-4.87,12.43-11.54,.71-6.41-3.7-12.75-9.88-13.98-2.13-.42-4.34-.61-6.52-.62-18.22-.05-36.44-.03-54.65-.03-33.83,0-58.95-28.58-54.85-62.42,3.08-25.46,24.8-46.16,50.16-47.54,13.24-.72,26.49-.21,39.74-.07,19.37,.2,38.75,.31,58.11-.06,9.17-.18,19.14,7.39,20.69,17.51,1.68,10.96-4.55,21.22-14.8,24.06-2.94,.81-6.17,.71-9.27,.73-29.73,.2-59.47,.32-89.2,.48-7.29,.04-12.78,5.7-12.77,13.07,.01,7.04,5.69,12.74,12.8,12.76,10.61,.03,21.22,0,31.82,0v.07Z"/>
    <path class="cls-1" d="M497.52,99.11c17.99,0,35.98-.03,53.97,.01,7.84,.02,15.67,.24,23.51,.27,12.77,.05,22.26,11.82,19.8,24.5-1.12,5.78-4.6,10.07-8.47,14.04-19.37,19.89-38.84,39.68-58.24,59.55-10.67,10.92-21.27,21.92-31.9,32.88-.54,.56-1.56,1.04-1.15,1.93,.47,1.03,1.63,.58,2.51,.58,19.14,0,38.28-.04,57.43,.02,7.37,.02,14.75,.06,22.11,.43,9.46,.48,19.83,10.21,17.85,24.15-1.45,10.23-10.1,17.72-20.31,17.71-31.02,0-62.04-.28-93.05,.13-11.86,.16-23.73,.3-35.59,.29-8.61,0-15.67-3.55-20.29-11.11-5.05-8.28-3.51-18.44,3.88-26.13,16.1-16.76,32.27-33.46,48.37-50.22,13.94-14.5,27.84-29.05,41.76-43.58,.63-.66,1.65-1.31,1.35-2.27-.43-1.39-1.78-.67-2.71-.67-23.98-.03-47.97-.02-71.95-.03-9.65,0-17.24-3.72-21.64-12.71-6.51-13.29,3.44-29.66,18.11-29.75,18.22-.11,36.44-.03,54.66-.03Z"/>
    <path class="cls-1" d="M1271.45,210.45c-16.83,0-33.66,0-50.49,.03-.95,0-2.22-.81-2.82,.46-.52,1.11,.54,1.93,1.13,2.71,9.36,12.41,21.62,19.16,37.26,19.2,10.65,.03,19.15,6.89,21.27,17.21,2.67,12.98-6.92,25.51-20.09,25.53-23.5,.04-44.29-7.63-61.55-23.9-15.91-15-25.18-33.65-27.23-55.5-3.7-39.38,16.74-75,52.99-90.21,30.26-12.7,59.65-9.22,86.34,10.34,21.28,15.6,32.6,37.32,35.23,63.61,.48,4.8,.93,9.76-.29,14.54-2.57,10.05-10.72,15.92-21.96,15.95-16.6,.04-33.2,.01-49.8,.01Zm-15.73-42.5c12.67,0,25.34-.07,38.01,.05,2.9,.03,3.22-.69,1.84-3.09-6.45-11.16-15.78-18.77-28.16-21.87-20.43-5.11-39.76,3.36-50.5,21.5-.53,.89-1.46,1.82-1.01,2.79,.52,1.1,1.86,.6,2.84,.6,12.33,.03,24.65,.02,36.98,.01Z"/>
    <path class="cls-1" d="M607.44,158.25c0-12.67,.22-25.34-.07-38-.24-10.85,9.04-21.67,21.26-21.23,11.87,.42,20.67,9.16,20.67,21.39,0,20.34,0,40.67,0,61.01,0,10.17,.65,20.17,6.3,29.12,9.27,14.68,22.57,22.59,39.74,22.18,18.18-.43,31.61-9.48,39.85-25.95,3-5.99,4.4-12.38,4.37-19.14-.07-22.08,.25-44.16-.13-66.24-.23-13.02,9.75-21.88,19.82-22.4,12.04-.62,22.39,8.61,22.4,21.28,.02,25.56,.78,51.18-.77,76.65-1.81,29.9-16.79,52.94-42.27,68.28-34.94,21.04-78.65,14.84-106.92-14.85-15.69-16.48-23.99-36.27-23.96-59.35,.02-10.92,0-21.84,0-32.76-.1,0-.2,0-.29,0Z"/>
    <path class="cls-1" d="M1398.71,166.29c0,8.48-.56,17,.11,25.43,1.83,23.14,21.77,41.19,44.85,41.15,10.6-.02,18.01,5.35,21.25,15.42,3.98,12.32-6.3,27.15-19.17,27.36-40.12,.66-74.61-25.54-85.77-62.39-2.67-8.83-3.94-17.85-3.94-27.08,.02-44.85,0-89.7,0-134.55,0-11.81,9.27-21.25,20.97-21.36,11.77-.1,21.33,9.06,21.45,20.87,.14,13.94,.12,27.89-.04,41.83-.03,2.84,.75,3.59,3.47,3.5,6.22-.19,12.45-.06,18.67-.06,10.09,0,19.39,7.1,21.13,16.16,2.21,11.47-2.82,21.13-13.29,25.28-2.25,.89-4.67,1.21-7.11,1.2-6.46-.03-12.91,.13-19.36-.08-2.84-.09-3.55,.92-3.5,3.61,.15,7.9,.05,15.8,.05,23.7,.07,0,.14,0,.2,0Z"/>
    <g>
      <path class="cls-2" d="M150.64,129.71c45.68,0,91.36,0,137.04,0,11.66,0,20.27,8.73,20.28,20.57,.01,11.5-8.76,20.15-20.17,20.35-26.13,.45-52.26,.05-78.37,.49-15.11,.26-28.32,6.35-39.4,16.72-16.24,15.2-23.05,34.08-20.26,56.18,3.55,28.2,26.22,50.92,54.21,54.97,3.16,.46,6.31,.68,9.5,.68,26.02-.03,52.05-.03,78.07,0,.92,0,2.2-.56,2.68,.55,.52,1.21-.9,1.6-1.55,2.22-18.82,17.94-40.5,30.97-65.16,39.08-17.25,5.67-34.93,8.64-53,8.49-44.93-.38-84.19-15.65-117.39-46.4-15.43-14.29-27.78-30.94-37.07-49.81C9.31,231.96,3.38,208.82,2.37,184.37c-.72-17.49,1.02-34.63,5.25-51.58,.67-2.67,1.9-3.14,4.33-3.13,46.23,.06,92.46,.05,138.69,.05Z"/>
      <path class="cls-1" d="M329.56,103.18c-6.01-4.98-12.4-9.13-19.68-11.8-6.54-2.4-13.22-3.98-20.21-3.98-39.41,0-78.82,.35-118.22-.09-46.97-.53-93.94-.08-140.91-.33-.95,0-2.17,.46-2.75-.54-.68-1.18,.48-1.99,1.05-2.88C49.81,50.56,78.51,27.16,114.95,13.5c16.12-6.04,32.78-9.37,50.01-10.26,20.14-1.04,39.77,1.25,59.07,7.06,28.55,8.59,53.03,23.88,73.81,45.25,13.14,13.51,23.69,28.9,31.78,45.99,.19,.39,.51,.73-.07,1.63Z"/>
      <path class="cls-1" d="M346.35,178.72c-.17,13.01-1.67,25.69-4.66,38.2-3.19,13.36-7.87,26.13-13.97,38.42-1.02,2.05-2.43,1.85-4.04,1.85-20.52,0-41.05,0-61.57,0-16.35,0-32.71,0-49.06,0-11.32,0-20.52-9.19-20.59-20.57-.07-11.35,9.06-20.7,20.42-20.74,18.11-.06,36.22,.01,54.33-.03,9.22-.02,18.46,.26,27.64-.38,10.45-.72,19.98-4.66,28.64-10.64,9.04-6.24,16.14-14.19,20.92-24.17,.4-.84,.98-1.42,1.94-1.96Z"/>
    </g>
  </g>
</svg>